<svg width="73" height="48" viewBox="0 0 73 48" fill="none" xmlns="http://www.w3.org/2000/svg">
<g clip-path="url(#clip0_11_836)">
<path d="M51.4229 11.6735C52.0924 10.7057 52.3304 10.612 52.2576 10.125C52.2243 9.93631 52.2132 9.7489 52.2132 9.56026C52.2132 8.68609 52.667 7.45312 54.5867 7.45312C55.8591 7.45312 56.3572 8.13372 56.3572 8.81431C56.3572 9.27297 56.1254 9.66629 55.7814 9.99796C54.869 10.8771 54.5867 11.1039 55.2229 12.0447C55.5385 12.5144 55.848 12.7302 56.0687 12.7302C56.3227 12.7302 56.4559 12.4207 56.3067 11.8511C56.0416 10.7834 55.8197 10.7501 56.6272 10.8166C57.4299 10.8832 57.7394 10.9498 57.8886 11.5194C57.949 11.7525 57.9823 11.9892 57.9823 12.1445C57.9823 12.4762 57.9379 12.7697 57.838 13.0347C57.5557 13.7819 57.3399 13.8201 57.4509 13.8485C57.4952 13.8596 57.5396 13.8645 57.584 13.8645C57.8664 13.8645 58.071 13.6648 58.2313 13.433C58.4138 13.1728 58.5248 13.0458 58.6345 13.0458C58.7344 13.0458 58.833 13.1346 58.9834 13.322C59.3102 13.7314 59.4421 14.2455 58.6296 14.6721C58.3028 14.8435 57.8886 14.9101 57.3683 14.9101C57.1636 14.9101 56.9651 14.8928 56.7703 14.8608C56.6593 14.8435 56.5656 14.8336 56.4719 14.8336C56.1563 14.8336 55.8739 14.9335 55.2056 15.0938C54.8407 15.1875 54.4535 15.238 54.0935 15.238C52.2022 15.238 51.0234 13.9607 51.0234 12.8597C51.0234 12.4343 51.1726 12.0348 51.4217 11.676L51.4229 11.6735ZM54.1552 14.2282C54.2822 14.2282 54.4042 14.211 54.5312 14.19C54.8469 14.1345 54.6138 14.068 53.8062 13.1223C53.297 12.5354 53.0812 12.2592 52.9654 12.2592C52.8211 12.2592 52.7767 12.7351 52.7767 12.835C52.7767 13.6044 53.2243 14.2295 54.1539 14.2295L54.1552 14.2282ZM54.2711 9.56026C54.3537 9.56026 54.5361 9.47148 54.8468 9.13981C55.0022 8.97337 55.1008 8.80198 55.1008 8.6417C55.1008 8.44812 54.9406 8.38154 54.8407 8.38154C54.4042 8.38154 54.2156 8.99556 54.2156 9.39997V9.51587C54.2156 9.54299 54.2378 9.56026 54.2711 9.56026Z" fill="#FAF5EB"/>
<path d="M13.7356 12.1201C13.9045 11.2299 13.9193 10.2288 15.7736 8.90456C16.6195 8.30164 17.7464 7.896 19.1889 7.896C23.3835 7.896 24.6793 11.1485 24.6793 13.1731C24.6793 13.85 24.5696 14.5121 24.3119 15.1754C23.7299 16.7277 22.1185 18.5389 19.1532 18.5389C16.1879 18.5389 13.6406 16.5292 13.6406 13.1743C13.6406 12.8204 13.6702 12.4752 13.7368 12.1214L13.7356 12.1201ZM19.152 17.1765C19.7993 17.1765 20.3812 16.904 20.8374 16.4626C21.9853 15.3517 21.9052 14.6452 21.9927 13.9745C22.0371 13.7094 22.0519 13.4369 22.0519 13.1718C22.0519 11.3027 21.0655 9.26335 19.1889 9.26335C17.3124 9.26335 16.252 11.2509 16.252 13.1718C16.252 15.0928 17.2828 17.1753 19.152 17.1753V17.1765Z" fill="#FAF5EB"/>
<path d="M25.8064 12.1201C25.9753 11.2299 25.9901 10.2288 27.8444 8.90456C28.6915 8.30164 29.8172 7.896 31.2597 7.896C35.4543 7.896 36.7501 11.1485 36.7501 13.1731C36.7501 13.85 36.6404 14.5121 36.3827 15.1754C35.8007 16.7277 34.1893 18.5389 31.224 18.5389C28.2587 18.5389 25.7114 16.5292 25.7114 13.1743C25.7114 12.8204 25.741 12.4752 25.8076 12.1214L25.8064 12.1201ZM31.2228 17.1765C31.8701 17.1765 32.452 16.904 32.9082 16.4626C34.0561 15.3517 33.976 14.6452 34.0635 13.9745C34.1079 13.7094 34.1227 13.4369 34.1227 13.1718C34.1227 11.3027 33.1363 9.26335 31.2597 9.26335C29.3832 9.26335 28.3228 11.2509 28.3228 13.1718C28.3228 15.0928 29.3536 17.1753 31.2228 17.1753V17.1765Z" fill="#FAF5EB"/>
<path d="M39.8338 8.02783H42.55C45.2145 8.02783 48.4744 9.83782 48.4744 13.1717C48.4744 16.5057 45.2514 18.3378 42.55 18.3378H39.893C37.6552 18.3378 37.8401 18.4636 38.406 17.079C38.6267 16.5414 38.7007 15.9237 38.7007 15.2764V11.1768C38.6859 10.5443 38.575 9.94755 38.3259 9.41738C37.6416 7.97482 37.5454 8.0266 39.835 8.0266L39.8338 8.02783ZM42.7251 9.63315C41.7165 9.63315 41.3269 10.9068 41.3269 13.1804C41.3269 15.454 41.7313 16.6758 42.6955 16.6758C43.0999 16.6758 43.6153 16.4477 44.2416 15.9471C45.0875 15.285 45.6694 14.3061 45.6694 13.0324C45.6694 11.7588 45.0739 10.839 44.2269 10.2509C43.6239 9.83165 43.1233 9.63315 42.7251 9.63315Z" fill="#FAF5EB"/>
<path d="M6.19313 2.56812C12.1607 2.56812 13.2913 2.9528 13.2913 4.99828C13.2913 5.98095 13.3135 6.36564 13.11 6.36564C12.9066 6.36564 12.4319 5.93656 11.4036 5.35954C10.6577 4.94157 9.77611 4.77142 8.64549 4.68141H7.10798C5.80844 4.68141 5.55939 5.02048 5.55939 6.81813C5.55939 8.61579 5.81954 8.95362 7.15237 8.95362H8.72316C9.79707 8.908 10.4074 8.69346 10.8254 8.3544C11.1866 8.06096 11.4012 7.86861 11.538 7.86861C11.7525 7.86861 11.7069 8.43331 11.7069 10.0053C11.7069 11.5774 11.7525 12.1532 11.538 12.1532C11.4024 12.1532 11.1879 11.9608 10.8254 11.6674C10.4074 11.3283 9.79707 11.1138 8.72316 11.0681H7.15237C5.81831 11.0681 5.55939 11.2371 5.55939 12.1532C5.55939 13.0692 5.16361 13.8374 5.95517 16.1208C6.76892 18.551 7.1536 18.4043 3.54843 18.4043C-0.0567506 18.4043 0.203404 18.5732 1.08497 16.3921C1.93202 14.301 1.52514 13.1938 1.52514 10.5491V7.40749C1.52514 6.34468 1.35622 5.42982 0.971539 4.63826C-0.101137 2.46701 0.225597 2.56812 6.19313 2.56812Z" fill="#FAF5EB"/>
<path d="M12.7968 32.375C12.9657 31.4848 12.9805 30.4836 14.8361 29.1594C15.682 28.5565 16.8089 28.1509 18.2514 28.1509C22.446 28.1509 23.7418 31.4034 23.7418 33.4279C23.7418 34.1048 23.6309 34.7669 23.3744 35.4303C22.7924 36.9826 21.181 38.7938 18.2157 38.7938C15.2504 38.7938 12.7031 36.7841 12.7031 33.4292C12.7031 33.0753 12.7327 32.7301 12.7981 32.3762L12.7968 32.375ZM18.2132 37.4314C18.8605 37.4314 19.4425 37.1589 19.8987 36.7175C21.0466 35.6066 20.9652 34.9001 21.054 34.2294C21.0984 33.9643 21.1132 33.6918 21.1132 33.4267C21.1132 31.5575 20.1268 29.5182 18.2502 29.5182C16.3736 29.5182 15.3133 31.5058 15.3133 33.4267C15.3133 35.3477 16.3441 37.4301 18.2132 37.4301V37.4314Z" fill="#FAF5EB"/>
<path d="M27.0152 28.2827H29.9226C32.513 28.2827 34.2724 29.7327 34.2724 31.4033C34.2724 32.0728 34.0591 32.6696 33.6251 33.1628C32.3527 34.6423 31.8583 34.5314 32.7053 35.5991L33.7065 36.8801C33.9642 37.2118 34.2811 37.5792 34.6115 37.9035C35.4142 38.6544 35.3254 38.5952 33.3391 38.5952C31.3528 38.5952 31.2418 38.4768 31.1235 37.8443C30.9545 36.9393 30.5057 36.7038 29.7919 35.7914C29.078 34.8865 28.9017 34.7101 28.644 34.7175C28.3789 34.7249 28.3197 34.7693 28.3197 34.9752V35.2329C28.3419 35.8075 28.3863 36.4918 28.5922 37.1095C29.115 38.684 29.3579 38.5964 27.0103 38.5964C24.6627 38.5964 24.9056 38.6926 25.4358 37.1095C25.6417 36.4918 25.6861 35.8062 25.7083 35.2329V31.6487C25.6639 30.8312 25.5542 30.1913 25.3187 29.6538C24.6714 28.2112 24.5678 28.2852 27.0189 28.2852L27.0152 28.2827ZM28.443 33.3317H28.554C30.4453 33.3317 31.5044 32.7288 31.5044 31.4773C31.5044 30.4836 30.5625 29.6599 29.2013 29.6599H28.7673C28.3925 29.6599 28.3185 29.9546 28.3185 31.4921C28.3185 33.0296 28.3407 33.3317 28.443 33.3317Z" fill="#FAF5EB"/>
<path d="M40.3366 28.2827C44.2229 28.2827 44.9651 28.533 44.9651 29.8646C44.9651 30.5045 44.9873 30.7474 44.8616 30.7474C44.7296 30.7474 44.4276 30.4527 43.7581 30.0557C43.2871 29.7758 42.7051 29.6587 41.9407 29.6587H40.9321C40.0789 29.6587 39.9162 29.8794 39.9162 31.0495C39.9162 32.2196 40.0851 32.4403 40.9543 32.4403H41.9777C42.6768 32.4107 43.0812 32.2713 43.3536 32.0506C43.5891 31.8595 43.7285 31.7338 43.8172 31.7338C43.964 31.7338 43.9356 32.1012 43.9356 33.1246C43.9356 34.1479 43.9652 34.5227 43.8172 34.5227C43.7285 34.5227 43.5891 34.3982 43.3536 34.2059C43.0812 33.9852 42.6768 33.8446 41.9777 33.8162H40.9543C40.0863 33.8162 39.9162 34.0887 39.9162 35.5091C39.9162 36.9295 40.0777 37.2094 40.9321 37.2094H41.9407C42.5584 37.2094 43.1551 37.0626 43.7001 36.768C44.451 36.3635 44.8406 36.0837 45.0317 36.0837C45.2228 36.0837 45.2376 36.3487 45.2376 37.0035C45.2376 38.335 44.4793 38.5927 40.5277 38.5927C36.5761 38.5927 36.4281 38.7025 36.9953 37.2685C37.216 36.7088 37.29 36.0911 37.29 35.5313V31.4317C37.29 30.7844 37.179 30.1876 36.9299 29.6575C36.2308 28.2297 36.4441 28.2815 40.3378 28.2815L40.3366 28.2827Z" fill="#FAF5EB"/>
<path d="M46.9748 35.1504C47.2695 34.9963 47.4458 34.9223 47.5642 34.9223C47.8885 34.9223 47.7405 35.5043 48.4248 36.5708C48.7491 37.0787 49.3076 37.3734 49.9413 37.3734C51.0374 37.3734 51.7587 36.9098 51.7587 36.1516C51.7587 35.5918 51.3247 35.2022 50.7946 34.9075C49.5653 34.2454 48.7491 34.4957 47.2029 33.259C46.6136 32.788 46.1944 32.1629 46.1944 31.2863C46.1944 28.9609 48.3582 28.1509 50.1164 28.1509C52.2285 28.1509 53.7228 28.9893 53.9731 30.4688L53.9953 30.6008C54.0175 30.7191 53.8116 30.8289 52.6995 31.2703C52.3025 31.4318 52.0892 31.5206 51.9782 31.5206C51.7797 31.5206 51.8894 31.2259 51.8093 30.4676C51.6774 29.2753 50.8155 29.5256 50.6836 29.5182H50.5504C49.6232 29.5182 49.1375 30.1076 49.1375 30.8424C49.1375 31.703 49.9105 32.0347 50.5208 32.2924C52.0448 32.8817 54.4281 33.4033 54.4281 35.6559C54.4281 37.4005 52.6033 38.7913 49.9611 38.7913C49.0117 38.7913 47.9809 38.6298 47.1647 38.181C45.2068 37.1071 45.8479 35.7373 46.9736 35.1492L46.9748 35.1504Z" fill="#FAF5EB"/>
<path d="M55.211 30.7489C55.0852 30.7489 55.1012 30.506 55.1012 29.8661C55.1012 28.5345 55.7929 28.2842 59.4215 28.2842C63.0501 28.2842 63.7344 28.5345 63.7344 29.8661C63.7344 30.506 63.7492 30.7563 63.6161 30.7563C63.4768 30.7563 63.1673 30.4764 62.4978 30.1016C62.16 29.9105 61.8801 29.8217 61.652 29.8217C60.9529 29.8217 60.7174 30.6897 60.7174 32.4417V35.2307C60.7396 35.8052 60.784 36.4895 60.9899 37.1072C61.5126 38.6817 61.7555 38.5942 59.4154 38.5942C57.0752 38.5942 57.3181 38.6904 57.8483 37.1072C58.0468 36.4895 58.0986 35.804 58.1134 35.2307V32.4417C58.1134 30.6897 57.8853 29.8143 57.1862 29.8143C56.9507 29.8143 56.6708 29.9105 56.3256 30.1016C55.6561 30.469 55.354 30.7489 55.2147 30.7489H55.211Z" fill="#FAF5EB"/>
<path d="M55.9136 20.2155C55.9949 20.1809 56.0751 20.1427 56.154 20.1033C56.1713 20.0946 56.1898 20.0848 56.207 20.0761C56.2181 20.07 56.228 20.065 56.2391 20.0589C56.2243 20.0663 56.2539 20.0527 56.2551 20.0527C56.302 20.033 56.3476 20.0133 56.3932 19.9923H56.2341L56.2625 20.0096C56.371 20.0724 56.5079 20.0737 56.6164 20.0096C56.7113 19.9541 56.7692 19.8616 56.784 19.7531C56.7988 19.6446 56.7668 19.5386 56.6879 19.4584C56.6447 19.4153 56.5929 19.3844 56.5337 19.3684C56.4721 19.3512 56.4092 19.3512 56.3476 19.3684C56.2983 19.3758 56.2477 19.3857 56.1996 19.3992C56.1232 19.4202 56.0517 19.4609 55.9851 19.5028C55.9123 19.5484 55.8458 19.6002 55.7792 19.6532C55.7089 19.7087 55.6546 19.7617 55.6016 19.8382C55.5326 19.938 55.4734 20.0453 55.4722 20.1723C55.4722 20.2907 55.519 20.4152 55.6029 20.499C55.7151 20.6112 55.8827 20.6445 56.0332 20.6026C56.2391 20.5447 56.3476 20.3425 56.4696 20.1846L56.4006 20.2734C56.4302 20.2352 56.4622 20.1982 56.4955 20.1624C56.5116 20.1452 56.5288 20.1279 56.5473 20.1119C56.588 20.0737 56.6176 20.033 56.6533 19.9874L56.5905 20.0687C56.6213 20.0293 56.6546 19.9911 56.6891 19.9541L56.1392 19.8826L56.1799 19.9356V19.7765C56.1589 19.8135 56.1367 19.8493 56.1145 19.885C56.0985 19.9122 56.0739 19.9417 56.048 19.9726C55.9925 20.0379 55.9345 20.102 55.8753 20.1637C55.847 20.1933 55.8827 20.2303 55.916 20.2167L55.9136 20.2155Z" fill="#FAF5EB"/>
<path d="M5.70122 22.6592C11.866 22.6592 12.3987 23.399 12.464 23.7491C12.5589 24.2596 11.6527 24.8317 11.199 25.0437C9.75889 25.7145 8.31386 24.8699 8.15481 24.7725H6.61731C5.31776 24.7725 5.06871 25.1115 5.06871 26.9092C5.06871 28.7069 5.32886 29.0447 6.66169 29.0447H8.23248C9.30639 28.9991 9.91671 28.7845 10.3347 28.4455C10.6959 28.152 10.9105 27.9597 11.0473 27.9597C11.2619 27.9597 11.2162 28.5244 11.2162 30.0964C11.2162 31.6684 11.2619 32.2442 11.0473 32.2442C10.9117 32.2442 10.6972 32.0519 10.3347 31.7584C9.91671 31.4194 9.30639 31.2048 8.23248 31.1592H6.66169C5.32763 31.1592 5.06871 31.3281 5.06871 32.2442C5.06871 33.1603 4.67293 33.9284 5.46449 36.2119C6.27824 38.642 6.66292 38.4953 3.05775 38.4953C-0.547429 38.4953 -0.287274 38.6642 0.594293 36.4831C1.44134 34.392 1.03446 33.2848 1.03446 30.6401V27.4985C1.03446 26.4357 0.865544 25.5209 0.480861 24.7293C-0.593048 22.5593 -0.265081 22.6604 5.70245 22.6604L5.70122 22.6592Z" fill="#FAF5EB"/>
<path d="M60.1797 19.2456C60.1538 19.2098 60.1316 19.1716 60.1131 19.1321L60.1563 19.2345C60.1254 19.1593 60.102 19.0939 60.0404 19.0347C60.033 19.0273 60.0256 19.0212 60.0182 19.0138C60.0046 19.0002 59.9923 18.9866 59.98 18.9731C59.9528 18.9423 59.9282 18.9102 59.901 18.8794V19.629C59.9368 19.5871 59.975 19.5476 59.9985 19.4971C60.0022 19.4885 60.0071 19.4798 60.0108 19.4712C60.0219 19.4515 60.033 19.433 60.0465 19.4157L59.9627 19.5242C59.9861 19.4946 60.0133 19.4675 60.0428 19.4441L59.9343 19.5279C59.9627 19.507 59.9923 19.4897 60.0243 19.4761L59.8949 19.5304L59.9035 19.5267L59.377 18.6229C59.3598 18.6365 59.345 18.6513 59.3314 18.6685C59.2907 18.7191 59.2451 18.7684 59.218 18.8276C59.1909 18.8868 59.16 18.9484 59.1452 19.0125C59.1329 19.0693 59.1268 19.1284 59.1206 19.1864C59.1206 19.1975 59.1181 19.2086 59.1181 19.2197C59.1169 19.2875 59.1305 19.3578 59.1415 19.4231C59.1452 19.4453 59.1514 19.465 59.1588 19.486C59.181 19.5464 59.2044 19.613 59.2402 19.6685C59.2698 19.7141 59.3055 19.7585 59.3401 19.8004C59.3474 19.809 59.3561 19.8189 59.3635 19.8263C59.4646 19.9262 59.6101 19.9878 59.7531 19.9878C59.8283 19.9903 59.8998 19.9742 59.9652 19.941C60.033 19.9188 60.0922 19.8805 60.1427 19.8275C60.2389 19.7227 60.3104 19.5846 60.3042 19.4379C60.2981 19.2912 60.2512 19.1469 60.1427 19.0483C60.1304 19.0372 60.1193 19.0249 60.1082 19.0113L60.1945 19.1223C60.1797 19.1025 60.1686 19.0828 60.1587 19.0606L60.2142 19.1913C60.2031 19.1642 60.1957 19.1358 60.192 19.1075L60.2118 19.253C60.2093 19.2258 60.2093 19.1999 60.2118 19.1728L60.192 19.3171C60.1957 19.2912 60.2019 19.2653 60.213 19.2406L60.1587 19.3701C60.1674 19.3504 60.1785 19.3319 60.1908 19.3146L60.1057 19.4243C60.1168 19.4108 60.1279 19.3997 60.1415 19.3886C60.1945 19.3393 60.2315 19.2813 60.2537 19.2147C60.287 19.1506 60.303 19.0803 60.3005 19.0064L60.2808 18.8621C60.2635 18.7918 60.2315 18.7302 60.1834 18.6784C60.1587 18.6377 60.1267 18.6057 60.086 18.581C60.0342 18.5329 59.9726 18.5009 59.9023 18.4836L59.758 18.4639C59.6606 18.4639 59.5694 18.4885 59.4855 18.5378C59.4559 18.5502 59.4288 18.5662 59.4042 18.5847C59.3437 18.6291 59.2784 18.6735 59.2291 18.7302C59.1798 18.7869 59.1317 18.8436 59.0959 18.909C59.0774 18.941 59.0651 18.9768 59.0503 19.0113C59.0133 19.0988 58.9924 19.1432 58.9948 19.253L59.0133 19.3935C59.0293 19.4626 59.0614 19.523 59.1083 19.5735C59.1317 19.613 59.1637 19.645 59.2032 19.6685C59.255 19.7153 59.3142 19.7474 59.3832 19.7634C59.4991 19.7819 59.6064 19.7942 59.7223 19.7844C59.8061 19.777 59.8727 19.7646 59.9491 19.724C59.9541 19.7215 59.9602 19.7178 59.9652 19.7153C59.9763 19.7092 59.9874 19.703 59.9985 19.6968C60.0231 19.682 60.0478 19.666 60.0712 19.6487C60.1328 19.6044 60.1896 19.5501 60.2068 19.4724C60.2241 19.3948 60.2229 19.3084 60.1772 19.2443L60.1797 19.2456Z" fill="#FAF5EB"/>
<path d="M62.2834 19.3921C62.2464 19.3255 62.218 19.2565 62.1995 19.1825C62.181 19.1085 62.186 19.0666 62.2094 18.9951C62.2303 18.9322 62.2501 18.8903 62.2858 18.8299C62.3216 18.7694 62.3512 18.7041 62.3857 18.6412C62.403 18.6104 62.4215 18.5808 62.4412 18.5512C62.4486 18.5401 62.4745 18.4859 62.4572 18.5265C62.4412 18.5648 62.4597 18.5241 62.4695 18.513C62.4819 18.4982 62.4942 18.4846 62.5065 18.4698C62.5608 18.3995 62.5731 18.3835 62.5435 18.423C62.5263 18.4452 62.5263 18.4464 62.5435 18.4254C62.5694 18.3971 62.5941 18.3687 62.6212 18.3416C62.6323 18.3305 62.6446 18.3194 62.6569 18.3095C62.6656 18.3009 62.7223 18.2565 62.6742 18.2935C62.6261 18.3305 62.6742 18.2935 62.6853 18.2861C62.7013 18.275 62.7174 18.2652 62.7334 18.2553C62.7654 18.2356 62.8049 18.2232 62.8357 18.2023C62.8061 18.222 62.7642 18.2306 62.8222 18.2097C62.8407 18.2035 62.8592 18.1973 62.8776 18.1924L62.4178 17.8423C62.4116 17.9434 62.4325 17.7646 62.4178 17.862C62.4104 17.9101 62.4005 17.9581 62.4017 18.0075C62.4017 18.079 62.4202 18.1678 62.4338 18.2393C62.4547 18.3515 62.5361 18.46 62.5928 18.5574C62.6767 18.7029 62.9048 18.709 62.9862 18.5574C63.0404 18.4575 63.1156 18.3502 63.1378 18.2393C63.1514 18.1702 63.1612 18.0925 63.1649 18.0223C63.1674 17.968 63.1588 17.915 63.1489 17.862C63.1341 17.7831 63.1538 17.931 63.1464 17.8423C63.1353 17.7116 63.0836 17.5969 62.9664 17.5278C62.8493 17.4588 62.7223 17.4736 62.599 17.5278C62.2353 17.6881 61.9603 18.0432 61.9011 18.4353C61.8839 18.55 61.8728 18.656 61.9011 18.7694C61.9221 18.8508 61.9517 18.931 61.9887 19.0062C62.0035 19.0382 62.022 19.0678 62.0392 19.0974C62.0614 19.1356 62.0725 19.1788 62.0886 19.2207C62.1194 19.2971 62.1588 19.3687 62.2082 19.4352C62.2414 19.4809 62.313 19.4414 62.2846 19.3909L62.2834 19.3921Z" fill="#FAF5EB"/>
<path d="M60.1607 21.16C60.8647 20.8863 61.5169 20.5448 62.1026 20.0652C62.6882 19.5856 63.1814 19.027 63.6499 18.4488C64.6548 17.2072 65.5499 15.8965 66.3082 14.4897C67.0665 13.0829 67.7125 11.5466 68.0578 9.95859C68.2267 9.18183 68.3216 8.3952 68.3438 7.60117C68.3549 7.21156 68.3611 6.81824 68.3451 6.42863C68.329 6.03901 68.329 5.62597 68.2686 5.23265C68.239 5.03415 68.2526 4.82824 68.255 4.6285C68.2575 4.40534 68.26 4.18094 68.2723 3.95777C68.297 3.5361 68.3401 3.11443 68.4104 2.69769C68.551 1.86421 68.8049 1.05785 69.234 0.32547L68.9924 0.424107C69.218 0.511647 69.2254 0.817421 69.1958 1.01839C69.1403 1.38952 68.9554 1.74461 68.8099 2.08614C68.6323 2.50658 68.4597 2.92948 68.276 3.34622C68.0923 3.76296 67.8642 4.19204 67.6879 4.6285C67.5732 4.91332 68.0368 5.10073 68.1798 4.83564C68.4351 4.36342 68.6237 3.84927 68.8308 3.35362C69.038 2.85797 69.2192 2.39808 69.3906 1.91229C69.6027 1.30937 69.9035 0.324237 69.1058 0.012298C69.0182 -0.0222249 68.9085 0.0344913 68.8641 0.110935C68.0837 1.43513 67.8926 2.94058 67.7989 4.44849C67.7878 4.62974 67.7779 4.81221 67.7705 4.99346C67.7619 5.19443 67.715 5.39171 67.699 5.59391C67.6694 5.97613 67.6423 6.36081 67.625 6.74426C67.5917 7.50007 67.5412 8.25957 67.4216 9.00675C67.1737 10.5578 66.6325 12.0497 65.9371 13.454C65.5808 14.1741 65.1837 14.8744 64.7621 15.5575C64.3404 16.2405 63.968 16.8743 63.534 17.5055C63.0729 18.1763 62.5551 18.8039 61.9978 19.3969C61.7117 19.7015 61.406 19.9863 61.1137 20.2859C60.8215 20.5855 60.4936 20.8789 60.1471 21.1342C60.1335 21.144 60.1409 21.1699 60.1594 21.1625L60.1607 21.16Z" fill="#FAF5EB"/>
<path d="M67.9932 8.10802C68.6861 6.80231 69.7588 5.68278 71.0608 4.90479C70.4369 6.1735 69.395 7.25358 68.1189 7.9539" fill="#FAF5EB"/>
<path d="M68.007 8.1216C68.2487 7.86021 68.462 7.58156 68.6901 7.30908C68.9182 7.03659 69.1833 6.75301 69.4471 6.49286C69.9748 5.97255 70.558 5.51265 71.1955 5.1366L70.8293 4.77041C70.5063 5.40785 70.087 5.98858 69.5815 6.49409C69.3337 6.74191 69.0711 6.98111 68.7789 7.17592C68.6285 7.27702 68.4743 7.36949 68.319 7.46196C68.2413 7.50758 68.1599 7.5495 68.0822 7.59512C67.9614 7.6654 67.9022 7.75171 67.8542 7.88117C67.8061 8.01063 67.9109 8.19311 68.0465 8.22023C68.1821 8.24736 68.2931 8.23873 68.4164 8.16722C68.5015 8.1179 68.5841 8.06118 68.6667 8.0057C68.8245 7.89843 68.9761 7.7813 69.1253 7.6617C69.4249 7.42004 69.7184 7.17222 69.9859 6.89603C70.5149 6.35107 70.9612 5.72349 71.2929 5.0392C71.4038 4.8111 71.1696 4.52382 70.9267 4.67301C70.2584 5.08235 69.6395 5.57553 69.1167 6.15996C68.6211 6.71479 68.1513 7.37072 67.9762 8.10187C67.9725 8.11913 67.9947 8.13516 68.0083 8.12036L68.007 8.1216Z" fill="#FAF5EB"/>
<path d="M67.4632 9.22128C66.8615 8.36684 66.3363 7.46431 65.8973 6.52603C65.7001 6.10436 65.5163 5.6383 65.6384 5.1932C65.6557 5.13155 65.684 5.06497 65.7457 5.03908C65.7876 5.02182 65.8369 5.02798 65.8813 5.03908C66.2253 5.12662 66.4164 5.46815 66.5545 5.77885C67.0119 6.80961 67.3337 7.89338 67.5125 8.99811" fill="#FAF5EB"/>
<path d="M67.5214 9.22161C67.535 9.08352 67.4536 8.95652 67.3895 8.83693C67.3056 8.67787 67.2107 8.52499 67.1232 8.36717C66.9678 8.08482 66.8211 7.79877 66.6744 7.51149C66.519 7.20942 66.3686 6.90241 66.2268 6.59417C66.0961 6.31059 65.958 6.02208 65.9001 5.7126C65.8865 5.63863 65.8803 5.56465 65.8816 5.48821C65.8816 5.43149 65.9112 5.34765 65.905 5.2934L65.9112 5.26627C65.9062 5.22312 65.8705 5.23791 65.8051 5.31189C65.8088 5.32176 65.8495 5.32052 65.8582 5.32792C65.905 5.36738 65.9506 5.39327 65.9913 5.44382C66.143 5.63123 66.2132 5.87042 66.2959 6.08373C66.535 6.7039 66.7249 7.34628 66.8889 7.98988C66.9284 8.14647 66.9653 8.30429 66.9986 8.46211C67.0369 8.64212 67.0455 8.86898 67.1392 9.02927C67.2206 9.16736 67.4154 9.29682 67.5806 9.2512C67.7791 9.19695 67.8876 8.96269 67.8777 8.77281C67.8617 8.43375 67.747 8.07372 67.6632 7.74699C67.5794 7.42025 67.4832 7.10585 67.3661 6.79268C67.2489 6.47951 67.1096 6.14661 66.9653 5.8322C66.8445 5.56835 66.7188 5.31313 66.5153 5.09982C66.3304 4.90625 66.0271 4.71514 65.7496 4.74843C65.3859 4.79158 65.3095 5.21326 65.3169 5.5141C65.3255 5.90001 65.4698 6.26744 65.635 6.61143C65.7891 6.93324 65.958 7.25134 66.1393 7.55958C66.3316 7.88631 66.5375 8.20318 66.7582 8.51266C66.8692 8.66801 66.9801 8.82213 67.0973 8.97255C67.191 9.09092 67.2946 9.23641 67.4462 9.27463C67.4844 9.28449 67.5152 9.25613 67.5189 9.21914L67.5214 9.22161Z" fill="#FAF5EB"/>
<path d="M67.1938 11.7369C67.8609 10.7321 68.7116 9.83818 69.6955 9.10704C70.2405 8.70263 70.9001 8.33027 71.5832 8.44124C71.6818 8.45727 71.794 8.49795 71.8175 8.59043C71.8384 8.67304 71.7743 8.75194 71.7151 8.81483C70.5549 10.0293 69.0495 10.9417 67.3998 11.4299" fill="#FAF5EB"/>
<path d="M67.1978 11.7529C67.3457 11.6974 67.4493 11.6394 67.5763 11.5433C67.7304 11.4261 67.8611 11.2831 67.9943 11.1438C68.2372 10.8886 68.4689 10.6272 68.7266 10.3843C69.2432 9.89727 69.8153 9.40655 70.4417 9.06625C70.729 8.90967 71.0446 8.79377 71.375 8.80487C71.4022 8.80487 71.5304 8.83692 71.5575 8.82952C71.4601 8.85788 71.5329 8.52252 71.4638 8.51512C71.4798 8.51635 71.4207 8.56197 71.4071 8.57677C71.2838 8.70253 71.1556 8.82459 71.0249 8.94419C70.5231 9.39915 69.9707 9.79493 69.3838 10.1365C69.0447 10.3337 68.6933 10.5125 68.3333 10.6679C67.9733 10.8232 67.5578 10.9145 67.2089 11.0994C66.8858 11.2708 67.019 11.8503 67.4024 11.8145C67.8389 11.7738 68.2717 11.5704 68.6724 11.399C69.0336 11.2449 69.3863 11.071 69.7278 10.8762C70.4331 10.4731 71.089 9.97988 71.6734 9.41395C71.8029 9.28942 71.936 9.16242 72.0495 9.02187C72.2332 8.795 72.2739 8.4843 72.0606 8.25866C71.7634 7.94549 71.1593 8.01824 70.7882 8.11687C69.9769 8.33264 69.2617 8.92939 68.6687 9.50025C68.3383 9.81836 68.0275 10.1574 67.7403 10.5162C67.5935 10.6999 67.453 10.8886 67.3383 11.0945C67.2237 11.3004 67.1719 11.5063 67.1793 11.7381C67.1793 11.7479 67.1891 11.7566 67.199 11.7529H67.1978Z" fill="#FAF5EB"/>
<path d="M66.1759 12.8907L66.1636 13.0806C65.536 11.7551 64.9084 10.4285 64.3807 9.06482C64.2291 8.6715 64.0824 8.25846 64.1341 7.84295C64.1563 7.66417 64.3203 7.44347 64.4843 7.53348C64.5583 7.57417 64.5866 7.66171 64.6064 7.74062C65.065 9.48526 65.2771 11.3039 66.0317 12.9523" fill="#FAF5EB"/>
<path d="M66.3523 13.2692L66.3659 13.2544C66.4448 13.1743 66.4818 13.0522 66.4485 12.9413C66.3301 12.5541 66.1563 12.1793 65.9911 11.8094C65.8369 11.4654 65.6853 11.1202 65.5361 10.7737C65.3869 10.4273 65.2636 10.0672 65.1206 9.71584C64.9776 9.36445 64.8296 9.00689 64.7088 8.6444C64.6817 8.56179 64.6558 8.47918 64.6348 8.39534C64.6188 8.33246 64.5941 8.21656 64.5904 8.18081C64.5818 8.09696 64.5793 8.01066 64.5855 7.92682V7.89846C64.5806 7.93791 64.583 7.93421 64.5941 7.88613C64.5769 7.92435 64.5756 7.92928 64.5904 7.90092C64.6077 7.87257 64.604 7.87626 64.5793 7.91202L64.5448 7.93668C64.4277 7.99833 64.329 7.98846 64.2477 7.90832L64.1687 7.8553C64.149 7.81092 64.1466 7.81338 64.1638 7.86393C64.1761 7.94654 64.207 8.02915 64.2267 8.10929C64.2723 8.29177 64.3155 8.47425 64.3586 8.65796C64.5251 9.38171 64.6693 10.1116 64.8493 10.8329C64.9467 11.2238 65.054 11.6134 65.1798 11.9968C65.3154 12.4111 65.4634 12.8907 65.8037 13.1829C66.0108 13.3617 66.3535 13.2483 66.356 12.9548C66.3597 12.5332 66.1698 12.1263 66.0416 11.7305C65.9134 11.3347 65.8074 10.9389 65.7112 10.5382C65.5164 9.7331 65.3623 8.91935 65.1711 8.11299C65.0688 7.68146 64.9813 7.06868 64.4141 7.05635C63.8815 7.04402 63.6472 7.62474 63.6645 8.07107C63.6817 8.5174 63.8432 8.93908 64.0097 9.35212C64.1761 9.76516 64.3352 10.1807 64.5374 10.574C64.7581 11.0043 64.9566 11.4457 65.1674 11.8822C65.3783 12.3186 65.5879 12.7822 65.8604 13.1916C65.9208 13.2816 66.0231 13.3592 66.1378 13.3506C66.2192 13.3444 66.2919 13.3321 66.3511 13.2705L66.3523 13.2692Z" fill="#FAF5EB"/>
<path d="M66.1157 14.3321C66.6126 14.2285 67.1058 14.0941 67.5558 13.8722C68.3449 13.4838 68.9663 12.8488 69.7036 12.3778C70.441 11.9068 71.415 11.606 72.2152 11.9796C71.8108 12.1892 71.4544 12.4826 71.1783 12.8328C71.0562 12.9881 70.9465 13.157 70.7849 13.2742C70.6432 13.3777 70.4705 13.4357 70.3016 13.4887C69.0699 13.8771 67.7962 14.1459 66.5078 14.2914" fill="#FAF5EB"/>
<path d="M66.1289 14.3811C66.2806 14.3601 66.4347 14.3688 66.5851 14.3416C66.7355 14.3145 66.8798 14.2825 67.0228 14.2368C67.2965 14.1493 67.5641 14.0396 67.8168 13.9027C68.2989 13.6425 68.7317 13.2973 69.1842 12.9915C69.9622 12.4651 71.0805 11.8153 72.0323 12.29V11.6698C71.6637 11.8461 71.3209 12.1235 71.0497 12.4268C70.9276 12.5625 70.8277 12.7154 70.7081 12.8522C70.5737 13.0063 70.4209 13.0742 70.2285 13.1358C69.3469 13.4194 68.4247 13.613 67.5111 13.7683C67.2978 13.8041 67.0845 13.8386 66.8699 13.8669C66.6554 13.8953 66.3607 13.9816 66.3139 14.2405C66.2719 14.4699 66.5444 14.6178 66.738 14.6314C66.9957 14.6499 67.283 14.5734 67.5394 14.5327C67.9858 14.4625 68.4284 14.3762 68.8686 14.2763C69.3087 14.1764 69.776 14.0248 70.2248 13.8891C70.4603 13.8176 70.7106 13.7498 70.919 13.6167C71.1273 13.4835 71.2716 13.2899 71.4245 13.0951C71.6945 12.7523 72.0188 12.5095 72.3924 12.2925C72.6833 12.1235 72.5798 11.745 72.306 11.6353C71.4713 11.2999 70.4887 11.565 69.7612 12.0397C69.0338 12.5144 68.4222 13.2172 67.6393 13.6598C67.4013 13.7954 67.151 13.9002 66.8921 13.9902C66.759 14.0371 66.6246 14.0815 66.4926 14.1296C66.3607 14.1777 66.2349 14.2442 66.0969 14.2837C66.0315 14.3022 66.0611 14.3897 66.124 14.3811H66.1289Z" fill="#FAF5EB"/>
<path d="M64.8392 15.1666C64.2276 14.6648 63.6112 14.158 63.1241 13.5452C62.9207 13.2888 62.7419 13.0163 62.5631 12.745C62.1316 12.0879 61.6939 11.4196 61.4769 10.6724C61.345 10.2199 61.3253 9.6688 61.6865 9.35069C61.7198 9.3211 61.7617 9.29275 61.8073 9.30138C61.8505 9.30878 61.8789 9.34823 61.9023 9.38399C62.2981 9.98937 62.6951 10.596 63.0909 11.2014C63.4016 11.6761 63.7135 12.1544 63.9071 12.6822C64.0427 13.0545 64.1179 13.4454 64.2535 13.8177C64.4779 14.4317 64.8737 14.989 65.3879 15.4181" fill="#FAF5EB"/>
<path d="M64.8553 15.1517C64.1563 14.5241 63.4584 13.8792 62.927 13.0988C62.3956 12.3183 61.842 11.5218 61.6028 10.6168C61.5152 10.2839 61.4721 9.86348 61.694 9.57127C61.7261 9.52935 61.7643 9.49606 61.8025 9.46031C61.7581 9.50223 61.7643 9.43318 61.7655 9.49853C61.7655 9.51702 61.8025 9.56018 61.8124 9.5762C61.879 9.6884 61.9456 9.8006 62.0134 9.9128C62.1416 10.1286 62.2698 10.3443 62.3993 10.5601C62.8912 11.3874 63.4855 12.1691 63.7383 13.1111C63.8739 13.6178 64.0021 14.1086 64.2734 14.5648C64.4041 14.783 64.5878 14.9581 64.7604 15.1443C64.933 15.3304 65.1007 15.5117 65.3535 15.5548C65.4496 15.5721 65.5643 15.4932 65.5248 15.3834C65.4435 15.1529 65.2733 15.0049 65.1229 14.8175C64.9823 14.6424 64.8948 14.4328 64.7838 14.238C64.5422 13.8102 64.4275 13.3392 64.2783 12.8756C63.9491 11.8535 63.255 10.9731 62.6372 10.1088C62.4782 9.88691 62.3204 9.66621 62.1613 9.44428C62.038 9.27166 61.8864 9.03987 61.6459 9.18782C61.313 9.39249 61.2243 9.86595 61.2539 10.2223C61.2908 10.6686 61.4696 11.0964 61.6706 11.491C61.8987 11.9398 62.1773 12.3602 62.456 12.7782C62.7729 13.2529 63.0971 13.73 63.5126 14.1246C63.9282 14.5191 64.3794 14.8496 64.8294 15.1874C64.8492 15.2022 64.8751 15.1689 64.8566 15.1529L64.8553 15.1517Z" fill="#FAF5EB"/>
<path d="M63.7262 17.64C62.4711 17.0654 61.6437 15.8966 60.9866 14.7277C60.7622 14.3283 60.5452 13.8696 60.6919 13.4405C60.7092 13.3875 60.7338 13.3357 60.777 13.2987C60.9188 13.1742 61.1481 13.2864 61.285 13.4159C62.1431 14.2259 62.1382 15.5575 62.8175 16.5081C63.0518 16.8349 63.3711 17.1234 63.4833 17.5044" fill="#FAF5EB"/>
<path d="M63.7815 17.5846C63.5151 17.3602 63.2229 17.1691 62.9603 16.9397C62.6977 16.7104 62.4721 16.4724 62.2538 16.2172C61.8075 15.6944 61.4351 15.1001 61.1146 14.4935C61.0246 14.3221 60.9432 14.1458 60.8988 13.9572C60.8791 13.8734 60.8692 13.7883 60.8741 13.702C60.8766 13.6637 60.8865 13.4961 60.9284 13.4739C60.9987 13.4369 61.1651 13.6428 61.2046 13.6884C61.3057 13.8055 61.3895 13.9362 61.4635 14.0706C61.768 14.6255 61.9037 15.253 62.1355 15.8375C62.2785 16.1987 62.4523 16.5316 62.6915 16.8386C62.8 16.9779 62.9196 17.1099 63.022 17.2554C63.1342 17.4156 63.2476 17.587 63.4473 17.6388C63.493 17.6499 63.5521 17.64 63.583 17.6031C63.8826 17.2443 63.4362 16.7955 63.2131 16.5242C62.9899 16.253 62.821 15.9608 62.6903 15.639C62.4178 14.9719 62.2637 14.2445 61.8297 13.6551C61.6139 13.3629 61.2934 12.9844 60.8889 13.0177C60.4155 13.0559 60.3797 13.6699 60.4512 14.0262C60.5351 14.4393 60.7755 14.819 60.9888 15.1754C61.1885 15.5095 61.4019 15.8338 61.6386 16.1432C61.9049 16.4922 62.1922 16.8214 62.5349 17.0988C62.8777 17.3762 63.2575 17.6425 63.7075 17.719C63.7765 17.7313 63.8517 17.6425 63.7852 17.587L63.7815 17.5846Z" fill="#FAF5EB"/>
<path d="M64.1021 17.5325C65.2081 17.1083 66.3128 16.6842 67.4188 16.2601C67.7135 16.1466 68.0094 16.0332 68.3201 15.9753C68.6974 15.9037 69.087 15.9161 69.4717 15.9284C69.7787 15.9383 70.0869 15.9481 70.3939 15.9568C70.1819 16.3501 69.6924 16.5128 69.2473 16.6411C68.8527 16.7545 68.4594 16.8692 68.0649 16.9826C67.5914 17.1194 67.1179 17.2563 66.6334 17.35C65.7518 17.5214 64.8394 17.5473 63.9468 17.4277" fill="#FAF5EB"/>
<path d="M64.112 17.5697C65.1749 17.2836 66.1994 16.8829 67.2364 16.5179C67.7234 16.3466 68.1981 16.1468 68.7196 16.116C68.9699 16.1012 69.2202 16.1098 69.4705 16.1185C69.6135 16.1234 69.7578 16.1283 69.9008 16.1333C70.0438 16.1382 70.1979 16.1271 70.3397 16.1518L70.251 15.8139C69.9353 16.1222 69.5062 16.2122 69.0895 16.2997C68.5149 16.4193 67.9552 16.6018 67.388 16.7485C66.8554 16.8866 66.3141 17.005 65.7642 17.053C65.472 17.0789 65.1786 17.0888 64.8839 17.0839C64.747 17.0814 64.6102 17.0752 64.4733 17.0666C64.3019 17.0555 64.1305 17.0235 63.9629 17.0777C63.6534 17.1763 63.5843 17.6005 63.8716 17.7731C64.0368 17.8717 64.2267 17.8804 64.4141 17.8952C64.5707 17.9075 64.7273 17.9149 64.8839 17.9186C65.197 17.926 65.5102 17.9149 65.8222 17.8878C66.4608 17.8298 67.0773 17.6979 67.6913 17.5179C68.3053 17.3379 68.8922 17.1751 69.473 16.9495C69.9279 16.7719 70.4606 16.529 70.5888 16.0124C70.6171 15.8978 70.5296 15.7412 70.394 15.756C70.1153 15.788 69.8133 15.7486 69.5334 15.7399C69.2535 15.7313 68.9909 15.7227 68.7208 15.7399C68.1833 15.7745 67.6938 15.9508 67.2006 16.1555C66.1551 16.5895 65.0935 16.9877 64.0837 17.5006C64.0442 17.5203 64.0726 17.5808 64.1133 17.5697H64.112Z" fill="#FAF5EB"/>
<path d="M2.82748 24.4596C3.31203 24.6963 3.80522 24.9145 4.28607 25.1586C4.54376 25.2893 4.80638 25.3954 5.07517 25.5014C5.32916 25.6025 5.59301 25.7221 5.85563 25.7899C6.91474 26.0636 8.00345 26.2017 9.09462 26.0723C10.1858 25.9428 11.182 25.6518 12.2066 25.3374C12.6998 25.1858 13.1954 25.039 13.6985 24.9219C13.9537 24.8627 14.2102 24.811 14.4691 24.7703C14.4962 24.7653 14.6269 24.7468 14.5369 24.7592C14.5998 24.7505 14.6627 24.7431 14.7255 24.737C14.8661 24.7222 15.0067 24.7111 15.1485 24.7037C16.2976 24.6457 17.4393 24.8393 18.5835 24.9121C19.7277 24.9848 20.8928 24.8516 22.0432 24.6778C22.614 24.5915 23.1245 24.5089 23.6288 24.4522C24.2095 24.3868 24.7927 24.3461 25.3759 24.3276C26.525 24.2919 27.6753 24.3387 28.8208 24.4337C29.9662 24.5286 31.1375 24.6729 32.2915 24.827C32.3581 24.8356 32.3063 24.8294 32.2928 24.827C32.3335 24.8319 32.3729 24.8381 32.4136 24.843C32.474 24.8516 32.5344 24.859 32.5936 24.8677C32.744 24.8886 32.8945 24.9084 33.0449 24.9293C33.3371 24.97 33.6305 25.0095 33.9227 25.0501C34.4998 25.1291 35.0768 25.2092 35.6538 25.2881C37.9718 25.6062 40.2898 25.9255 42.6065 26.2437C44.9232 26.5618 47.2769 26.9279 49.6319 26.9156C51.7107 26.9058 53.7919 26.5741 55.6931 25.7073C56.5685 25.3078 57.386 24.7826 58.1023 24.1378C58.7422 23.562 59.2613 22.874 59.7989 22.2069C60.059 21.8839 60.3229 21.5646 60.6102 21.2637C60.752 21.1145 60.8999 20.9715 61.0553 20.8347C61.0923 20.8026 61.1293 20.7705 61.1675 20.7385C61.1847 20.7249 61.2932 20.6374 61.2464 20.6731C61.1995 20.7089 61.3142 20.6226 61.3278 20.6127C61.3734 20.5807 61.419 20.5486 61.4646 20.5178C61.6274 20.4093 61.7975 20.3119 61.9738 20.228C61.9985 20.2157 62.1169 20.1664 62.0675 20.1861C62.0182 20.2058 62.1391 20.159 62.1649 20.1504C62.2673 20.1134 62.3708 20.0813 62.4757 20.0542C62.8739 19.9506 63.2721 19.868 63.6457 19.6868C63.8516 19.5869 64.0144 19.4328 64.1389 19.2417C64.1919 19.1603 64.2326 19.0641 64.2597 18.9716C64.2782 18.9075 64.2869 18.8397 64.2943 18.7744C64.2967 18.7522 64.3004 18.7312 64.3004 18.709L64.293 18.6511C64.2795 18.5783 64.2819 18.5746 64.2992 18.6387C64.3214 18.4107 64.0884 18.2134 63.8738 18.2134C63.6248 18.2134 63.4719 18.4094 63.4485 18.6387L63.4448 18.6745L63.5027 18.46C63.4817 18.5044 63.4645 18.5475 63.4448 18.5931C63.4485 18.5845 63.4854 18.5315 63.4571 18.5648C63.4263 18.6005 63.3868 18.6535 63.4497 18.5907C63.4275 18.6129 63.4016 18.6351 63.3819 18.6585C63.4411 18.5894 63.4361 18.6215 63.4016 18.6412C63.3819 18.6523 63.3634 18.6646 63.3437 18.6757C63.2709 18.7164 63.1982 18.7583 63.123 18.7953C63.1057 18.804 63.0884 18.8101 63.0712 18.8188C63.0071 18.8521 63.1575 18.7916 63.0872 18.8114C63.0367 18.8249 62.9873 18.8484 62.938 18.8644C62.5718 18.9827 62.1884 19.0395 61.8283 19.1776C61.0183 19.487 60.3426 20.0258 59.7594 20.6596C59.1935 21.2736 58.7077 21.9554 58.1628 22.5879C57.8829 22.9134 57.5857 23.2229 57.2602 23.504C57.1739 23.5792 57.0851 23.6507 56.9964 23.7222C56.9236 23.7802 57.021 23.705 56.9458 23.7605C56.894 23.7999 56.841 23.8381 56.788 23.8764C56.5957 24.0145 56.3972 24.1452 56.1937 24.2672C55.9903 24.3893 55.7942 24.4978 55.5896 24.6013C55.4934 24.6494 55.3972 24.6975 55.2998 24.7431C55.2468 24.7678 55.195 24.7912 55.142 24.8159C55.1112 24.8294 55.0816 24.843 55.0508 24.8566C55.0421 24.8603 54.9521 24.8985 54.999 24.8788C55.0532 24.8553 54.9583 24.896 54.946 24.8997C54.9225 24.9096 54.9003 24.9182 54.8769 24.9281C54.8227 24.9503 54.7684 24.9712 54.7142 24.9922C54.597 25.0366 54.4799 25.0797 54.3615 25.1204C54.1396 25.1969 53.9152 25.2671 53.6896 25.3313C53.2358 25.4595 52.7747 25.5618 52.3087 25.6407C52.1928 25.6605 52.0756 25.679 51.9585 25.6962C51.9338 25.6999 51.9079 25.7036 51.8833 25.7073C51.797 25.7196 51.961 25.6974 51.8747 25.7085C51.8081 25.7172 51.7415 25.7258 51.6737 25.7332C51.4172 25.7628 51.1608 25.785 50.9043 25.8023C49.7626 25.8775 48.6159 25.8405 47.4767 25.7455C46.8997 25.6974 46.3239 25.6346 45.7493 25.5631C45.1747 25.4915 44.7333 25.4311 44.144 25.3473C41.8581 25.0267 39.5722 24.7111 37.2863 24.3942C35.0004 24.0773 32.6553 23.7185 30.3324 23.4584C28.0699 23.2056 25.7766 23.0737 23.5092 23.3474C22.9297 23.4177 22.3526 23.5089 21.7756 23.5965C21.6388 23.6174 21.5019 23.6384 21.365 23.6581C21.296 23.668 21.2282 23.6779 21.1591 23.6877C21.0901 23.6976 21.1468 23.689 21.1591 23.6877C21.1098 23.6939 21.0617 23.7001 21.0124 23.7062C20.7387 23.7407 20.4637 23.7703 20.1876 23.7913C19.0569 23.8776 17.9423 23.7395 16.8179 23.6433C16.252 23.5953 15.6836 23.5632 15.1164 23.5953C14.5492 23.6273 14.0376 23.7099 13.5099 23.8283C12.5112 24.0527 11.5371 24.3856 10.5594 24.6852C10.0687 24.8356 9.57177 24.9688 9.06503 25.0563C9.00338 25.0674 8.9405 25.0773 8.87885 25.0859C8.88008 25.0859 8.79254 25.0982 8.83816 25.0921C8.88995 25.0847 8.78021 25.0995 8.77035 25.1007C8.64459 25.1155 8.51759 25.1278 8.39183 25.1352C8.11811 25.1537 7.84193 25.1549 7.56821 25.1414C7.04174 25.1167 6.58061 25.0366 6.06153 24.9268C5.80631 24.8726 5.53506 24.8368 5.27244 24.7777C5.00982 24.7185 4.73364 24.6482 4.46115 24.589C3.95071 24.4781 3.45259 24.3054 2.95324 24.1526C2.77816 24.0983 2.6561 24.3708 2.82625 24.4534L2.82748 24.4596Z" fill="#FAF5EB"/>
<path d="M6.67555 24.0242C7.18353 23.9576 7.69645 23.9256 8.20443 23.8528C8.71241 23.7801 9.19449 23.7357 9.69014 23.6913C10.6975 23.6013 11.7085 23.5545 12.7183 23.5113C14.8168 23.4213 16.9141 23.3116 19.0113 23.1969C20.0556 23.1402 21.1 23.0835 22.1443 23.0268C23.1886 22.97 24.2181 22.8948 25.1761 23.0391C26.1341 23.1833 27.086 23.5421 28.0378 23.8035C28.9897 24.0649 29.9945 24.2486 30.9895 24.3781C32.9351 24.6321 34.9005 24.6617 36.8597 24.6728C38.8299 24.6839 40.8039 24.6728 42.768 24.8429C43.7531 24.928 44.6224 25.0599 45.6063 25.2461C46.5902 25.4323 47.6555 25.6098 48.7022 25.5395C49.749 25.4693 50.7527 25.2818 51.7514 25.0624C52.6613 24.8626 53.5293 24.5075 54.1852 23.8245C54.7807 23.2043 55.1556 22.4152 55.2628 21.5632C55.3208 21.1046 55.2604 20.6545 55.1741 20.2033C55.1531 20.0911 55.1297 19.9801 55.1087 19.8679C55.0988 19.8124 55.089 19.7557 55.0791 19.7002C55.0791 19.7052 55.0656 19.6139 55.0717 19.6546C55.0754 19.6793 55.0643 19.593 55.0631 19.5819C55.0508 19.4623 55.0446 19.3414 55.0483 19.2218C55.0532 19.0825 55.0532 19.0739 55.0878 18.9518C55.0927 18.9333 55.1334 18.831 55.105 18.8914C55.0767 18.9518 55.1284 18.852 55.1371 18.8359C55.1556 18.8039 55.179 18.7743 55.1975 18.7422C55.2246 18.6954 55.1815 18.7644 55.1778 18.7681C55.195 18.7509 55.211 18.7299 55.2283 18.7114C55.2591 18.6793 55.2912 18.6498 55.3245 18.6202C55.338 18.6078 55.3541 18.5955 55.3676 18.5832C55.3615 18.5881 55.2974 18.6263 55.343 18.6041C55.4145 18.5696 55.4823 18.5203 55.555 18.4845C55.4798 18.5215 55.5242 18.4981 55.5735 18.4833C55.6081 18.4722 55.6426 18.466 55.6771 18.4574C55.7609 18.4364 55.5797 18.4549 55.7005 18.4574C55.7166 18.4574 55.7351 18.4574 55.7511 18.4574C55.8362 18.4525 55.7166 18.4586 55.719 18.45C55.719 18.4463 55.8078 18.4722 55.8152 18.4734C55.9027 18.4956 55.7375 18.4352 55.8177 18.4771C55.8929 18.5166 55.7671 18.418 55.8275 18.4808C55.8399 18.4932 55.8534 18.5067 55.8657 18.5191C55.9077 18.5597 55.8337 18.4636 55.8694 18.524C55.8805 18.5437 55.8916 18.5634 55.9027 18.5819C55.8966 18.5708 55.8842 18.5117 55.8941 18.5634C55.9015 18.6041 55.9151 18.7151 55.9138 18.6226C55.9138 18.667 55.9175 18.7114 55.9163 18.757C55.9163 18.7792 55.9114 18.8026 55.9114 18.8261C55.9101 18.9013 55.9286 18.757 55.9114 18.8322C55.8633 19.0381 55.8103 19.2403 55.7511 19.445C55.6216 19.8864 55.5649 20.3451 55.6229 20.8037C55.6845 21.2871 55.8349 21.7457 56.0889 22.1637C56.1974 22.3425 56.4477 22.4695 56.6573 22.3955C57.4871 22.1008 58.2429 21.6557 58.9913 21.1995C59.3464 20.9837 59.7003 20.7667 60.0664 20.5682C60.2489 20.4696 60.4351 20.3747 60.6237 20.2884C60.6657 20.2686 60.7076 20.2501 60.7495 20.2316C60.8383 20.1922 60.7766 20.2205 60.7569 20.2279C60.7779 20.2193 60.7988 20.2107 60.8198 20.2021C60.9184 20.1626 61.0171 20.1256 61.1182 20.0911C61.3327 20.0183 61.5509 19.9592 61.7741 19.9172C61.8259 19.9074 61.8789 19.9 61.9307 19.8901C61.8382 19.9061 61.9159 19.8913 61.9344 19.8901C61.9652 19.8864 61.9948 19.8839 62.0256 19.8802C62.1489 19.8692 62.2722 19.8642 62.3967 19.8642L62.0453 19.0147C61.8616 19.249 61.6644 19.4721 61.4511 19.6817C61.3438 19.7865 61.2341 19.8876 61.1206 19.9863C61.0639 20.0356 61.006 20.0837 60.948 20.1305C60.9418 20.1355 60.8703 20.1922 60.8999 20.1688C60.932 20.1441 60.8284 20.223 60.8309 20.2205C60.5954 20.3956 60.3488 20.5559 60.0936 20.7002C59.9616 20.7741 59.8273 20.8457 59.6953 20.9196C59.63 20.9566 59.5634 20.9936 59.4956 21.0281C59.466 21.0442 59.4364 21.059 59.4056 21.0738C59.4093 21.0713 59.2835 21.1366 59.3328 21.1169C59.106 21.2069 58.9457 21.4202 59.016 21.6742C59.0751 21.89 59.3452 22.0823 59.5733 21.9911C59.8951 21.8628 60.2218 21.7654 60.5276 21.5965C60.8062 21.4424 61.075 21.2698 61.3315 21.0799C61.8604 20.6866 62.34 20.239 62.7469 19.7187C62.8739 19.556 62.9355 19.3784 62.8492 19.175C62.7728 18.995 62.594 18.868 62.3943 18.8692C60.5905 18.8778 59.1368 20.0048 57.6301 20.8444C57.4242 20.9591 57.2158 21.0688 57.0025 21.1712C56.9458 21.1983 56.8891 21.2242 56.8324 21.2501C56.8077 21.2612 56.6536 21.3265 56.7375 21.292C56.6216 21.3388 56.5057 21.3832 56.3885 21.4239L56.9569 21.6557C56.9039 21.5669 56.8558 21.4757 56.8102 21.3832C56.8053 21.3746 56.772 21.2957 56.7991 21.3623C56.7892 21.3388 56.7806 21.3142 56.7707 21.2908C56.7498 21.234 56.7301 21.1773 56.7128 21.1206C56.6832 21.022 56.6585 20.9221 56.64 20.8222C56.6363 20.7988 56.6191 20.6755 56.6277 20.7544C56.6203 20.6866 56.6142 20.6188 56.6117 20.551C56.608 20.4486 56.608 20.3463 56.6142 20.2452C56.6179 20.1947 56.6216 20.1429 56.6277 20.0923C56.6265 20.1034 56.6179 20.1601 56.6277 20.0997C56.6351 20.0578 56.6425 20.0159 56.6511 19.974C56.6943 19.7742 56.7596 19.5806 56.8114 19.3834C56.931 18.9284 56.9914 18.3945 56.7017 17.9877C56.4317 17.6079 56.0088 17.4242 55.5464 17.4858C55.1593 17.5376 54.7931 17.7312 54.5255 18.0148C54.1951 18.3637 54.057 18.8039 54.0533 19.2798C54.0484 19.7976 54.2025 20.2982 54.2715 20.8074C54.2641 20.7569 54.2789 20.8826 54.2802 20.8999C54.2839 20.9443 54.2876 20.9887 54.2888 21.0331C54.2937 21.1366 54.2925 21.2414 54.2863 21.345C54.2839 21.3894 54.2789 21.4338 54.2752 21.4782C54.2666 21.5768 54.2863 21.4251 54.2691 21.5226C54.2506 21.6249 54.2308 21.7272 54.2037 21.8271C54.1815 21.9134 54.1544 21.9985 54.1248 22.0835C54.11 22.1255 54.094 22.1674 54.078 22.2093C54.0755 22.2142 54.0459 22.2821 54.0681 22.2327C54.0903 22.1834 54.0521 22.2673 54.0471 22.2759C53.9645 22.4534 53.8671 22.6224 53.7549 22.7839C53.729 22.8209 53.7031 22.8578 53.676 22.8936C53.6415 22.9392 53.6797 22.8887 53.6846 22.8825C53.6649 22.9059 53.6464 22.9294 53.6267 22.9528C53.5626 23.028 53.496 23.1007 53.427 23.1698C53.3628 23.2339 53.295 23.2955 53.226 23.3547C53.2075 23.3708 53.0978 23.4558 53.1668 23.4053C53.1236 23.4373 53.0805 23.4682 53.0361 23.499C52.6502 23.7616 52.3124 23.8861 51.8648 24.0057C51.4172 24.1253 50.9154 24.2104 50.4383 24.2967C49.9278 24.3892 49.4531 24.4693 48.9698 24.5149C48.4544 24.563 47.939 24.5704 47.4237 24.5248C46.9576 24.4829 46.51 24.4015 46.0169 24.3103C45.5237 24.219 45.0243 24.1229 44.525 24.0501C42.5313 23.7591 40.5179 23.7024 38.5069 23.6901C36.5305 23.6778 34.5516 23.7012 32.5788 23.5557C32.0856 23.5187 31.5937 23.4719 31.103 23.4102C30.8971 23.3843 30.6887 23.3547 30.4446 23.3165C30.2004 23.2783 29.9575 23.2351 29.7159 23.1883C28.7418 22.9996 27.8036 22.7074 26.853 22.4288C25.8345 22.1304 24.8099 21.9775 23.7471 21.9886C22.6843 21.9997 21.6548 22.0835 20.6105 22.1415C18.491 22.2599 16.3716 22.3696 14.2533 22.5077C12.1857 22.6433 10.102 22.7296 8.05647 23.0884C7.56205 23.1747 7.07997 23.3325 6.60651 23.4953C6.48075 23.5384 6.39321 23.6543 6.41293 23.7912C6.43019 23.9096 6.54363 24.0427 6.67802 24.0255L6.67555 24.0242Z" fill="#FAF5EB"/>
<path d="M8.93068 24.1193C8.943 24.1452 8.95657 24.171 8.97013 24.1969L8.92204 24.0169L8.90232 24.1772L8.93684 24.4361C8.96643 24.5631 9.02561 24.6729 9.11069 24.7678C9.22782 24.9195 9.41893 25.0871 9.6162 25.1167C10.2006 25.2043 10.769 25.2314 11.3571 25.1747C11.695 25.1426 12.0279 25.0945 12.3608 25.0255C12.6333 24.9688 12.907 24.9158 13.1819 24.8775L12.8786 24.9182C13.6443 24.8183 14.4161 24.8257 15.1855 24.843C15.9549 24.8603 16.7489 24.8714 17.5306 24.864C19.1149 24.8504 20.698 24.7851 22.2787 24.6692C22.5438 24.6494 22.8064 24.6198 23.0703 24.5804C23.2047 24.5607 23.3169 24.5409 23.4439 24.4879C23.8458 24.3178 24.1824 23.9183 24.1627 23.4584C24.1355 22.821 23.6399 22.3771 23.0123 22.3426C22.8101 22.3315 22.603 22.3475 22.4008 22.3623C21.6055 22.4202 20.8102 22.4646 20.0138 22.4967C18.4442 22.5596 16.8746 22.562 15.3038 22.5411C14.3668 22.5275 13.4445 22.546 12.5161 22.6878C12.1203 22.7482 11.7085 22.821 11.3276 22.9418C10.9466 23.0626 10.5693 23.1686 10.1784 23.2266L10.446 23.1908C10.2524 23.2167 10.0687 23.2229 9.87389 23.2032C9.57428 23.1736 9.15261 23.4029 9.03301 23.6853L8.9689 23.8369L9.18097 23.6729C9.15507 23.6803 9.12918 23.6877 9.10206 23.6939C8.90971 23.7407 8.85053 23.9565 8.92944 24.118L8.93068 24.1193Z" fill="#FAF5EB"/>
<path d="M23.6459 23.298C23.6657 23.3522 23.6817 23.4089 23.7113 23.4595C23.768 23.5544 23.9049 23.6678 23.9961 23.7246C24.0873 23.7813 24.2131 23.8244 24.3167 23.8552C24.4289 23.8898 24.567 23.8885 24.6853 23.9033L24.5139 23.8799C24.6311 23.8959 24.7482 23.9157 24.8653 23.9379C24.9208 23.949 24.9775 23.96 25.033 23.9724C25.0614 23.9785 25.0885 23.9859 25.1169 23.9921C25.271 24.0254 25.3561 24.0131 25.5102 23.9921L25.6668 23.9255L25.7999 23.8232C25.9023 23.7209 25.9614 23.5889 25.9799 23.4471C26.0157 23.1845 25.8924 22.9342 25.6668 22.7949C25.4732 22.6741 25.1896 22.6667 24.9701 22.6395C24.8333 22.6235 24.6964 22.6112 24.5583 22.6038C24.3574 22.5927 24.1021 22.6556 23.9382 22.7764C23.8901 22.8122 23.8223 22.8541 23.7853 22.8935C23.7261 22.9577 23.6891 23.023 23.6607 23.1056C23.6398 23.166 23.6238 23.2351 23.6459 23.298Z" fill="#FAF5EB"/>
<path d="M40.1297 25.2969C40.2777 25.3486 40.4244 25.3992 40.5785 25.4325C40.782 25.4756 40.9793 25.4818 41.1852 25.4843C41.5107 25.488 41.8362 25.5102 42.1592 25.5447C42.243 25.5533 42.3269 25.5632 42.4095 25.5743C42.4465 25.5792 42.5426 25.5767 42.3898 25.5718C42.4255 25.573 42.4637 25.5829 42.5007 25.5878C42.6672 25.6113 42.8336 25.6347 43.0001 25.6618C43.3342 25.7161 43.6683 25.7753 44 25.8369C45.3563 26.0909 46.7273 26.3991 48.1144 26.372C49.536 26.3449 50.9292 25.9738 52.2917 25.5989C52.9242 25.4251 53.5653 25.218 54.13 24.8789C54.6947 24.5398 55.1447 24.0849 55.4764 23.5313C56.1558 22.3969 56.2532 21.0197 56.2988 19.73C56.3222 19.0704 55.4604 18.7437 55.0116 19.1962C54.9906 19.2184 54.9672 19.2406 54.945 19.2615C54.8834 19.3133 54.8982 19.3022 54.9869 19.2307C54.9808 19.2258 54.8402 19.3195 54.8254 19.3281C54.8118 19.3355 54.6627 19.4218 54.6577 19.4132C54.7588 19.3725 54.7724 19.3663 54.6984 19.3934C54.6232 19.4144 54.6392 19.4156 54.744 19.3984C54.9672 19.6906 55.1904 19.984 55.4135 20.2762C55.437 20.201 55.4616 20.1271 55.4875 20.0531C55.5023 20.0124 55.5183 19.9717 55.5331 19.931C55.5615 19.8558 55.5368 19.899 55.5245 19.947C55.5615 19.7954 55.6712 19.6339 55.7464 19.4983C55.8216 19.3626 55.9079 19.2258 55.9992 19.0963C56.0189 19.0679 56.0411 19.0396 56.0608 19.0112C56.104 18.9508 55.9992 19.0852 56.0756 18.9927C56.1323 18.9249 56.1891 18.8571 56.2482 18.7905C56.4184 18.5994 56.4788 18.3491 56.3777 18.1075C56.2766 17.8658 56.0584 17.7265 55.8068 17.7228C55.3839 17.7166 55.0362 17.9262 54.797 18.2641C54.622 18.5131 54.7317 18.8793 54.9549 19.0519C55.178 19.2245 55.5689 19.2443 55.7563 19.0038C55.7612 18.9977 55.813 18.9323 55.8155 18.9348L55.7625 18.9742C55.813 18.9471 55.8155 18.9434 55.7711 18.9631C55.6712 19.0174 55.8599 18.9262 55.7489 18.9668C55.6798 18.9915 55.7699 18.9705 55.8068 18.973L55.3654 17.9065C54.7958 18.4823 54.3704 19.1555 54.0745 19.9076C53.9106 20.3243 54.3285 20.8003 54.744 20.7855C54.966 20.7781 55.1891 20.7719 55.4024 20.6979C55.6601 20.6079 55.8858 20.4563 56.0781 20.2639L54.7909 19.73C54.781 19.9877 54.7675 20.2454 54.749 20.5031C54.7391 20.6338 54.728 20.7633 54.7132 20.894C54.7058 20.9605 54.6898 21.0333 54.6898 21.0999C54.6898 21.0875 54.7181 20.9063 54.6984 21.0358C54.6922 21.074 54.6873 21.111 54.6811 21.1492C54.6417 21.4044 54.5899 21.6572 54.5196 21.905C54.4851 22.0271 54.4469 22.1479 54.4037 22.2675C54.384 22.323 54.3593 22.3772 54.3396 22.4327C54.4235 22.2058 54.3359 22.4352 54.3076 22.4919C54.2558 22.5967 54.1991 22.7003 54.1374 22.7989C54.1066 22.8482 54.0745 22.8975 54.04 22.9456C54.0277 22.9629 53.9969 22.9949 53.9882 23.0171C54.0585 22.9271 54.0758 22.9049 54.04 22.9505C54.0264 22.9678 54.0129 22.9851 53.9981 23.0023C53.9216 23.0936 53.839 23.1811 53.7527 23.2637C53.7083 23.3056 53.6615 23.3451 53.6159 23.3858C53.4889 23.4992 53.7207 23.313 53.6307 23.3759C53.5961 23.4006 53.5629 23.4252 53.5271 23.4487C53.4087 23.53 53.2842 23.6028 53.1572 23.6681C53.0968 23.6989 53.0351 23.7298 52.9735 23.7581C52.9427 23.7729 52.9106 23.7865 52.8798 23.8001C52.7923 23.8395 53.0302 23.7409 52.8971 23.7927C52.6135 23.9012 52.325 23.9949 52.0328 24.0762C51.4002 24.2538 50.7603 24.419 50.1192 24.562C49.7925 24.6348 49.462 24.6989 49.1304 24.747C49.1131 24.7494 49.0169 24.7581 49.0132 24.7642C49.0169 24.7568 49.2043 24.7408 49.0428 24.7593C48.9639 24.7679 48.8862 24.7778 48.8073 24.7852C48.6322 24.8024 48.4572 24.8135 48.2808 24.8197C47.6446 24.8419 47.0047 24.7975 46.3735 24.726C46.2896 24.7161 46.2058 24.7063 46.1219 24.6952C46.0948 24.6915 45.9715 24.6755 46.0825 24.6902C46.1934 24.705 46.0702 24.689 46.043 24.6841C45.8741 24.6607 45.7064 24.6348 45.5375 24.6089C45.2194 24.5596 44.9013 24.5065 44.5844 24.456C43.8262 24.3339 43.0654 24.2131 42.2973 24.1712C41.9447 24.1527 41.592 24.1477 41.2394 24.1638C41.0138 24.1749 40.7906 24.1847 40.5773 24.2612C40.3776 24.3315 40.2025 24.4264 40.0311 24.5472C39.7364 24.7556 39.7833 25.1773 40.1297 25.2981V25.2969Z" fill="#FAF5EB"/>
<path d="M55.6122 22.8997C55.6886 22.8985 55.7663 22.8935 55.8427 22.8948C55.9192 22.896 55.9821 22.9194 56.0573 22.9342C56.2089 22.9626 56.3791 22.9416 56.5332 22.9392C56.8784 22.933 57.2409 22.7974 57.5652 22.6827C58.1928 22.462 58.8216 22.2425 59.4491 22.0218L58.9979 20.9516C58.5244 21.2155 58.0411 21.4621 57.5763 21.7407C57.1114 22.0194 56.6503 22.3991 56.2348 22.7764C56.0363 22.9564 55.8452 23.1451 55.664 23.3423C55.5789 23.4348 55.4938 23.5273 55.4001 23.6124C55.373 23.637 55.3458 23.6604 55.3187 23.6826C55.405 23.6173 55.4161 23.6074 55.352 23.6543C55.3101 23.6789 55.2706 23.7073 55.2287 23.7307C55.1239 23.7911 54.9698 23.8269 54.8773 23.9009L54.9747 23.8602C54.9439 23.8725 54.9143 23.8848 54.8835 23.8984C54.775 23.944 54.6665 23.9884 54.5592 24.0353C54.2818 24.1549 54.0488 24.3016 53.8108 24.4902C53.669 24.6037 53.5704 24.8749 53.579 25.05C53.5876 25.2251 53.6394 25.3878 53.7492 25.5296C53.9884 25.8391 54.4273 25.934 54.7713 25.7343C55.7762 25.1511 56.6306 24.2547 57.1731 23.2289C57.3482 22.8972 57.2816 22.4978 56.9808 22.2647C56.7021 22.0502 56.2484 22.044 56.0006 22.3227C55.5863 22.79 55.1412 23.2227 54.6603 23.6222C54.5506 23.7135 54.4421 23.8096 54.3262 23.891C54.4754 23.7862 54.2991 23.9107 54.2608 23.9403C54.1893 23.9946 54.1166 24.0476 54.0438 24.0994C53.7886 24.2831 53.5272 24.4582 53.2609 24.6234C53.1315 24.7035 52.9946 24.775 52.8676 24.8601C52.584 25.0488 52.3867 25.4051 52.4977 25.7491C52.5926 26.0438 52.8898 26.2213 53.1894 26.2349C53.4446 26.246 53.6752 26.0832 53.8836 25.9562C54.4581 25.6061 55.0031 25.2127 55.5271 24.7911C56.0511 24.3694 56.5788 23.8811 57.0572 23.3793L55.8834 22.4743C55.8181 22.5878 55.7503 22.6987 55.6775 22.8072C55.6492 22.8492 55.5246 23.0834 55.4778 23.0871C55.5468 22.9983 55.5567 22.986 55.5061 23.0489C55.4852 23.0748 55.4654 23.0994 55.4445 23.1253C55.4026 23.1759 55.3594 23.2252 55.3163 23.2745C55.2337 23.367 55.1498 23.4558 55.061 23.5433C54.9723 23.6308 54.8823 23.7147 54.7885 23.7961C54.738 23.8392 54.6874 23.8824 54.6357 23.9243C54.6098 23.9453 54.5839 23.9662 54.558 23.9859C54.6443 23.9194 54.664 23.9046 54.6172 23.9391C54.4076 24.0907 54.193 24.2325 53.9711 24.3645C54.2917 24.7787 54.611 25.1942 54.9316 25.6085C54.7454 25.7589 54.9205 25.6208 54.9661 25.5925C55.0203 25.5592 55.0771 25.5284 55.135 25.4988C55.2361 25.447 55.3409 25.4014 55.4457 25.357C55.6553 25.267 55.8674 25.1819 56.0622 25.0611C56.5492 24.759 56.8797 24.2942 57.2754 23.8922C57.6404 23.5199 58.0423 23.1931 58.4307 22.8492C58.6181 22.6827 58.8092 22.5224 59.004 22.3658C59.0595 22.3214 59.1162 22.2771 59.1717 22.2327C59.0719 22.3116 59.2124 22.2043 59.2223 22.1969C59.3419 22.1143 59.4652 22.0379 59.5872 21.9602C59.8351 21.8036 59.9423 21.5015 59.8264 21.229C59.7241 20.9874 59.406 20.7778 59.1347 20.89C58.5072 21.1501 57.8796 21.4103 57.252 21.6717C57.0782 21.7444 56.9006 21.8098 56.7354 21.8985C56.5813 21.9811 56.4013 22.0551 56.2693 22.1698C56.1497 22.2734 56.0129 22.3769 55.9105 22.4965C55.8625 22.5532 55.8316 22.6198 55.7786 22.6728C55.7194 22.732 55.6492 22.7838 55.5863 22.8381C55.5641 22.8578 55.5826 22.8972 55.6109 22.896L55.6122 22.8997Z" fill="#FAF5EB"/>
<path d="M59.133 21.3572C59.2341 21.3609 59.3019 21.3781 59.4067 21.3633C59.5115 21.3485 59.5978 21.3202 59.6965 21.2758C59.8913 21.1882 60.0725 21.0748 60.2217 20.9195C60.3709 20.7641 60.5016 20.5718 60.615 20.393C60.7482 20.1821 60.8259 19.943 60.8333 19.6927C60.8333 19.6581 60.8333 19.6224 60.832 19.5891C60.8246 19.4794 60.816 19.6212 60.7938 19.6631C60.7679 19.7099 60.7297 19.7592 60.6828 19.7876C60.5559 19.8628 60.6274 19.8086 60.6853 19.7913C60.8542 19.7432 61.0293 19.7087 61.2007 19.6692C61.3943 19.6236 61.5866 19.578 61.7802 19.5324C61.8764 19.5102 61.9738 19.4868 62.0699 19.4646L62.1562 19.4436L62.0638 19.4584L61.975 19.4448C62.0798 19.4757 62.0292 19.4424 61.8221 19.3425C62.0724 19.5447 62.4521 19.6064 62.6938 19.3425C62.9034 19.1144 62.9589 18.6915 62.6938 18.4708C62.4287 18.2501 62.155 18.1897 61.8258 18.2501C61.6113 18.2896 61.3992 18.3426 61.1859 18.3894C60.9529 18.44 60.7211 18.4905 60.488 18.5411C60.255 18.5916 60.0121 18.6718 59.837 18.8518C59.6151 19.0799 59.5596 19.3869 59.588 19.6927V19.7444C59.6003 19.6655 59.5991 19.6606 59.5818 19.7321L59.6065 19.6816C59.5917 19.7136 59.5756 19.7444 59.5584 19.7753C59.5091 19.8628 59.4524 19.9467 59.3956 20.0293C59.2588 20.2315 59.1429 20.446 59.0849 20.684C59.0566 20.8011 59.0319 20.9108 59.0294 21.0317C59.027 21.1241 59.0553 21.1993 59.064 21.2869C59.0677 21.3251 59.0923 21.3535 59.133 21.3559V21.3572Z" fill="#FAF5EB"/>
<path d="M26.3662 23.1946H26.3563C25.9433 23.2377 25.7497 23.6729 26.0247 23.9948C26.2713 24.2833 26.7336 24.3474 27.0924 24.3264C27.3896 24.3092 27.6855 24.2919 27.9826 24.2746C28.5868 24.2389 29.1897 24.2019 29.7938 24.1661C30.398 24.1304 31.0539 24.0959 31.6667 23.9861C31.7949 23.9627 31.9219 23.9319 32.044 23.8875C32.1106 23.8628 32.1734 23.8332 32.24 23.8073C32.2634 23.7987 32.2918 23.7938 32.314 23.7827C32.3744 23.7667 32.3461 23.7679 32.2289 23.7876L32.1192 23.7691C32.0662 23.7531 32.0317 23.7235 31.986 23.6976C31.8911 23.6434 31.9774 23.6927 32.0045 23.7173C32.0489 23.758 32.0921 23.7987 32.1377 23.8382C32.2536 23.9405 32.3744 24.0354 32.4965 24.1291C32.7431 24.319 32.9958 24.4966 33.2671 24.6495C33.3879 24.7173 33.5112 24.7838 33.637 24.8418C33.7529 24.8948 33.87 24.9491 33.997 24.9713C34.0229 24.9762 34.0488 24.9799 34.0747 24.9836C34.2399 25.0082 34.3472 24.9996 34.5074 24.9774C34.9353 24.9195 35.1831 24.2734 34.9316 23.9356C34.7996 23.7593 34.6468 23.6101 34.4507 23.5028C34.3361 23.4412 34.2177 23.3869 34.103 23.3228C33.8762 23.1958 33.6592 23.0528 33.4496 22.8986C33.3337 22.8136 33.4754 22.9245 33.4853 22.9258C33.4705 22.9233 33.4113 22.8654 33.4052 22.8604C33.3583 22.8222 33.3127 22.7828 33.2671 22.7433C33.1278 22.6212 32.9971 22.4831 32.8392 22.3857C32.6494 22.2698 32.4299 22.207 32.2067 22.2181C31.9971 22.2279 31.8442 22.2883 31.6556 22.3598C31.5335 22.4067 31.4078 22.4388 31.2808 22.4622C31.2512 22.4683 31.1291 22.4807 31.2463 22.4708C31.3634 22.4609 31.2611 22.4696 31.2389 22.4708C31.155 22.4794 31.0712 22.4881 30.9861 22.4955C30.6816 22.5214 30.377 22.5448 30.0737 22.5694C29.4486 22.62 28.8247 22.6964 28.2008 22.7606C27.863 22.7951 27.5252 22.8296 27.1873 22.8666C26.7299 22.9159 26.2121 22.9924 25.9544 23.4239L26.5955 23.2562C26.5339 23.2192 26.4389 23.1847 26.3687 23.1909L26.3662 23.1946Z" fill="#FAF5EB"/>
<path d="M21.5562 23.7739C21.5783 24.1623 21.9865 24.457 22.3403 24.5519C22.6683 24.6395 23.0271 24.6641 23.3649 24.6937C23.9136 24.7406 24.4647 24.7529 25.0146 24.7813C25.292 24.7961 25.5707 24.8072 25.8469 24.8269C25.9788 24.8368 26.1119 24.8479 26.2439 24.8639C26.2698 24.8676 26.2969 24.8713 26.3228 24.8737C26.0885 24.8491 26.1995 24.8565 26.2525 24.8651C26.3302 24.8787 26.4079 24.891 26.4855 24.9058C26.7506 24.9576 27.012 25.0291 27.2648 25.1253C27.2894 25.1351 27.3141 25.145 27.3375 25.1549C27.4423 25.1955 27.1772 25.0809 27.2783 25.1302C27.3301 25.1561 27.3844 25.1795 27.4361 25.2042C27.6075 25.2856 27.7826 25.3632 27.9614 25.4286C28.3744 25.579 28.8528 25.5926 29.2486 25.383C29.4829 25.2597 29.6111 25.0846 29.7689 24.8848C29.817 24.8244 29.8367 24.854 29.7097 24.9613C29.727 24.9465 29.7467 24.9218 29.7615 24.9033C29.8355 24.8109 29.6814 24.965 29.6789 24.9674C29.801 24.8577 29.9107 24.8022 29.9908 24.6432C30.2387 24.1475 30.018 23.6383 29.5063 23.4521C29.1376 23.3177 28.7579 23.5249 28.5039 23.7826C28.4583 23.8294 28.4089 23.8775 28.3658 23.9256C28.3078 23.9909 28.5433 23.8183 28.4176 23.8763L28.5433 23.822C28.5162 23.8307 28.4891 23.8381 28.4607 23.843L28.6901 23.8122C28.6149 23.822 28.5433 23.8208 28.4681 23.8122L28.6975 23.843C28.6025 23.827 28.5101 23.8023 28.4188 23.7702C28.3954 23.7616 28.372 23.7518 28.3485 23.7431C28.261 23.7123 28.4447 23.785 28.4385 23.7813C28.3818 23.7505 28.3189 23.7271 28.2598 23.7C28.0119 23.5841 27.7592 23.4756 27.4978 23.3942C27.0169 23.2438 26.509 23.1735 26.0071 23.1328C25.091 23.0576 24.1762 23.1735 23.2589 23.1735C22.9469 23.1735 22.6214 23.1291 22.3132 23.1821C22.0333 23.2302 21.5364 23.4102 21.5574 23.7727L21.5562 23.7739Z" fill="#FAF5EB"/>
<path d="M68.43 3.09582C68.4547 3.08596 68.4794 3.0761 68.504 3.065L68.4596 3.08349C68.5299 3.06747 68.5681 3.01198 68.6064 2.9565C68.615 2.94417 68.6236 2.93061 68.6335 2.91828C68.6532 2.88992 68.6668 2.86279 68.6791 2.8295C68.7013 2.77279 68.7235 2.71484 68.7432 2.65689C68.7851 2.54099 68.8234 2.42509 68.8603 2.30796C68.9343 2.07493 69.0157 1.8456 69.1032 1.6175C69.1538 1.48681 69.2056 1.35735 69.2598 1.22912L69.229 1.30187C69.2746 1.1946 69.319 1.0861 69.3646 0.978831L69.3338 1.05281C69.3535 1.00596 69.3733 0.959103 69.3942 0.913484C69.4226 0.865398 69.4361 0.813614 69.4361 0.758131C69.4374 0.71621 69.4287 0.675523 69.409 0.639767C69.3745 0.558391 69.3017 0.478249 69.2093 0.460987C69.1082 0.442493 69.0009 0.438794 68.9121 0.502908L68.8517 0.549761C68.8221 0.576886 68.8012 0.608943 68.7888 0.647164C68.7642 0.707579 68.7531 0.780324 68.774 0.843205C68.8147 0.968967 68.9282 1.06637 69.065 1.06391C69.0835 1.06391 69.102 1.06391 69.1205 1.06391L69.0391 1.05281H69.0465C68.9849 0.90362 68.9232 0.751966 68.8628 0.601545C68.7925 0.76183 68.7247 0.923348 68.6643 1.08733C68.6113 1.22912 68.562 1.37215 68.5139 1.5164C68.4658 1.66066 68.4239 1.79875 68.382 1.94054C68.34 2.08233 68.2944 2.23152 68.2648 2.37947C68.2488 2.46085 68.234 2.54346 68.2217 2.62607C68.218 2.64703 68.2155 2.66922 68.2118 2.69141C68.2056 2.7358 68.2019 2.76662 68.2069 2.80854C68.2167 2.88745 68.2143 2.98116 68.2796 3.03664L68.25 2.99842C68.2673 3.02061 68.2833 3.04157 68.3018 3.06253C68.3314 3.09459 68.3906 3.11309 68.4337 3.09706L68.43 3.09582Z" fill="#FAF5EB"/>
<path d="M67.9748 4.67913V4.67544C67.9773 4.689 67.981 4.70256 67.9847 4.71612C67.9847 4.70749 67.9773 4.74448 67.9822 4.73215C67.9822 4.72969 67.9834 4.72722 67.9847 4.72475L67.9711 4.75558C67.9908 4.72845 67.9896 4.69516 67.9921 4.66311L67.9859 4.70503C67.9908 4.69146 67.9921 4.66927 67.9933 4.65447L67.9871 4.69886V4.6964C67.9822 4.70996 67.9773 4.72352 67.9711 4.73708C67.9711 4.73585 67.9711 4.73462 67.9723 4.73338L67.944 4.77037C67.9847 4.73708 67.9995 4.6779 68.0019 4.62858L67.9748 4.72722C67.9748 4.72722 67.976 4.72475 67.9773 4.72229L67.9452 4.76421L67.9477 4.76174C68.0032 4.70873 68.0278 4.61995 68.0044 4.54721C67.9995 4.52995 67.9982 4.51022 67.9958 4.49296L68.0044 4.55707C68.0044 4.50529 67.9921 4.46583 67.9674 4.42145C67.9625 4.41281 67.9576 4.40418 67.9539 4.39432L67.9785 4.45227C67.965 4.41035 67.9502 4.36843 67.9317 4.32774L67.9576 4.38816C67.8897 4.2254 67.8256 4.05895 67.7479 3.8999C67.7147 3.83086 67.6814 3.76304 67.6481 3.694C67.6173 3.62988 67.584 3.56577 67.5568 3.49919L67.5889 3.5744C67.5531 3.49056 67.526 3.40425 67.5125 3.31425L67.5236 3.39809C67.5186 3.35863 67.5149 3.31795 67.5186 3.27849L67.5075 3.36233C67.51 3.34877 67.5125 3.33644 67.5174 3.32411L67.4853 3.39932C67.489 3.39069 67.494 3.38329 67.4989 3.37466L67.4496 3.43878C67.4557 3.43138 67.4619 3.42521 67.4693 3.42028L67.4052 3.4696C67.4114 3.46467 67.4175 3.46097 67.4249 3.4585L67.3497 3.49056C67.3571 3.48809 67.3633 3.48563 67.3707 3.4844L67.2868 3.49549C67.2955 3.49549 67.3041 3.49549 67.3127 3.49549L67.2289 3.4844C67.2412 3.48686 67.2523 3.48933 67.2646 3.49426L67.1894 3.4622C67.2067 3.4696 67.2215 3.47946 67.2363 3.49056L67.1722 3.44124C67.1956 3.45974 67.2153 3.4807 67.2326 3.50289L67.1833 3.43878C67.2141 3.47946 67.235 3.52755 67.2572 3.5744C67.2819 3.62742 67.3066 3.68044 67.3287 3.73469L67.2967 3.65824C67.3546 3.79633 67.404 3.93689 67.4459 4.07992C67.4668 4.15143 67.4841 4.22417 67.5001 4.29692C67.5137 4.35856 67.5223 4.41898 67.5544 4.4757C67.563 4.49049 67.5729 4.50529 67.584 4.52008C67.5889 4.52748 67.5938 4.53488 67.5988 4.54104C67.6358 4.59283 67.6542 4.61502 67.7085 4.65078C67.7406 4.6705 67.7751 4.6816 67.8121 4.68407C67.8491 4.6927 67.886 4.69023 67.923 4.67913L67.9896 4.65078C68.0315 4.62612 68.0648 4.59283 68.0895 4.55091C68.1129 4.51885 68.1265 4.46583 68.1363 4.42391C68.1437 4.38939 68.1524 4.34254 68.1524 4.31418C68.1524 4.27349 68.1437 4.23404 68.1351 4.19458C68.124 4.14403 68.1129 4.09471 68.1006 4.04539C68.0747 3.94552 68.0451 3.84812 68.0118 3.75071C67.9699 3.62988 67.9218 3.51152 67.87 3.39439C67.8491 3.34754 67.8281 3.30068 67.8047 3.25383C67.7849 3.21314 67.7652 3.16999 67.7393 3.133C67.7134 3.09601 67.6863 3.05902 67.6555 3.02697C67.6246 2.99491 67.5864 2.96655 67.5507 2.94189C67.5149 2.91723 67.473 2.9012 67.4323 2.88518C67.4249 2.88271 67.4175 2.88024 67.4101 2.87778C67.4052 2.87778 67.4015 2.87655 67.3966 2.87531C67.367 2.87038 67.3337 2.86422 67.3041 2.86298C67.1968 2.85928 67.0748 2.90984 67.0045 2.99244C66.9576 3.04793 66.9194 3.10464 66.9034 3.17739C66.8935 3.22301 66.8861 3.27109 66.8873 3.31795C66.8873 3.3426 66.891 3.36726 66.8935 3.39069C66.8997 3.44124 66.9058 3.49056 66.9169 3.54111C66.928 3.59166 66.9428 3.63728 66.9613 3.68413C67.0069 3.8025 67.06 3.91593 67.1253 4.02443C67.1906 4.13293 67.2498 4.23404 67.3189 4.33514C67.3546 4.38692 67.3904 4.43994 67.4261 4.49172C67.4434 4.51638 67.4607 4.54228 67.4779 4.56693C67.5075 4.60886 67.5396 4.64954 67.5716 4.689L67.5334 4.63968C67.5383 4.64831 67.5433 4.65694 67.5482 4.66557C67.5729 4.70873 67.6025 4.73708 67.6444 4.76298L67.5963 4.72599C67.6099 4.73832 67.6247 4.74941 67.637 4.76174C67.6875 4.81599 67.78 4.84189 67.8515 4.81846H67.8552C67.8367 4.81846 67.8195 4.82216 67.801 4.82462C67.8034 4.82462 67.8047 4.82462 67.8071 4.82462L67.7554 4.81723C67.7886 4.82832 67.833 4.82832 67.8663 4.81723L67.8195 4.82339C67.8195 4.82339 67.8244 4.82339 67.8256 4.82339L67.7812 4.81723C67.8195 4.82462 67.8367 4.82462 67.8749 4.81723L67.833 4.82339C67.8749 4.82709 67.9218 4.81476 67.9514 4.7827L67.9255 4.80366C67.9354 4.7975 67.9452 4.78887 67.9551 4.78147C67.9637 4.77407 67.9625 4.78147 67.9477 4.7864C67.9637 4.779 67.9797 4.75681 67.9834 4.73955C67.9884 4.71859 67.9859 4.69886 67.976 4.67913H67.9748Z" fill="#FAF5EB"/>
<path d="M5.52141 24.8526C5.6595 24.9143 5.7865 24.9735 5.91472 25.0548C6.02569 25.1264 6.13912 25.204 6.26119 25.2534C6.50408 25.3508 6.77163 25.4198 7.02932 25.4667C7.33016 25.5221 7.6532 25.5641 7.96021 25.569C8.01939 25.569 8.07487 25.5653 8.13405 25.5579C8.29434 25.5357 8.33379 25.5308 8.25242 25.5419C8.35352 25.5419 8.44846 25.516 8.536 25.4654C8.70368 25.3853 8.85657 25.2706 8.90959 25.0807C8.9737 24.8465 8.83314 24.627 8.63217 24.5222C8.45339 24.4285 8.27338 24.4149 8.07734 24.4322C7.79252 24.4581 7.45716 24.5481 7.2081 24.5802C6.93808 24.6134 6.6693 24.6443 6.39804 24.6714C6.26365 24.685 6.13666 24.7232 6.00473 24.7515C5.84691 24.7861 5.70265 24.7898 5.54237 24.7811C5.50538 24.7787 5.48689 24.8378 5.52264 24.8539L5.52141 24.8526Z" fill="#FAF5EB"/>
<path d="M2.07894 45.8835C2.28115 45.9291 2.43896 46.0142 2.5524 46.1375C2.66583 46.2608 2.72255 46.4124 2.72255 46.5912C2.72255 47.1744 2.32677 47.4654 1.53644 47.4654H0.351562V44.415H1.51794C2.25649 44.415 2.62637 44.6838 2.62637 45.2202C2.62637 45.542 2.4439 45.7639 2.08017 45.8835H2.07894ZM2.03085 45.2978C2.03085 45.1671 1.98524 45.0673 1.894 44.9982C1.80276 44.9279 1.67083 44.8934 1.49822 44.8934H0.937219V45.7232H1.45013C1.63877 45.7232 1.78303 45.6862 1.88167 45.611C1.9803 45.5358 2.03085 45.4322 2.03085 45.2991V45.2978ZM2.12333 46.5666C2.12333 46.2928 1.91002 46.156 1.48342 46.156H0.937219V46.9858H1.52781C1.92482 46.9858 2.12333 46.8464 2.12333 46.5653V46.5666Z" fill="#FAF5EB"/>
<path d="M4.7641 44.415L5.86267 47.4654H5.26222L5.00823 46.7429H3.77773L3.52867 47.4654H2.92822L4.04159 44.415H4.7641ZM4.85657 46.2497L4.39791 44.9267L3.93432 46.2497H4.85657Z" fill="#FAF5EB"/>
<path d="M6.82794 46.3767V47.4654H6.23242V44.415H7.3014C7.67868 44.415 7.96966 44.4976 8.17557 44.6641C8.38024 44.8305 8.48258 45.0562 8.48258 45.3422C8.48258 45.5568 8.42586 45.7392 8.31119 45.8884C8.19776 46.0376 8.03501 46.1486 7.82294 46.2201L8.62313 47.4641H7.945L7.26688 46.3459L6.82794 46.3754V46.3767ZM6.82301 45.9082L7.26688 45.8983C7.45552 45.8884 7.60347 45.8403 7.71074 45.754C7.81801 45.6677 7.87226 45.5432 7.87226 45.3804C7.87226 45.0685 7.65156 44.9119 7.20893 44.9119H6.82301V45.9082Z" fill="#FAF5EB"/>
<path d="M11.7921 46.914C11.4802 47.3307 11.13 47.5391 10.7429 47.5391C10.4568 47.5391 10.2263 47.4589 10.0524 47.2999C9.87856 47.1408 9.79102 46.9374 9.79102 46.6896C9.79102 46.4911 9.85883 46.3197 9.99569 46.1742C10.1325 46.0299 10.3015 45.9288 10.5037 45.8733C10.1843 45.697 10.0253 45.4615 10.0253 45.1656C10.0253 44.9511 10.1128 44.7612 10.2867 44.5948C10.4605 44.4283 10.6923 44.3457 10.9821 44.3457C11.2521 44.3457 11.4703 44.416 11.6355 44.5578C11.8007 44.6996 11.8846 44.8759 11.8846 45.0879C11.8846 45.247 11.8291 45.3888 11.7181 45.5096C11.6072 45.6317 11.4678 45.7242 11.2989 45.7858C11.4481 45.8573 11.6244 46.0003 11.8266 46.2149L12.2076 45.5898H12.8377L12.1151 46.5219L12.8525 47.4244L12.252 47.5267L11.7933 46.9115L11.7921 46.914ZM11.5578 46.6205C11.2841 46.3147 11.0289 46.1199 10.7909 46.0349C10.4913 46.184 10.3421 46.3727 10.3421 46.6008C10.3421 46.7413 10.3878 46.856 10.479 46.9448C10.5702 47.0348 10.6923 47.0792 10.8452 47.0792C11.0992 47.0792 11.3359 46.9263 11.5578 46.6205ZM11.0067 45.6391C11.2447 45.5182 11.363 45.3555 11.363 45.1508C11.363 45.0374 11.3261 44.9437 11.2508 44.8722C11.1756 44.8007 11.0782 44.7649 10.9574 44.7649C10.8366 44.7649 10.7404 44.8007 10.6664 44.8722C10.5937 44.9437 10.5567 45.03 10.5567 45.1311C10.5567 45.2482 10.5937 45.3456 10.6689 45.4245C10.7441 45.5022 10.8563 45.5737 11.0055 45.6391H11.0067Z" fill="#FAF5EB"/>
<path d="M14.867 46.3767V47.4654H14.2715V44.415H15.3405C15.7177 44.415 16.0087 44.4976 16.2146 44.6641C16.4205 44.8305 16.5216 45.0562 16.5216 45.3422C16.5216 45.5568 16.4649 45.7392 16.3503 45.8884C16.2368 46.0376 16.0741 46.1486 15.862 46.2201L16.6622 47.4641H15.9841L15.3059 46.3459L14.867 46.3754V46.3767ZM14.8621 45.9082L15.3059 45.8983C15.4946 45.8884 15.6425 45.8403 15.7498 45.754C15.8571 45.6677 15.9113 45.5432 15.9113 45.3804C15.9113 45.0685 15.6906 44.9119 15.248 44.9119H14.8621V45.9082Z" fill="#FAF5EB"/>
<path d="M19.1872 47.4654H17.1084V44.415H19.1872V44.9181H17.6941V45.6838H18.9196V46.1868H17.6941V46.9623H19.1872V47.4654Z" fill="#FAF5EB"/>
<path d="M20.6804 47.0361C20.8469 47.0361 20.9825 46.9991 21.0885 46.9239C21.1946 46.8487 21.2476 46.7513 21.2476 46.6304C21.2476 46.5096 21.1958 46.4233 21.0935 46.3592C20.9911 46.2951 20.8161 46.2297 20.5682 46.1619C20.4351 46.1261 20.3217 46.0892 20.2292 46.0497C20.1367 46.0102 20.0393 45.956 19.9357 45.8857C19.8334 45.8154 19.7557 45.7267 19.7015 45.6194C19.6485 45.5121 19.6213 45.3864 19.6213 45.2433C19.6213 44.9696 19.72 44.7514 19.9172 44.5874C20.1145 44.4234 20.3796 44.3408 20.715 44.3408C21.0984 44.3408 21.4486 44.4308 21.7642 44.6096L21.6175 45.1127C21.324 44.9363 21.0257 44.8488 20.7199 44.8488C20.5473 44.8488 20.4191 44.8809 20.334 44.9462C20.2489 45.0116 20.207 45.0991 20.207 45.2101C20.207 45.321 20.2625 45.4123 20.3734 45.4764C20.4844 45.5405 20.6595 45.6046 20.9011 45.6687C21.0343 45.7045 21.149 45.7439 21.2451 45.7859C21.3413 45.8278 21.4375 45.8845 21.5361 45.9535C21.6335 46.0238 21.7075 46.1114 21.758 46.2174C21.8086 46.3234 21.8333 46.4455 21.8333 46.586C21.8333 46.8696 21.7285 47.099 21.5189 47.274C21.3093 47.4503 21.0269 47.5379 20.6718 47.5379C20.2489 47.5379 19.8827 47.443 19.5732 47.2543L19.7101 46.7414C20.0319 46.9362 20.3562 47.0348 20.6817 47.0348L20.6804 47.0361Z" fill="#FAF5EB"/>
<path d="M24.6978 44.9363H23.6781V47.4652H23.0875V44.9363H22.0679V44.4136H24.699V44.9363H24.6978Z" fill="#FAF5EB"/>
<path d="M26.372 44.415L27.4706 47.4654H26.8701L26.6161 46.7429H25.3856L25.1366 47.4654H24.5361L25.6495 44.415H26.372ZM26.4645 46.2497L26.0058 44.9267L25.5422 46.2497H26.4645Z" fill="#FAF5EB"/>
<path d="M30.369 46.2546C30.369 46.6677 30.2581 46.9845 30.0374 47.2065C29.8167 47.4284 29.5023 47.5381 29.0954 47.5381C28.6885 47.5381 28.3877 47.4321 28.1633 47.2188C27.9389 47.0055 27.8267 46.7022 27.8267 46.3089V44.415H28.4222V46.2312C28.4222 46.7552 28.6527 47.0166 29.1151 47.0166C29.5775 47.0166 29.7784 46.7626 29.7784 46.2546V44.415H30.369V46.2546Z" fill="#FAF5EB"/>
<path d="M31.6526 46.3767V47.4654H31.0571V44.415H32.1261C32.5034 44.415 32.7944 44.4976 33.0003 44.6641C33.2062 44.8305 33.3073 45.0562 33.3073 45.3422C33.3073 45.5568 33.2506 45.7392 33.1359 45.8884C33.0225 46.0376 32.8597 46.1486 32.6476 46.2201L33.4478 47.4641H32.7697L32.0916 46.3459L31.6526 46.3754V46.3767ZM31.6477 45.9082L32.0916 45.8983C32.2802 45.8884 32.4282 45.8403 32.5354 45.754C32.6427 45.6677 32.697 45.5432 32.697 45.3804C32.697 45.0685 32.4763 44.9119 32.0336 44.9119H31.6477V45.9082Z" fill="#FAF5EB"/>
<path d="M35.3661 44.415L36.4647 47.4654H35.8643L35.6103 46.7429H34.3798L34.1307 47.4654H33.5303L34.6436 44.415H35.3661ZM35.4599 46.2497L35.0012 44.9267L34.5376 46.2497H35.4599Z" fill="#FAF5EB"/>
<path d="M38.9298 46.6356V44.415H39.4957V47.495H38.8607L37.4009 45.2498V47.4654H36.835V44.415H37.4847L38.9298 46.6356Z" fill="#FAF5EB"/>
<path d="M42.5816 44.9363H41.5619V47.4652H40.9713V44.9363H39.9517V44.4136H42.5828V44.9363H42.5816Z" fill="#FAF5EB"/>
<path d="M45.9239 45.8835C46.1261 45.9291 46.2839 46.0142 46.3974 46.1375C46.5108 46.2608 46.5675 46.4124 46.5675 46.5912C46.5675 47.1744 46.1717 47.4654 45.3814 47.4654H44.1953V44.415H45.3617C46.1002 44.415 46.4701 44.6838 46.4701 45.2202C46.4701 45.542 46.2876 45.7639 45.9239 45.8835ZM45.8746 45.2978C45.8746 45.1671 45.829 45.0673 45.7377 44.9982C45.6465 44.9279 45.5146 44.8934 45.342 44.8934H44.781V45.7232H45.2939C45.4825 45.7232 45.6268 45.6862 45.7254 45.611C45.8241 45.5358 45.8746 45.4322 45.8746 45.2991V45.2978ZM45.9683 46.5666C45.9683 46.2928 45.755 46.156 45.3284 46.156H44.7822V46.9858H45.3728C45.7698 46.9858 45.9683 46.8464 45.9683 46.5653V46.5666Z" fill="#FAF5EB"/>
<path d="M49.41 44.415L48.3509 46.2842V47.4654H47.7603V46.2793L46.6963 44.415H47.3411L48.0636 45.7331L48.7714 44.415H49.4113H49.41Z" fill="#FAF5EB"/>
<path d="M53.0988 47.4653H51.02V44.415H53.0988V44.918H51.6057V45.6837H52.8312V46.1867H51.6057V46.9623H53.0988V47.4653ZM52.9533 43.2671L52.1864 44.1598H51.8054L52.3035 43.2671H52.9533Z" fill="#FAF5EB"/>
<path d="M56.3548 45.918C56.3548 46.3964 56.2081 46.7737 55.9134 47.0499C55.6187 47.3261 55.2044 47.4654 54.6706 47.4654H53.6743V44.415H54.7088C55.2229 44.415 55.6261 44.5507 55.9171 44.8231C56.2081 45.0944 56.3535 45.4606 56.3535 45.9192L56.3548 45.918ZM55.7593 45.9476C55.7593 45.6061 55.6668 45.3484 55.4806 45.177C55.2944 45.0044 55.0269 44.9181 54.6755 44.9181H54.2711V46.9636H54.7051C55.033 46.9636 55.292 46.8773 55.4781 46.7046C55.6655 46.532 55.7593 46.2805 55.7593 45.9476Z" fill="#FAF5EB"/>
<path d="M58.986 47.4654H56.9072V44.415H58.986V44.9181H57.4929V45.6838H58.7184V46.1868H57.4929V46.9623H58.986V47.4654Z" fill="#FAF5EB"/>
<path d="M61.6558 46.6356V44.415H62.2218V47.495H61.5868L60.127 45.2498V47.4654H59.561V44.415H60.2108L61.6558 46.6356Z" fill="#FAF5EB"/>
</g>
<defs>
<clipPath id="clip0_11_836">
<rect width="72.5708" height="47.538" fill="white"/>
</clipPath>
</defs>
</svg>
