<svg width="59" height="54" viewBox="0 0 59 54" fill="none" xmlns="http://www.w3.org/2000/svg">
<g clip-path="url(#clip0_11_912)">
<path d="M41.2753 48.3523C41.4894 48.4087 41.6548 48.5041 41.7696 48.6364C41.8863 48.7706 41.9427 48.9302 41.9427 49.115C41.9427 49.4069 41.8415 49.6345 41.6411 49.7999C41.4388 49.9653 41.1333 50.047 40.7228 50.047H39.6021V46.7588H40.6916C41.073 46.7588 41.361 46.8366 41.5516 46.9923C41.7423 47.1479 41.8377 47.362 41.8377 47.6324C41.8377 47.9729 41.6509 48.2122 41.2753 48.3523ZM41.3901 47.6694C41.3901 47.5118 41.3337 47.3892 41.2189 47.3016C41.1041 47.2141 40.9407 47.1693 40.7267 47.1693H40.0476V48.2005H40.6586C40.8901 48.2005 41.0691 48.1538 41.1975 48.0585C41.3259 47.9632 41.3901 47.8348 41.3901 47.6694ZM41.4952 49.1209C41.4952 48.7765 41.2287 48.6052 40.6955 48.6052H40.0476V49.6365H40.7636C41.252 49.6365 41.4952 49.4652 41.4952 49.1209Z" fill="#FAF5EB"/>
<path d="M44.9002 46.7588L43.7581 48.7434V50.049H43.3106V48.7395L42.1646 46.7607H42.6704L43.544 48.2978L44.406 46.7607H44.9002V46.7588Z" fill="#FAF5EB"/>
<path d="M48.6517 50.047H46.5679V46.7588H48.6517V47.1752H47.0154V48.1908H48.3774V48.6072H47.0154V49.6326H48.6517V50.049V50.047ZM48.426 45.4805L47.6575 46.4339H47.3423L47.9007 45.4805H48.428H48.426Z" fill="#FAF5EB"/>
<path d="M52.0526 48.3795C52.0526 48.8952 51.8988 49.3018 51.5895 49.5995C51.2801 49.8972 50.8482 50.047 50.2898 50.047H49.3228V46.7588H50.3112C50.8521 46.7588 51.2762 46.9047 51.5875 47.1985C51.8989 47.4923 52.0526 47.8853 52.0526 48.3795ZM51.6051 48.4107C51.6051 48.0099 51.4903 47.7044 51.2626 47.4923C51.035 47.2802 50.71 47.1732 50.2898 47.1732H49.7683V49.6306H50.3112C50.71 49.6306 51.0272 49.5256 51.2587 49.3174C51.4903 49.1092 51.607 48.8057 51.607 48.4087L51.6051 48.4107Z" fill="#FAF5EB"/>
<path d="M54.7943 50.047H52.7104V46.7588H54.7943V47.1752H53.158V48.1908H54.5199V48.6072H53.158V49.6326H54.7943V50.049V50.047Z" fill="#FAF5EB"/>
<path d="M57.7087 49.4108V46.7588H58.1445V50.0781H57.6601L55.8973 47.395V50.047H55.4614V46.7588H55.9556L57.7087 49.4108Z" fill="#FAF5EB"/>
<path d="M2.9161 1.6656C2.32072 1.6656 1.80706 1.86601 1.37122 2.26487C0.937335 2.66374 0.536522 3.28052 0.170733 4.11328H-0.000488281L0.429509 1.30176H10.8954L11.3234 4.11328H11.1522C10.7864 3.28052 10.3856 2.66374 9.95172 2.26487C9.51589 1.86601 9.00222 1.6656 8.40684 1.6656H6.69074V13.2094C6.69074 13.4876 6.80554 13.7133 7.03318 13.8865C7.26278 14.0596 7.54296 14.1472 7.87372 14.1472V14.3204H3.44728V14.1472C3.77804 14.1472 4.05822 14.0596 4.28781 13.8865C4.51546 13.7133 4.63026 13.4876 4.63026 13.2094V1.6656H2.91416H2.9161Z" fill="#FAF5EB"/>
<path d="M15.0633 6.44024C15.4174 5.87405 15.8688 5.42459 16.4175 5.09577C16.9662 4.76695 17.6005 4.60157 18.3223 4.60157C19.3399 4.60157 20.1435 4.9226 20.7331 5.56468C21.3226 6.20676 21.6164 7.13485 21.6164 8.35091V13.2813C21.6164 13.5479 21.7312 13.758 21.9588 13.9156C22.1884 14.0712 22.4686 14.151 22.7994 14.151V14.3242H18.5111V14.151C18.8418 14.151 19.122 14.0635 19.3516 13.8903C19.5812 13.7171 19.6941 13.4798 19.6941 13.1782V7.27689C19.6941 6.53558 19.5403 5.96549 19.231 5.56663C18.9216 5.16776 18.4819 4.96736 17.9099 4.96736C17.5324 4.96736 17.1724 5.07437 16.8281 5.28839C16.4856 5.50242 16.1821 5.79816 15.9194 6.17368C15.6568 6.5492 15.4466 6.98309 15.2929 7.47535C15.1392 7.96761 15.0614 8.491 15.0614 9.04552V13.1762C15.0614 13.4778 15.1762 13.7152 15.4038 13.8883C15.6334 14.0615 15.9136 14.1491 16.2443 14.1491V14.3222H11.956V14.1491C12.2888 14.1491 12.567 14.0673 12.7966 13.9059C13.0262 13.7444 13.139 13.5303 13.139 13.2638V2.06633C13.139 1.81145 13.0359 1.61493 12.8297 1.47679C12.6234 1.33864 12.3316 1.2686 11.9541 1.2686V1.09543C12.4464 0.980635 12.9347 0.826926 13.4212 0.636248C13.9076 0.445571 14.3512 0.23349 14.7501 0.00195312L15.0594 0.17512V6.44219L15.0633 6.44024Z" fill="#FAF5EB"/>
<path d="M25.1495 9.51248C25.241 10.2071 25.385 10.8375 25.5795 11.4037C25.7741 11.9718 26.0115 12.4563 26.2917 12.861C26.5718 13.2657 26.887 13.579 27.2353 13.7988C27.5836 14.0187 27.9533 14.1277 28.3424 14.1277C28.6401 14.1277 28.9397 14.0751 29.2433 13.972C29.5468 13.8689 29.8348 13.721 30.1091 13.5303C30.3834 13.3397 30.6403 13.1081 30.8815 12.8357C31.1228 12.5633 31.3154 12.254 31.4652 11.9076L31.619 11.9952C31.2765 12.8163 30.7667 13.4389 30.0916 13.8611C29.4164 14.2833 28.644 14.4954 27.7762 14.4954C27.0777 14.4954 26.4493 14.3631 25.8889 14.0965C25.3285 13.83 24.8538 13.4681 24.4647 13.0108C24.0755 12.5536 23.7778 12.0185 23.5735 11.4056C23.3673 10.7927 23.2642 10.139 23.2642 9.44438C23.2642 8.74977 23.3692 8.08823 23.5813 7.49091C23.7934 6.89552 24.0872 6.38381 24.4647 5.95381C24.8421 5.52576 25.2916 5.19305 25.8111 4.95567C26.3325 4.7183 26.9007 4.59961 27.5174 4.59961C28.1342 4.59961 28.7354 4.71246 29.251 4.93816C29.7647 5.16386 30.2025 5.49074 30.5644 5.91879C30.9243 6.34684 31.2026 6.86245 31.3971 7.46367C31.5917 8.06488 31.689 8.74198 31.689 9.49497L25.1515 9.51248H25.1495ZM29.7141 9.14669C29.6344 8.52212 29.5079 7.95593 29.3367 7.44616C29.1654 6.93638 28.9592 6.49666 28.7179 6.12698C28.4786 5.7573 28.2121 5.47128 27.9202 5.26698C27.6283 5.06463 27.3229 4.96345 27.0018 4.96345C26.6808 4.96345 26.3928 5.07047 26.136 5.28449C25.8792 5.49852 25.6651 5.79037 25.492 6.16005C25.3208 6.52973 25.2001 6.97335 25.132 7.48896C25.0639 8.00457 25.0523 8.55714 25.097 9.14669H29.7122H29.7141Z" fill="#FAF5EB"/>
<path d="M0.034668 27.2005C0.034668 26.2063 0.188378 25.2977 0.497742 24.4746C0.807107 23.6535 1.24294 22.9492 1.80914 22.3655C2.37533 21.7818 3.05243 21.3265 3.84238 21.0035C4.63234 20.6805 5.50011 20.5171 6.44961 20.5171C7.06639 20.5171 7.68512 20.5988 8.30191 20.7603C8.91869 20.9218 9.46738 21.1533 9.94796 21.4549H10.2573L10.7554 24.6497H10.5842C10.1503 23.3889 9.53158 22.4453 8.73191 21.8207C7.93028 21.1961 7.02748 20.8829 6.02156 20.8829C5.4145 20.8829 4.86971 21.0113 4.38329 21.2642C3.89686 21.5191 3.48438 21.881 3.14777 22.3499C2.81117 22.8188 2.55045 23.385 2.36755 24.0505C2.18466 24.7159 2.09321 25.4591 2.09321 26.2802C2.09321 27.2764 2.22746 28.2123 2.49597 29.0918C2.76447 29.9712 3.13415 30.7378 3.60307 31.3916C4.07198 32.0453 4.61677 32.5629 5.24134 32.9442C5.86396 33.3256 6.53133 33.5162 7.23956 33.5162C7.5139 33.5162 7.77463 33.4812 8.01978 33.4112C8.26494 33.3411 8.4848 33.2439 8.67937 33.1154V28.2026C8.67937 27.9477 8.55874 27.7453 8.31942 27.5955C8.0801 27.4457 7.77073 27.3698 7.39327 27.3698V27.1966H12.026V27.3698C11.6485 27.3698 11.3391 27.4457 11.0998 27.5955C10.8605 27.7453 10.7399 27.9418 10.7399 28.1851V32.055C10.1114 32.6679 9.46932 33.1252 8.81752 33.4267C8.16571 33.7283 7.47888 33.8781 6.75898 33.8781C5.75305 33.8781 4.83469 33.7225 4.00582 33.4092C3.17696 33.096 2.46678 32.6485 1.87918 32.0648C1.28964 31.4811 0.834347 30.7767 0.515254 29.9556C0.194215 29.1346 0.034668 28.2142 0.034668 27.1966V27.2005Z" fill="#FAF5EB"/>
<path d="M12.3008 28.9362C12.3008 28.2182 12.4175 27.5586 12.653 26.9574C12.8864 26.3562 13.2133 25.8347 13.6316 25.395C14.048 24.9553 14.5461 24.6109 15.124 24.3619C15.7018 24.1128 16.3284 23.9883 17.0016 23.9883C17.6748 23.9883 18.3032 24.1128 18.8792 24.3619C19.457 24.6109 19.9551 24.9553 20.3715 25.395C20.7879 25.8347 21.1148 26.3562 21.3502 26.9574C21.5856 27.5586 21.7024 28.2182 21.7024 28.9362C21.7024 29.6541 21.5856 30.2982 21.3502 30.9052C21.1148 31.5123 20.7898 32.0357 20.3715 32.4754C19.9532 32.9151 19.457 33.2595 18.8792 33.5085C18.3013 33.7576 17.6748 33.8821 17.0016 33.8821C16.3284 33.8821 15.6999 33.7576 15.124 33.5085C14.5461 33.2595 14.048 32.9151 13.6316 32.4754C13.2133 32.0357 12.8884 31.5123 12.653 30.9052C12.4175 30.2982 12.3008 29.6405 12.3008 28.9362ZM14.3593 27.7551C14.3593 28.5081 14.4449 29.23 14.6162 29.9246C14.7874 30.6192 15.0189 31.236 15.3108 31.773C15.6026 32.3119 15.9373 32.74 16.3147 33.0571C16.6922 33.3762 17.0872 33.5338 17.4977 33.5338C17.7954 33.5338 18.0756 33.4521 18.3383 33.2906C18.6009 33.1291 18.8305 32.9034 19.0251 32.6135C19.2197 32.3236 19.3714 31.9831 19.4804 31.5901C19.5893 31.1971 19.6438 30.7749 19.6438 30.3235C19.6438 29.514 19.5602 28.7474 19.3948 28.0236C19.2294 27.2998 19.0017 26.6636 18.7177 26.1149C18.4317 25.5662 18.1009 25.1323 17.7234 24.8133C17.346 24.4961 16.9451 24.3366 16.5229 24.3366C16.2136 24.3366 15.9256 24.4202 15.6571 24.5876C15.3886 24.7549 15.159 24.9923 14.9703 25.2997C14.7815 25.6071 14.6337 25.967 14.5247 26.3854C14.4157 26.8017 14.3613 27.259 14.3613 27.7571L14.3593 27.7551Z" fill="#FAF5EB"/>
<path d="M23.3651 21.455C23.3651 21.2001 23.26 21.0036 23.048 20.8655C22.8359 20.7273 22.5479 20.6573 22.1821 20.6573V20.4841C22.6744 20.3693 23.1628 20.2156 23.6492 20.0249C24.1356 19.8342 24.5792 19.6222 24.9781 19.3906L25.2875 19.5638V32.67C25.2875 32.9365 25.4022 33.1467 25.6299 33.3043C25.8575 33.4619 26.1397 33.5377 26.4704 33.5377V33.7109H22.1821V33.5377C22.5129 33.5377 22.7931 33.4599 23.0227 33.3043C23.2523 33.1486 23.3651 32.9365 23.3651 32.67V21.4569V21.455Z" fill="#FAF5EB"/>
<path d="M37.1432 33.205C36.4914 33.24 35.9447 33.312 35.5049 33.4229C35.0652 33.5338 34.678 33.6856 34.3473 33.8821L34.0379 33.709V32.3372C33.6955 32.8353 33.2946 33.2167 32.8374 33.4833C32.3802 33.7498 31.8471 33.8821 31.2419 33.8821C30.6368 33.8821 30.0784 33.7576 29.5686 33.5085C29.0589 33.2595 28.6211 32.9093 28.2553 32.4579C27.8895 32.0065 27.6035 31.4714 27.3973 30.8527C27.191 30.234 27.0879 29.553 27.0879 28.8136C27.0879 28.0742 27.1852 27.4594 27.3797 26.8699C27.5743 26.2803 27.8487 25.7705 28.2028 25.3425C28.5569 24.9144 28.983 24.5817 29.4811 24.3443C29.9792 24.107 30.524 23.9883 31.1194 23.9883C31.7712 23.9883 32.3413 24.142 32.8257 24.4475C33.3122 24.7549 33.7149 25.179 34.0359 25.7238V21.453C34.0359 21.1982 33.9309 21.0016 33.7188 20.8635C33.5067 20.7254 33.2188 20.6553 32.853 20.6553V20.4821C33.3452 20.3674 33.8317 20.2136 34.3103 20.023C34.7909 19.8323 35.2306 19.6202 35.6314 19.3887L35.9563 19.5618V32.2322C35.9563 32.4871 36.0595 32.6836 36.2657 32.8217C36.472 32.9599 36.7638 33.0299 37.1413 33.0299V33.2031L37.1432 33.205ZM29.1484 27.7902C29.1484 28.5762 29.2223 29.3117 29.3721 29.9946C29.52 30.6776 29.7243 31.273 29.9811 31.7827C30.238 32.2925 30.5357 32.6933 30.8742 32.989C31.2108 33.2848 31.5747 33.4307 31.9638 33.4307C32.2946 33.4307 32.5864 33.3257 32.8394 33.1175C33.0903 32.9093 33.3083 32.6291 33.4912 32.275C33.6741 31.9228 33.8122 31.5142 33.9036 31.0511C33.9951 30.5881 34.0418 30.1016 34.0418 29.5938C34.0418 28.7844 33.9679 28.0548 33.818 27.4069C33.6702 26.7589 33.4659 26.2083 33.209 25.7589C32.9522 25.3075 32.6448 24.9611 32.2907 24.7179C31.9366 24.4747 31.5533 24.3541 31.1408 24.3541C30.8431 24.3541 30.5707 24.4377 30.3255 24.6051C30.0804 24.7724 29.8702 25.0078 29.699 25.3075C29.5278 25.609 29.3935 25.9709 29.2963 26.3932C29.199 26.8154 29.1503 27.2823 29.1503 27.7902H29.1484Z" fill="#FAF5EB"/>
<path d="M39.6471 28.9011C39.7385 29.5958 39.8806 30.2262 40.0751 30.7924C40.2697 31.3605 40.5071 31.845 40.7873 32.2497C41.0674 32.6544 41.3807 32.9676 41.7309 33.1875C42.0792 33.4074 42.4489 33.5183 42.838 33.5183C43.1357 33.5183 43.4353 33.4657 43.7389 33.3626C44.0424 33.2576 44.3304 33.1116 44.6047 32.919C44.879 32.7283 45.1359 32.4968 45.3771 32.2244C45.6165 31.952 45.811 31.6426 45.9608 31.2963L46.1146 31.3839C45.7721 32.2049 45.2623 32.8276 44.5872 33.2498C43.912 33.672 43.1396 33.8841 42.2718 33.8841C41.5733 33.8841 40.9449 33.7518 40.3845 33.4852C39.8241 33.2186 39.3494 32.8567 38.9603 32.3995C38.5711 31.9423 38.2734 31.4072 38.0672 30.7943C37.8609 30.1814 37.7578 29.5277 37.7578 28.8331C37.7578 28.1384 37.8629 27.4769 38.075 26.8796C38.287 26.2842 38.5808 25.7725 38.9583 25.3425C39.3358 24.9144 39.7852 24.5817 40.3047 24.3443C40.8242 24.107 41.3943 23.9883 42.0111 23.9883C42.6279 23.9883 43.2291 24.1011 43.7428 24.3268C44.2584 24.5525 44.6942 24.8794 45.0561 25.3075C45.418 25.7355 45.6943 26.2511 45.8889 26.8523C46.0834 27.4536 46.1807 28.1307 46.1807 28.8836L39.6451 28.9011H39.6471ZM44.2097 28.5373C44.13 27.9127 44.0035 27.3465 43.8323 26.8368C43.661 26.327 43.4548 25.8873 43.2155 25.5176C42.9762 25.1479 42.7096 24.86 42.4177 24.6576C42.1259 24.4552 41.8204 24.3541 41.4994 24.3541C41.1783 24.3541 40.8904 24.4611 40.6335 24.6751C40.3767 24.8891 40.1607 25.181 39.9895 25.5526C39.8183 25.9223 39.6977 26.3659 39.6296 26.8796C39.5615 27.3952 39.5498 27.9478 39.5945 28.5373H44.2097Z" fill="#FAF5EB"/>
<path d="M48.1732 26.0546C48.1732 25.7997 48.0701 25.6032 47.8638 25.4651C47.6576 25.3269 47.3657 25.2569 46.9883 25.2569V25.0837C47.4805 24.9689 47.9689 24.8152 48.4553 24.6245C48.9418 24.4339 49.3854 24.2218 49.7842 23.9902L50.0936 24.1634V25.8289C50.4477 25.2627 50.8991 24.8133 51.4478 24.4844C51.9965 24.1556 52.6327 23.9902 53.3526 23.9902C54.3702 23.9902 55.1738 24.3113 55.7633 24.9534C56.3529 25.5954 56.6467 26.5235 56.6467 27.7396V32.67C56.6467 32.9365 56.7615 33.1467 56.9891 33.3043C57.2168 33.4619 57.4989 33.5377 57.8297 33.5377V33.7109H53.5414V33.5377C53.8741 33.5377 54.1523 33.4502 54.3819 33.277C54.6115 33.1038 54.7243 32.8665 54.7243 32.5649V26.6636C54.7243 25.9223 54.5706 25.3522 54.2613 24.9534C53.9519 24.5545 53.5122 24.3541 52.9401 24.3541C52.5627 24.3541 52.2027 24.4611 51.8603 24.6751C51.5179 24.8891 51.2143 25.1849 50.9517 25.5604C50.689 25.9359 50.4808 26.3698 50.3251 26.8621C50.1714 27.3543 50.0936 27.8777 50.0936 28.4322V32.5629C50.0936 32.8645 50.2084 33.1019 50.436 33.2751C50.6656 33.4482 50.9458 33.5358 51.2766 33.5358V33.709H46.9883V33.5358C47.319 33.5358 47.5992 33.4541 47.8288 33.2926C48.0584 33.1311 48.1713 32.9171 48.1713 32.6505V26.0546H48.1732Z" fill="#FAF5EB"/>
<path d="M0.342285 40.0791H4.76873V40.2523C4.39127 40.2523 4.09941 40.334 3.89317 40.4955C3.68693 40.657 3.58381 40.8885 3.58381 41.1901V52.7339H7.34094C7.90129 52.7339 8.39939 52.5296 8.83328 52.1171C9.26717 51.7065 9.66798 51.0956 10.0338 50.2862H10.205L9.75943 53.0977H0.342285V52.9246C0.731423 52.9246 1.02522 52.8467 1.22563 52.6911C1.42603 52.5354 1.52527 52.3233 1.52527 52.0568V41.122C1.52527 40.8438 1.4202 40.6297 1.20812 40.4799C0.996037 40.3301 0.708075 40.2542 0.342285 40.2542V40.081V40.0791Z" fill="#FAF5EB"/>
<path d="M12.6271 48.2898C12.7185 48.9844 12.8625 49.6148 13.0571 50.181C13.2516 50.7492 13.489 51.2336 13.7692 51.6384C14.0494 52.0431 14.3646 52.3563 14.7129 52.5762C15.0611 52.796 15.4308 52.9069 15.82 52.9069C16.1176 52.9069 16.4173 52.8544 16.7208 52.7513C17.0243 52.6482 17.3123 52.5003 17.5866 52.3077C17.861 52.117 18.1178 51.8855 18.3591 51.6131C18.5984 51.3407 18.793 51.0313 18.9428 50.685L19.0965 50.7725C18.7541 51.5936 18.2443 52.2162 17.5691 52.6384C16.894 53.0607 16.1215 53.2727 15.2538 53.2727C14.5553 53.2727 13.9268 53.1404 13.3664 52.8739C12.8061 52.6073 12.3313 52.2454 11.9422 51.7882C11.5531 51.3309 11.2554 50.7959 11.0511 50.183C10.8448 49.5701 10.7417 48.9163 10.7417 48.2217C10.7417 47.5271 10.8468 46.8656 11.0588 46.2682C11.2709 45.6729 11.5647 45.1611 11.9422 44.7312C12.3197 44.3031 12.7691 43.9704 13.2886 43.733C13.8081 43.4956 14.3782 43.377 14.995 43.377C15.6118 43.377 16.213 43.4898 16.7286 43.7155C17.2423 43.9412 17.68 44.2681 18.0419 44.6961C18.4038 45.1242 18.6801 45.6398 18.8747 46.241C19.0693 46.8422 19.1665 47.5193 19.1665 48.2723L12.629 48.2898H12.6271ZM17.1897 47.926C17.1099 47.3014 16.9835 46.7352 16.8123 46.2254C16.641 45.7157 16.4348 45.2759 16.1935 44.9063C15.9542 44.5366 15.6876 44.2486 15.3958 44.0463C15.1039 43.8439 14.7985 43.7427 14.4774 43.7427C14.1564 43.7427 13.8684 43.8498 13.6116 44.0638C13.3548 44.2778 13.1407 44.5697 12.9676 44.9413C12.7963 45.311 12.6757 45.7546 12.6076 46.2682C12.5395 46.7839 12.5278 47.3364 12.5726 47.926H17.1878H17.1897Z" fill="#FAF5EB"/>
<path d="M27.9123 51.7959C27.9123 52.1325 27.9629 52.3719 28.066 52.5158C28.1691 52.6618 28.2995 52.7338 28.461 52.7338C28.5524 52.7338 28.6516 52.7104 28.7606 52.6637C28.8696 52.617 28.9805 52.5587 29.0952 52.4906V52.6637C28.8326 52.8836 28.5855 53.0392 28.3578 53.1326C28.1282 53.226 27.8831 53.2708 27.6204 53.2708C27.2196 53.2708 26.8772 53.1579 26.5911 52.9322C26.3051 52.7065 26.1164 52.4088 26.0249 52.0392C25.7273 52.4322 25.3206 52.7357 24.8069 52.9497C24.2933 53.1638 23.7271 53.2708 23.1084 53.2708C22.6842 53.2708 22.2931 53.2182 21.9332 53.1151C21.5732 53.01 21.2619 52.8583 20.9992 52.6559C20.7366 52.4536 20.5303 52.2045 20.3824 51.9088C20.2326 51.613 20.1587 51.2745 20.1587 50.8931C20.1587 50.3386 20.2735 49.8931 20.5011 49.5565C20.7307 49.2218 21.0206 48.9494 21.3767 48.7412C21.7328 48.533 22.1297 48.3676 22.5694 48.247C23.0091 48.1264 23.4469 48.0018 23.8808 47.8734C24.3147 47.747 24.7213 47.5952 25.0988 47.422C25.4763 47.2489 25.774 47.0057 25.9899 46.6924C26.0133 45.6748 25.8693 44.9277 25.5619 44.4529C25.2525 43.9782 24.7661 43.7408 24.1026 43.7408C23.7932 43.7408 23.5131 43.7875 23.2621 43.8789C23.0111 43.9723 22.799 44.0988 22.6278 44.2603C22.4566 44.4218 22.3359 44.6105 22.2678 44.8245C22.1997 45.0386 22.1939 45.274 22.2503 45.5269C22.3301 45.8733 22.2873 46.1768 22.1219 46.4375C21.9565 46.6982 21.7016 46.8286 21.3592 46.8286C21.0965 46.8286 20.8903 46.7469 20.7424 46.5854C20.5926 46.4239 20.5186 46.1924 20.5186 45.8908C20.5186 45.5444 20.6159 45.2176 20.8105 44.9101C21.0051 44.6027 21.2736 44.3381 21.616 44.1124C21.9585 43.8867 22.3593 43.7077 22.8165 43.5735C23.2737 43.4411 23.7602 43.373 24.2758 43.373C24.8245 43.373 25.3226 43.4489 25.7681 43.5987C26.2137 43.7486 26.597 43.9665 26.918 44.2506C27.2371 44.5346 27.4842 44.8751 27.6554 45.274C27.8267 45.6729 27.9123 46.1165 27.9123 46.6029V51.7921V51.7959ZM22.2172 50.8581C22.2172 51.4944 22.3573 51.9944 22.6375 52.3602C22.9177 52.724 23.3146 52.9069 23.8302 52.9069C24.1279 52.9069 24.4022 52.8466 24.6532 52.724C24.9042 52.6034 25.1241 52.4341 25.3128 52.2201C25.5016 52.0061 25.6553 51.7492 25.7759 51.4477C25.8965 51.1461 25.9666 50.8173 25.9899 50.4593V47.0738C25.8304 47.2936 25.6241 47.4785 25.3731 47.6283C25.1221 47.7781 24.8556 47.9201 24.5754 48.0544C24.2952 48.1867 24.0151 48.3229 23.7349 48.463C23.4547 48.6011 23.2037 48.7723 22.9799 48.9747C22.7562 49.177 22.5733 49.428 22.4313 49.7296C22.2873 50.0312 22.2172 50.4067 22.2172 50.8581Z" fill="#FAF5EB"/>
<path d="M33.0939 41.6941V43.9161H35.4793V44.1068H33.0939V51.4848C33.0939 52.3526 33.5745 52.9091 34.3294 52.9091H34.3644V53.0997H30.1948V52.9091H30.2298C30.9673 52.9091 31.4654 52.3526 31.4654 51.4848V44.1068H29.6812V43.9161H31.4654V41.6941C31.4654 40.2874 32.8371 39.334 34.417 39.334C35.7381 39.334 36.4074 40.0111 37.316 40.0111C37.8141 40.0111 38.0535 39.8204 38.0535 39.5247H38.2422C38.2422 40.6006 37.7266 41.3303 36.9386 41.3303C35.6856 41.3303 35.8412 39.5247 34.5707 39.5247C33.6951 39.5247 33.0958 40.3749 33.0958 41.6941H33.0939Z" fill="#FAF5EB"/>
<path d="M40.9521 15.7895C41.6682 14.0734 43.034 12.7114 44.4777 11.5401C44.8941 11.2015 45.3222 10.8727 45.7872 10.6042C47.0052 9.89793 48.4392 9.62359 49.8478 9.62748C50.3771 9.62748 50.9082 9.66834 51.42 9.7987C53.0388 10.2112 54.286 11.4681 55.4456 12.6705C54.4942 12.5363 53.5427 12.402 52.5854 12.3378C51.8169 12.2872 51.0308 12.2833 50.2934 12.5071C49.4859 12.7523 48.766 13.264 47.9372 13.4157C47.2484 13.5422 46.5421 13.4099 45.8553 13.2776C45.007 13.1142 44.1606 12.9527 43.3123 12.7892" fill="#FAF5EB"/>
<path d="M41.0128 15.8496C41.0672 15.7893 41.1237 15.7309 41.182 15.6745L41.1061 15.7193C41.1879 15.692 41.2209 15.6453 41.2599 15.5753C41.2832 15.5344 41.3066 15.4936 41.3299 15.4547C41.3766 15.3749 41.4252 15.2951 41.4758 15.2153C41.5264 15.1356 41.577 15.0577 41.6295 14.9819C41.6412 14.9663 41.6529 14.9488 41.6646 14.9332C41.6723 14.9215 41.6801 14.9118 41.6879 14.9001C41.6899 14.8962 41.7093 14.869 41.6918 14.8924C41.6665 14.9313 41.7268 14.8457 41.7229 14.8515C41.7307 14.8398 41.7366 14.8281 41.7443 14.8184C41.758 14.7951 41.7735 14.7737 41.7891 14.7523C41.8903 14.5986 41.9973 14.4487 42.1082 14.3028C42.1218 14.2834 42.1374 14.2658 42.151 14.2464C42.1802 14.2094 42.1237 14.2795 42.1646 14.2289C42.1938 14.1919 42.223 14.1549 42.2522 14.1199C42.3105 14.0479 42.3708 13.974 42.4312 13.9039C42.9176 13.3319 43.4643 12.8085 44.0344 12.3202C44.3263 12.0711 44.622 11.824 44.9236 11.5866C44.945 11.5711 44.9645 11.5535 44.9859 11.538C44.9956 11.5302 45.0034 11.5244 45.0131 11.5166C45.0481 11.4893 44.9703 11.5497 45.0053 11.5224C45.0481 11.4913 45.089 11.4582 45.1318 11.4271C45.2174 11.3629 45.303 11.3006 45.3886 11.2403C45.5618 11.1177 45.7388 11.0029 45.9217 10.8959C46.091 10.7967 46.2642 10.7072 46.4432 10.6235C46.4879 10.6021 46.5327 10.5826 46.5794 10.5612C46.5988 10.5535 46.6183 10.5437 46.6377 10.536C46.6883 10.5146 46.63 10.5398 46.6222 10.5418C46.6358 10.5379 46.6475 10.5301 46.6611 10.5262C46.7525 10.4893 46.8459 10.4523 46.9393 10.4192C47.311 10.285 47.6923 10.1818 48.0795 10.106C48.1768 10.0865 48.276 10.069 48.3733 10.0534C48.4219 10.0456 48.4725 10.0379 48.5212 10.0301C48.5328 10.0301 48.6029 10.0184 48.5543 10.0262C48.5056 10.034 48.5543 10.0262 48.5659 10.0262C48.5795 10.0262 48.5951 10.0223 48.6087 10.0203C48.8072 9.99505 49.0056 9.98143 49.2061 9.97365C49.6166 9.95614 50.031 9.96003 50.4416 9.997C50.5505 10.0067 50.6575 10.0184 50.7665 10.032L50.6731 10.0203C51.1381 10.0826 51.5876 10.2071 52.0195 10.3881L51.932 10.3511C52.4398 10.5671 52.9048 10.8589 53.3426 11.1917C53.399 11.2345 53.2862 11.1469 53.3231 11.1761C53.3368 11.1858 53.3484 11.1955 53.3621 11.2072C53.3873 11.2286 53.4146 11.2481 53.4399 11.2695C53.4963 11.3142 53.5527 11.3609 53.6092 11.4076C53.7162 11.4971 53.8212 11.5886 53.9263 11.6839C54.1345 11.8726 54.3388 12.0672 54.5372 12.2637C54.7591 12.4836 54.977 12.7093 55.1949 12.935L55.549 12.326C54.5898 12.1898 53.6306 12.0536 52.6636 11.9855C51.7569 11.9213 50.819 11.9252 49.9571 12.2462C49.4979 12.4174 49.064 12.647 48.6146 12.8377L48.7002 12.8007C48.3811 12.935 48.0523 13.0459 47.7098 13.0926L47.8052 13.079C47.4316 13.1276 47.0541 13.1062 46.6805 13.0576L46.7778 13.0712C46.3401 13.0128 45.9081 12.9194 45.4742 12.8358C45.0403 12.7521 44.6026 12.6665 44.1667 12.5828C43.9177 12.5342 43.6686 12.4855 43.4176 12.4388C43.3184 12.4194 43.2231 12.4233 43.1355 12.4758C43.0596 12.5206 42.9857 12.6081 42.9662 12.6957C42.9254 12.8766 43.0207 13.1082 43.2231 13.1471C44.1297 13.3202 45.0345 13.4953 45.9412 13.6646C46.4082 13.7522 46.8848 13.8339 47.3615 13.832C47.811 13.832 48.2507 13.7444 48.671 13.5868C49.1166 13.4195 49.5388 13.1996 49.9746 13.0128L49.887 13.0498C50.2742 12.8863 50.6712 12.7716 51.0875 12.7151L50.9903 12.7287C51.4417 12.6704 51.8969 12.6704 52.3503 12.6937C52.8036 12.7171 53.292 12.7638 53.7609 12.8163C54.0314 12.8474 54.3018 12.8825 54.5703 12.9175L54.473 12.9039C54.7668 12.9428 55.0587 12.9856 55.3525 13.0264C55.4362 13.0381 55.5081 13.042 55.5899 13.0089C55.6599 12.9797 55.728 12.9292 55.765 12.8591C55.8428 12.7132 55.8234 12.5381 55.7086 12.4174C54.9069 11.5847 54.082 10.748 53.0935 10.1351C52.5955 9.82578 52.0487 9.57673 51.4767 9.44637C50.821 9.29655 50.14 9.27709 49.4707 9.31017C48.2157 9.37438 46.9588 9.63121 45.842 10.2246C45.2563 10.536 44.731 10.9445 44.2193 11.3648C43.7756 11.7287 43.3476 12.11 42.9429 12.5167C42.5382 12.9233 42.1374 13.3825 41.7852 13.8592C41.6179 14.0868 41.4603 14.3223 41.3124 14.5655C41.2365 14.69 41.1762 14.8262 41.1139 14.9585C41.0517 15.0908 40.9894 15.2348 40.933 15.3749C40.9271 15.3905 40.9213 15.406 40.9135 15.4216C40.9116 15.4274 40.896 15.4663 40.9057 15.441L40.8863 15.4858C40.8766 15.5189 40.8766 15.5519 40.8863 15.587C40.8863 15.5772 40.8863 15.5578 40.8824 15.5909C40.8746 15.657 40.8727 15.7271 40.8707 15.7932C40.8668 15.8652 40.9661 15.9061 41.0147 15.8535L41.0128 15.8496Z" fill="#FAF5EB"/>
<path d="M40.9764 15.4759C41.8072 14.1587 42.6458 12.8298 43.1789 11.3666C43.3151 10.993 43.4318 10.6078 43.4532 10.2109C43.4805 9.69722 43.3871 9.30419 43.2625 8.86641C42.8578 7.43049 42.6555 6.71058 42.2605 6.12104C41.7838 5.41086 41.313 5.13652 40.6962 4.64232C39.8868 3.9944 38.805 2.94762 37.7485 1.25098C38.0598 2.3036 37.1686 3.42626 37.4566 4.48666C37.7485 5.56846 39.0813 6.00235 39.665 6.95769C39.9588 7.43633 40.0502 8.02587 40.3868 8.47533C40.8304 9.06682 41.6204 9.30614 42.0932 9.87428C42.4959 10.3568 42.6166 11.0125 42.6691 11.641C42.708 12.106 42.7178 12.571 42.6983 13.038" fill="#FAF5EB"/>
<path d="M41.0247 15.5245C41.0656 15.4934 41.1045 15.4603 41.1453 15.4292C41.194 15.3903 41.2407 15.365 41.2776 15.3144C41.3496 15.219 41.4314 15.1295 41.4995 15.0303C41.624 14.8474 41.7505 14.6665 41.873 14.4836C41.9956 14.3007 42.1201 14.1178 42.233 13.929C42.3458 13.7403 42.4587 13.5438 42.5696 13.3492C42.7894 12.9659 42.9976 12.5748 43.1786 12.1721C43.3673 11.746 43.5463 11.3101 43.6689 10.8587C43.809 10.3392 43.8187 9.80806 43.7351 9.27689L43.7487 9.37223C43.7234 9.15625 43.6631 8.94417 43.6066 8.73404C43.5502 8.52391 43.4977 8.33323 43.4413 8.13282C43.3498 7.80984 43.2545 7.4888 43.1475 7.1697C42.9723 6.65021 42.7564 6.15016 42.4217 5.71238C42.198 5.42053 41.947 5.16175 41.6609 4.92827C41.5111 4.80569 41.3574 4.68895 41.2037 4.57221C41.1726 4.54691 41.1395 4.52357 41.1084 4.49827C41.0772 4.47298 41.1492 4.5294 41.1453 4.52746C41.1356 4.51967 41.1259 4.51189 41.1142 4.50411C41.0928 4.48854 41.0734 4.47298 41.0539 4.45547C40.9955 4.41072 40.9391 4.36402 40.8807 4.31732C40.4313 3.95153 40.011 3.55072 39.6199 3.12461C39.3748 2.85805 39.1432 2.58177 38.9195 2.29575C38.8689 2.23154 38.9584 2.34634 38.9195 2.29575C38.9078 2.28018 38.8942 2.26267 38.8825 2.24711C38.8514 2.2043 38.8183 2.16344 38.7872 2.12064C38.7268 2.03892 38.6685 1.95915 38.6101 1.87548C38.4856 1.70037 38.365 1.52331 38.2463 1.34236C38.1859 1.24897 38.1256 1.15558 38.0673 1.06218C37.97 0.906527 37.7793 0.840373 37.61 0.912364C37.4407 0.984354 37.3474 1.16725 37.3979 1.34431C37.4193 1.42019 37.4369 1.49802 37.4485 1.57779L37.4349 1.48051C37.4602 1.67313 37.4544 1.8677 37.4291 2.06227L37.4427 1.96498C37.3162 2.87751 36.8045 3.80366 37.1547 4.72981C37.3065 5.13062 37.5672 5.46333 37.8805 5.75324C38.1665 6.01786 38.4817 6.2455 38.7755 6.50233C38.937 6.64242 39.0907 6.79224 39.2269 6.95762C39.2347 6.96735 39.2444 6.97903 39.2522 6.98876C39.293 7.03934 39.2347 6.95957 39.2288 6.95957C39.2405 6.96152 39.2678 7.0121 39.2755 7.02378C39.3086 7.07048 39.3397 7.11912 39.3689 7.16776C39.439 7.28645 39.4973 7.41097 39.5499 7.53549L39.5129 7.44794C39.6316 7.73006 39.7269 8.02192 39.8612 8.29821C39.9877 8.56087 40.1608 8.80019 40.3748 8.99671C40.5889 9.19322 40.8146 9.34304 41.0481 9.49675C41.157 9.56874 41.2679 9.64073 41.3749 9.71661C41.4255 9.75164 41.4742 9.78666 41.5228 9.82363C41.5598 9.85281 41.4469 9.76331 41.4995 9.80612C41.5111 9.81584 41.5228 9.82557 41.5345 9.8353C41.5617 9.85865 41.5909 9.882 41.6181 9.90535C41.6707 9.95204 41.7193 9.99874 41.768 10.0493C41.7933 10.0766 41.8166 10.1038 41.84 10.131C41.8575 10.1505 41.8925 10.2089 41.8322 10.1194C41.8438 10.1349 41.8555 10.1505 41.8672 10.1661C41.9586 10.2945 42.0326 10.4326 42.0948 10.5786L42.0579 10.491C42.1785 10.7809 42.2447 11.0883 42.2875 11.3977L42.2738 11.3004C42.3108 11.5767 42.3303 11.8549 42.34 12.1312C42.3458 12.2791 42.3478 12.4289 42.3478 12.5768C42.3478 12.7247 42.3536 12.8823 42.3478 13.034C42.34 13.2189 42.5171 13.3959 42.7019 13.3881C42.9004 13.3784 43.0482 13.2325 43.056 13.034C43.0618 12.9134 43.0755 12.7928 43.0755 12.6721C43.0755 12.5515 43.0755 12.4309 43.0735 12.3102C43.0677 12.0728 43.056 11.8335 43.0346 11.5962C42.9976 11.1739 42.9393 10.7439 42.7836 10.349C42.7019 10.1427 42.6066 9.94231 42.4742 9.76331C42.3497 9.59598 42.2135 9.44616 42.052 9.3158C41.7485 9.06675 41.41 8.87218 41.0928 8.64259C41.0734 8.62897 41.0539 8.61341 41.0344 8.59979C40.9877 8.56477 41.0228 8.59006 41.0344 8.59979C41.087 8.64065 41.0364 8.59979 41.0286 8.59395C40.9916 8.56476 40.9547 8.53363 40.9177 8.50056C40.8418 8.43246 40.7698 8.36047 40.7037 8.28264C40.6959 8.27291 40.6881 8.26318 40.6803 8.2554C40.6472 8.21649 40.6998 8.28459 40.7037 8.28653C40.6881 8.28069 40.6609 8.22621 40.6511 8.2126C40.62 8.1659 40.5908 8.11726 40.5636 8.06861C40.5091 7.96938 40.4605 7.86626 40.4157 7.76314L40.4527 7.8507C40.3126 7.51993 40.2056 7.17165 40.0324 6.85645C39.8923 6.60156 39.6997 6.37197 39.4915 6.16962C39.1121 5.80188 38.6685 5.50809 38.293 5.1384C38.2404 5.08782 38.1918 5.03528 38.1431 4.9808C38.1198 4.95356 38.0964 4.92632 38.0731 4.89908C38.0634 4.88741 38.0536 4.87574 38.0439 4.86406C38.1256 4.96329 38.0731 4.90103 38.0556 4.87768C37.9719 4.76289 37.8999 4.63836 37.8435 4.508L37.8805 4.59556C37.824 4.45936 37.7871 4.31927 37.7657 4.17334L37.7793 4.27063C37.7559 4.08189 37.7637 3.89316 37.7871 3.70638L37.7735 3.80366C37.8669 3.11878 38.1684 2.47281 38.1801 1.7743C38.184 1.56612 38.1587 1.35404 38.1003 1.15363L37.431 1.43575C38.0322 2.40082 38.7346 3.31335 39.546 4.11108C39.8281 4.38931 40.1258 4.65393 40.4352 4.90103C40.5597 5.00026 40.6862 5.09755 40.8126 5.19483C40.8613 5.2318 40.908 5.26877 40.9566 5.30573C40.9663 5.31352 40.9761 5.31935 40.9838 5.32714C41.0383 5.36994 40.9119 5.27071 40.9663 5.31352C40.9936 5.33492 41.0208 5.35632 41.0481 5.37772C41.2348 5.5256 41.4158 5.68125 41.5792 5.85442C41.6298 5.9089 41.6804 5.96338 41.7271 6.0198C41.7524 6.04899 41.7757 6.08012 41.801 6.1093C41.838 6.15405 41.7835 6.08596 41.7796 6.08206C41.7952 6.09958 41.8088 6.11903 41.8224 6.13849C41.8944 6.23577 41.9625 6.33695 42.0248 6.44007C42.1221 6.60351 42.2057 6.77473 42.2797 6.94984L42.2427 6.86229C42.3692 7.16581 42.4723 7.47907 42.5676 7.79427C42.698 8.22622 42.8245 8.66205 42.9471 9.09594C43.0132 9.33331 43.0735 9.57458 43.1085 9.81779L43.0969 9.72634C43.1241 9.92675 43.1299 10.1291 43.1144 10.3315C43.1124 10.3587 43.1105 10.384 43.1066 10.4112C43.1066 10.4229 43.1047 10.4346 43.1027 10.4443C43.0988 10.4813 43.1066 10.4151 43.1066 10.4151C43.1085 10.4677 43.0871 10.5338 43.0774 10.5844C43.058 10.6856 43.0327 10.7867 43.0054 10.886C42.9471 11.0864 42.879 11.2829 42.805 11.4794C42.77 11.5728 42.733 11.6662 42.6961 11.7596C42.6766 11.8082 42.6591 11.8569 42.6357 11.9036C42.6357 11.9036 42.6571 11.851 42.6435 11.8822C42.6396 11.8919 42.6357 11.9036 42.6299 11.9133C42.6182 11.9405 42.6066 11.9678 42.5949 11.995C42.5754 12.0398 42.556 12.0826 42.5365 12.1273C42.5248 12.1546 42.5132 12.1818 42.5015 12.209C42.5268 12.1468 42.5112 12.1857 42.5054 12.1993C42.4937 12.2266 42.482 12.2538 42.4684 12.281C42.4276 12.3725 42.3867 12.4639 42.3439 12.5554C42.2563 12.7402 42.1668 12.9251 42.0734 13.108C41.98 13.2908 41.8808 13.4699 41.7796 13.6489C41.6785 13.8279 41.5851 14.0108 41.4858 14.1898C41.3769 14.3902 41.266 14.5886 41.1531 14.7871C41.0967 14.8883 41.05 14.9953 40.9975 15.0984C40.9449 15.2015 40.9294 15.3299 40.9021 15.4506C40.8866 15.5206 40.9644 15.5576 41.015 15.5167L41.0247 15.5245Z" fill="#FAF5EB"/>
<path d="M47.9611 1.68519C47.8016 1.59569 47.5934 1.51981 47.4085 1.51981C47.1789 1.51981 46.9318 1.62488 46.7295 1.72216C46.3228 1.91868 46.0718 2.27863 45.9142 2.68917C45.745 3.1289 45.8539 3.61921 46.0407 4.0317C46.2003 4.38581 46.4921 4.68545 46.819 4.88974C47.5798 5.36644 48.5351 5.19133 49.1791 4.60762C49.8231 4.02391 49.934 3.125 49.6967 2.34089C49.5897 1.98677 49.4223 1.63071 49.2258 1.31551C48.9379 0.854383 48.5448 0.420494 47.9825 0.315426C47.5136 0.229816 47.0972 0.266784 46.6711 0.496376C46.3345 0.677325 46.0991 0.94583 45.8773 1.24741C45.7275 1.45366 45.6419 1.69881 45.5582 1.93813C45.5115 2.07239 45.4687 2.20858 45.4414 2.34867C45.35 2.80786 45.3033 3.31179 45.4706 3.76124C45.5913 4.08617 45.743 4.39359 46.0115 4.62708C46.3112 4.88975 46.5913 5.03178 46.9688 5.16409C47.3774 5.30612 47.8269 5.39952 48.2608 5.40146C48.3989 5.40146 48.5312 5.37811 48.6674 5.3606C48.7939 5.34309 48.9203 5.33142 49.0429 5.2925C49.2647 5.22051 49.504 5.12712 49.6986 4.98898C50.0138 4.76133 50.257 4.5473 50.4594 4.20875C50.6617 3.8702 50.7279 3.55695 50.7551 3.18143C50.794 2.63858 50.5722 2.06071 50.3096 1.59569C49.7083 0.533344 48.4514 -0.188507 47.2218 0.151988C46.8988 0.24149 46.6264 0.439951 46.424 0.702619C46.3287 0.797958 46.2625 0.910808 46.2275 1.04117C46.1322 1.22406 46.0874 1.42058 46.0952 1.63266C46.0738 1.85252 46.1808 2.22415 46.3053 2.40704L46.5447 2.71835C46.6828 2.86817 46.8482 2.97324 47.0389 3.0355C47.1575 3.10555 47.2879 3.14057 47.426 3.14057C47.6303 3.18532 47.8346 3.17754 48.037 3.11333C48.0623 3.10944 48.0876 3.10555 48.1148 3.10166L47.7062 3.15613C47.8249 3.14446 47.9397 3.13668 48.0603 3.1503L47.6537 3.09582C47.7607 3.11138 47.8599 3.13668 47.9611 3.17559L47.5992 3.02383C47.7121 3.07052 47.8132 3.13279 47.9105 3.20478L47.607 2.97129C47.7257 3.06469 47.8269 3.16975 47.9203 3.28844L47.6887 2.98881C47.8055 3.14446 47.9027 3.31179 47.9825 3.48885L47.8366 3.14057C47.8775 3.23785 47.9086 3.33514 47.9261 3.44021L47.8755 3.0569C47.8813 3.11138 47.8813 3.16197 47.8755 3.2184L47.9261 2.8351C47.9144 2.89347 47.8989 2.94989 47.8775 3.00437L48.0234 2.65998C47.9981 2.71446 47.9689 2.76311 47.9339 2.81369L48.1596 2.52184C48.107 2.58994 48.0487 2.64831 47.9825 2.70084L48.2744 2.47514C48.1946 2.53546 48.1109 2.58216 48.0195 2.62107L48.3639 2.47514C48.2763 2.50822 48.1888 2.53157 48.0934 2.54519L48.4787 2.49265C48.3347 2.51017 48.1927 2.50627 48.0487 2.48876L48.4339 2.5413C48.1615 2.50238 47.8872 2.4265 47.6342 2.31949L47.9806 2.46541C47.9203 2.43817 47.8638 2.40704 47.8094 2.36813L48.1031 2.59578C48.0623 2.56465 48.0273 2.53157 47.9942 2.49265L48.2218 2.78645C48.1868 2.73976 48.1576 2.69306 48.1343 2.63858L48.2802 2.98491C48.2549 2.91876 48.2374 2.85455 48.2277 2.78451L48.2802 3.1717C48.2685 3.0608 48.2724 2.95378 48.288 2.84288L48.2355 3.23007C48.2685 3.01021 48.3366 2.79424 48.4203 2.58799L48.2724 2.93627C48.3444 2.76894 48.4203 2.60161 48.4884 2.43234L48.3425 2.77867C48.3775 2.70084 48.4164 2.62885 48.467 2.55881L48.2432 2.84872C48.286 2.79424 48.3308 2.74754 48.3853 2.70473L48.0993 2.9246C48.1732 2.87206 48.2471 2.81564 48.3289 2.77673L48.0059 2.91292C48.0428 2.8993 48.0779 2.88958 48.1148 2.88179L47.7646 2.92849C47.8152 2.92265 47.8619 2.92265 47.9125 2.92849L47.5739 2.88374C47.6362 2.89347 47.6926 2.91098 47.751 2.93627L47.4591 2.81369C47.5078 2.83704 47.5486 2.86234 47.5934 2.89152L47.3541 2.70668C47.5467 2.86623 47.7257 3.05301 47.8794 3.24953L47.7121 3.03356C47.7996 3.14835 47.8736 3.26704 47.9319 3.3974L47.8308 3.15808C47.8522 3.21256 47.8697 3.26315 47.8775 3.32152L47.8424 3.0608C47.8502 3.14057 47.8502 3.21645 47.8424 3.29622L47.8775 3.0355C47.8658 3.11917 47.8444 3.19699 47.8132 3.27482L47.9125 3.04134C47.8736 3.1289 47.8269 3.21061 47.7704 3.2865L47.9241 3.08804C47.8638 3.16392 47.7977 3.23007 47.7218 3.29039L47.9183 3.13862C47.8405 3.19699 47.7607 3.24369 47.6732 3.2826L47.9047 3.18532C47.8269 3.21645 47.749 3.23785 47.6654 3.25147L47.9241 3.21645C47.8405 3.22618 47.7588 3.22618 47.6751 3.21645L47.9319 3.25147C47.8483 3.23785 47.7704 3.21645 47.6926 3.18337L47.9241 3.28066C47.8483 3.24564 47.7782 3.20478 47.7101 3.15419L47.9047 3.30595C47.8288 3.24564 47.7627 3.17948 47.7004 3.10555L47.8502 3.30012C47.7918 3.22423 47.7432 3.14251 47.7043 3.05496L47.8016 3.28455C47.7646 3.19505 47.7393 3.10555 47.7257 3.01215L47.7607 3.26704C47.749 3.15224 47.7529 3.03161 47.7665 2.91681L47.7335 3.16586C47.7471 3.08609 47.7685 3.01021 47.7996 2.93433L47.7082 3.1503C47.7588 3.03745 47.8035 2.9246 47.8502 2.8098L47.7607 3.01994C47.7977 2.93627 47.8405 2.86039 47.895 2.78645L47.7685 2.94989C47.7977 2.91292 47.8288 2.88179 47.858 2.84482C47.9125 2.79424 47.8872 2.8098 47.7821 2.89347C47.8677 2.84677 47.9378 2.78256 47.9903 2.70279C48.0565 2.6308 48.0993 2.54713 48.1226 2.44985C48.1051 2.53546 48.0642 2.60745 48.0039 2.66777C48.0467 2.61912 48.0856 2.56659 48.1207 2.51406C48.0506 2.60161 48.0351 2.62107 48.0759 2.57243C48.1965 2.42845 48.2588 2.28252 48.2335 2.09379C48.2102 1.92257 48.1168 1.76302 47.9611 1.67741V1.68519Z" fill="#FAF5EB"/>
</g>
<defs>
<clipPath id="clip0_11_912">
<rect width="58.145" height="53.2711" fill="white"/>
</clipPath>
</defs>
</svg>
