<svg width="123" height="44" viewBox="0 0 123 44" fill="none" xmlns="http://www.w3.org/2000/svg">
<path d="M58.6783 5.92578C60.0213 5.92578 61.1975 6.18472 62.2069 6.7048C63.2164 7.22487 63.9954 7.9622 64.544 8.92115C65.0926 9.87792 65.3669 11.0058 65.3669 12.3006C65.3669 13.5953 65.0926 14.7232 64.544 15.6799C63.9954 16.6367 63.2164 17.3762 62.2069 17.8963C61.1975 18.4164 60.0213 18.6753 58.6783 18.6753C57.3353 18.6753 56.1438 18.4164 55.1409 17.8963C54.1359 17.3762 53.3613 16.6389 52.8127 15.6799C52.264 14.7232 51.9897 13.5953 51.9897 12.3006C51.9897 11.0058 52.264 9.87792 52.8127 8.92115C53.3613 7.96439 54.1381 7.22487 55.1409 6.7048C56.146 6.18472 57.3244 5.92578 58.6783 5.92578ZM58.6783 18.0104C59.5539 18.0104 60.3153 17.7778 60.9649 17.3104C61.6122 16.843 62.1148 16.1847 62.4703 15.331C62.8258 14.4796 63.0035 13.468 63.0035 12.3006C63.0035 11.1331 62.8258 10.1237 62.4703 9.27007C62.1148 8.41863 61.6122 7.75812 60.9649 7.29071C60.3175 6.8233 59.5561 6.59069 58.6783 6.59069C57.8006 6.59069 57.0413 6.8233 56.3917 7.29071C55.7444 7.75812 55.2419 8.41863 54.8864 9.27007C54.5309 10.1215 54.3531 11.1331 54.3531 12.3006C54.3531 13.468 54.5309 14.4774 54.8864 15.331C55.2419 16.1825 55.7444 16.843 56.3917 17.3104C57.0391 17.7778 57.8006 18.0104 58.6783 18.0104Z" fill="#FAF5EB"/>
<path d="M69.5355 7.43122L67.0667 7.37856C66.9022 7.11084 66.663 6.87165 66.3492 6.66098C66.0332 6.45032 65.6886 6.34499 65.3156 6.34499H65.0698V6.16943H70.3759V6.34499H70.1477C69.8909 6.34499 69.6956 6.46568 69.5618 6.70487C69.4279 6.94406 69.4192 7.18764 69.5355 7.43122ZM68.853 6.18918L72.3904 12.6693L70.4812 13.0379L66.347 6.18918H68.8508H68.853ZM70.4461 17.1525V18.4318H69.0439V18.2563H69.2721C69.575 18.2563 69.8361 18.1487 70.0511 17.9315C70.2662 17.7164 70.3803 17.4553 70.3935 17.1525H70.4461ZM72.5308 12.7922V18.4318H70.3935V12.7922H72.5308ZM75.4538 6.18918H76.7156L72.3728 13.1411L71.5675 12.9655L75.456 6.18699L75.4538 6.18918ZM72.4782 17.1525H72.5308C72.5308 17.4553 72.6427 17.7164 72.8644 17.9315C73.086 18.1465 73.3493 18.2563 73.6522 18.2563H73.8628V18.4318H72.4804V17.1525H72.4782ZM74.7362 7.43122C74.8306 7.26884 74.8525 7.10206 74.8064 6.93309C74.7604 6.76412 74.6748 6.62368 74.5519 6.51176C74.429 6.39985 74.2864 6.34499 74.1218 6.34499H73.9111V6.16943H77.9927V6.34499H77.7469C77.3849 6.34499 77.0425 6.45032 76.7222 6.66098C76.4018 6.87165 76.1538 7.11084 75.9782 7.37856L74.734 7.43122H74.7362Z" fill="#FAF5EB"/>
<path d="M82.2501 5.92578C82.4717 5.92578 82.735 5.93675 83.0379 5.96089C83.3407 5.98503 83.6479 6.01575 83.9573 6.05745C84.2667 6.09914 84.5432 6.13864 84.789 6.18033C85.0348 6.22203 85.2037 6.26592 85.2959 6.312L85.1555 8.53713H84.9799C84.9799 7.94245 84.7671 7.46845 84.3413 7.11954C83.9156 6.76844 83.3626 6.59508 82.6868 6.59508C82.0109 6.59508 81.4689 6.77063 81.0673 7.11954C80.6635 7.47065 80.4572 7.89636 80.4463 8.39888C80.4221 8.69074 80.5077 8.97382 80.7008 9.24812C80.8939 9.52242 81.1529 9.77698 81.4798 10.0096L84.8592 12.5134C85.3376 12.8294 85.6887 13.2112 85.9104 13.6611C86.132 14.1109 86.2307 14.6157 86.2088 15.1752C86.1737 16.2505 85.7853 17.1019 85.0436 17.7317C84.3018 18.3615 83.2946 18.6775 82.0219 18.6775C81.5896 18.6775 81.1485 18.6402 80.6986 18.5634C80.2488 18.4866 79.8384 18.3703 79.4632 18.2123C79.0901 18.0543 78.7917 17.8656 78.57 17.6439C78.4998 17.4113 78.4713 17.1283 78.4823 16.7947C78.4932 16.4612 78.5415 16.1166 78.6227 15.7611C78.7039 15.4056 78.8026 15.105 78.9211 14.8592H79.0791C79.0331 15.4539 79.1318 15.9959 79.3776 16.4787C79.6234 16.9637 79.981 17.3433 80.455 17.6176C80.9268 17.8919 81.4842 18.0236 82.1272 18.0126C82.8513 17.9885 83.4329 17.7844 83.8695 17.4004C84.3084 17.0141 84.5257 16.5182 84.5257 15.9126C84.5257 15.5614 84.4313 15.2433 84.2448 14.958C84.0583 14.6727 83.7664 14.4116 83.3692 14.179L80.1983 11.7805C79.6607 11.4294 79.2788 11.008 79.0506 10.5099C78.8224 10.014 78.7258 9.49829 78.7609 8.96065C78.7961 8.40108 78.9541 7.88978 79.2327 7.42895C79.5136 6.96813 79.9064 6.60385 80.4155 6.33394C80.9224 6.06622 81.5325 5.93017 82.2457 5.93017L82.2501 5.92578ZM85.3157 6.10133L85.2981 6.47H83.4767V6.10133H85.3157Z" fill="#FAF5EB"/>
<path d="M87.3635 5.83813C87.4798 5.88421 87.6576 5.93249 87.8968 5.97857C88.136 6.02466 88.4015 6.06635 88.6933 6.10146C88.9852 6.13657 89.2529 6.15413 89.4987 6.15413L87.3613 6.34724V5.84033L87.3635 5.83813ZM98.2061 6.15413V6.81903H87.3657V6.15413H98.2061ZM89.0642 6.76637V6.81903C88.6078 6.83001 88.2413 6.97703 87.9604 7.25792C87.6795 7.5388 87.5391 7.90527 87.5391 8.36171V8.58993L87.3635 8.60748V6.76856H89.062L89.0642 6.76637ZM91.7787 17.1525V18.4319H90.3765V18.2563H90.6047C90.9075 18.2563 91.1686 18.1488 91.3837 17.9315C91.5987 17.7165 91.7129 17.4554 91.726 17.1525H91.7787ZM93.8612 6.22435V18.4319H91.7238V6.22435H93.8612ZM93.8085 17.1525H93.8612C93.8722 17.4554 93.9863 17.7165 94.2035 17.9315C94.4186 18.1466 94.6797 18.2563 94.9825 18.2563H95.2108V18.4319H93.8085V17.1525ZM98.2061 5.83813V6.34504L96.0688 6.15193C96.3255 6.15193 96.5976 6.13438 96.8829 6.09927C97.1682 6.06416 97.4337 6.02246 97.6795 5.97638C97.9252 5.9303 98.1008 5.88202 98.2039 5.83594L98.2061 5.83813ZM98.2061 6.76637V8.60529L98.0306 8.58773V8.35951C98.0306 7.90527 97.8901 7.53661 97.6092 7.25572C97.3284 6.97484 96.9619 6.83001 96.5055 6.81684V6.76417H98.2039L98.2061 6.76637Z" fill="#FAF5EB"/>
<path d="M100.709 7.44885H100.657C100.646 7.14602 100.532 6.88489 100.314 6.66984C100.097 6.45478 99.8382 6.34506 99.5353 6.34506H99.3071V6.16951H100.707V7.44885H100.709ZM100.709 17.1526V18.4319H99.3093V18.2563H99.5375C99.8404 18.2563 100.102 18.1488 100.317 17.9316C100.532 17.7165 100.646 17.4554 100.659 17.1526H100.712H100.709ZM102.794 6.17171V18.4319H100.657V6.17171H102.794ZM107.591 6.17171V6.85417H102.739V6.17171H107.591ZM106.768 12.0549V12.7198H102.739V12.0549H106.768ZM107.435 17.7472L107.734 18.4297H102.741V17.7472H107.435ZM108.66 15.103L107.784 18.4297H104.51L105.14 17.7472C105.735 17.7472 106.248 17.6397 106.68 17.4225C107.113 17.2074 107.475 16.898 107.767 16.4942C108.058 16.0905 108.298 15.6274 108.484 15.1008H108.66V15.103ZM106.768 10.5847V12.09H105.315V12.0549C105.678 12.044 105.98 11.9145 106.226 11.6687C106.472 11.4229 106.595 11.1201 106.595 10.758V10.5825H106.77L106.768 10.5847ZM106.768 12.6869V14.1923H106.593V13.9992C106.593 13.6371 106.47 13.3343 106.224 13.0885C105.978 12.8427 105.675 12.7198 105.313 12.7198V12.6847H106.766L106.768 12.6869ZM107.591 5.85571V6.36262L105.454 6.16951C105.71 6.16951 105.983 6.15196 106.268 6.11685C106.553 6.08173 106.819 6.04004 107.064 5.99396C107.31 5.94788 107.486 5.8996 107.589 5.85352L107.591 5.85571ZM107.591 6.8015V8.62287H107.415V8.37709C107.415 7.93382 107.275 7.56955 106.994 7.28208C106.713 6.99681 106.34 6.84758 105.873 6.83442V6.79931H107.589L107.591 6.8015Z" fill="#FAF5EB"/>
<path d="M111.375 7.44878H111.322C111.311 7.14595 111.197 6.88481 110.98 6.66976C110.763 6.45471 110.504 6.34499 110.201 6.34499H109.973V6.16943H111.373V7.44878H111.375ZM111.375 17.1525V18.4318H109.975V18.2563H110.203C110.506 18.2563 110.767 18.1487 110.982 17.9315C111.197 17.7164 111.311 17.4553 111.324 17.1525H111.377H111.375ZM113.46 6.17163V18.4318H111.322V6.17163H113.46ZM115.562 6.17163C116.086 6.17163 116.587 6.23527 117.058 6.36474C117.53 6.49421 117.949 6.6917 118.311 6.95942C118.673 7.22714 118.957 7.56947 119.161 7.98421C119.365 8.39896 119.468 8.8927 119.468 9.46325C119.468 9.97674 119.356 10.4858 119.134 10.9862C118.913 11.4887 118.586 11.9056 118.153 12.2392C117.721 12.5727 117.19 12.7615 116.56 12.8075C116.876 12.9129 117.177 13.1082 117.462 13.3934C117.747 13.6787 117.984 13.9618 118.171 14.2427C118.182 14.2537 118.257 14.3634 118.39 14.5675C118.524 14.7715 118.691 15.0195 118.889 15.3114C119.086 15.6032 119.295 15.8951 119.51 16.1869C119.725 16.4788 119.916 16.7246 120.078 16.9221C120.335 17.2249 120.572 17.4729 120.787 17.666C121.002 17.8591 121.232 18.0039 121.478 18.1048C121.724 18.2036 122.002 18.2541 122.318 18.2541V18.4296H120.866C120.258 18.4296 119.718 18.366 119.246 18.2365C118.774 18.107 118.362 17.9161 118.011 17.6594C117.66 17.4026 117.357 17.0823 117.1 16.696C117.03 16.5907 116.931 16.4305 116.802 16.2133C116.672 15.9982 116.534 15.7546 116.38 15.4869C116.229 15.2192 116.08 14.9581 115.933 14.7079C115.786 14.4577 115.665 14.2317 115.564 14.0342C115.465 13.8367 115.397 13.6963 115.362 13.6129C115.176 13.2749 114.972 13.0006 114.75 12.79C114.528 12.5793 114.289 12.463 114.032 12.4389V12.2633C114.056 12.2633 114.131 12.2655 114.261 12.2721C114.388 12.2787 114.535 12.2743 114.699 12.2633C115.015 12.2523 115.334 12.1931 115.654 12.0878C115.974 11.9824 116.264 11.7871 116.521 11.5019C116.778 11.2166 116.964 10.8172 117.08 10.3015C117.104 10.1962 117.126 10.0623 117.151 9.89774C117.175 9.73536 117.179 9.56419 117.168 9.39083C117.133 8.57451 116.922 7.95569 116.538 7.53436C116.152 7.11303 115.663 6.8914 115.068 6.86945C114.846 6.85848 114.612 6.85409 114.368 6.86067C114.122 6.86726 113.909 6.86945 113.729 6.86945H113.405C113.405 6.85848 113.389 6.79265 113.361 6.67634C113.332 6.56004 113.288 6.39107 113.229 6.16943H115.557L115.562 6.17163ZM113.407 17.1525H113.46C113.46 17.4553 113.571 17.7164 113.793 17.9315C114.015 18.1465 114.278 18.2563 114.581 18.2563H114.792V18.4318H113.409V17.1525H113.407Z" fill="#FAF5EB"/>
<path d="M53.2489 26.7859H53.1962C53.1853 26.4831 53.0712 26.222 52.8539 26.0069C52.6367 25.7919 52.3777 25.6821 52.0749 25.6821H51.8467V25.5066H53.2467V26.7859H53.2489ZM53.2489 36.4896V37.769H51.8489V37.5934H52.0771C52.3799 37.5934 52.6411 37.4859 52.8561 37.2686C53.0712 37.0536 53.1853 36.7925 53.1984 36.4896H53.2511H53.2489ZM55.3314 25.5088V37.769H53.194V25.5088H55.3314ZM56.3825 25.5088C57.223 25.5088 57.9625 25.6163 58.5989 25.8336C59.2353 26.0508 59.7312 26.3756 60.0867 26.8145C60.4422 27.2533 60.6199 27.8107 60.6199 28.4866C60.6199 29.0001 60.5168 29.4434 60.3127 29.8164C60.1086 30.1895 59.8519 30.4813 59.5425 30.692C59.2331 30.9027 58.8973 31.0365 58.5353 31.0958C59.1431 31.166 59.6763 31.3459 60.1372 31.6378C60.598 31.9296 60.9601 32.3093 61.2234 32.7767C61.4867 33.2441 61.6184 33.7817 61.6184 34.3874C61.6184 35.1006 61.4275 35.7106 61.0501 36.2175C60.6704 36.7244 60.1306 37.1106 59.4306 37.374C58.7306 37.6373 57.9076 37.769 56.9619 37.769H55.1756C55.1866 37.5232 55.1932 37.2796 55.1932 37.0338H56.4374C56.986 37.0338 57.4644 36.9307 57.8725 36.7266C58.2807 36.5225 58.5989 36.2109 58.8271 35.7896C59.0553 35.3683 59.1694 34.8438 59.1694 34.214C59.1694 33.6544 59.0751 33.1848 58.8886 32.803C58.702 32.4234 58.4541 32.1227 58.1446 31.9011C57.8352 31.6795 57.4885 31.5215 57.1023 31.4271C56.7161 31.3328 56.3255 31.2867 55.9283 31.2867V31.1287C56.196 31.1287 56.4703 31.0914 56.7512 31.0146C57.0321 30.9378 57.2888 30.8105 57.5214 30.6283C57.754 30.4484 57.945 30.1961 58.0898 29.8757C58.2346 29.5553 58.3092 29.1493 58.3092 28.6578C58.3092 28.0982 58.2149 27.633 58.0283 27.2643C57.8418 26.8957 57.5719 26.6257 57.223 26.4502C56.8719 26.2746 56.4528 26.1869 55.9612 26.1869H53.9292C53.9292 26.1759 53.9138 26.1166 53.8853 26.0113C53.8568 25.906 53.8129 25.737 53.7536 25.5044H56.3803L56.3825 25.5088Z" fill="#FAF5EB"/>
<path d="M64.7717 36.4897C64.6773 36.7223 64.6598 36.922 64.719 37.0844C64.7783 37.249 64.877 37.3741 65.0175 37.4618C65.1579 37.5496 65.2983 37.5935 65.4388 37.5935H65.5968V37.7691H61.9189V37.5935H62.0769C62.3447 37.5935 62.6234 37.5079 62.9086 37.3389C63.1939 37.17 63.4309 36.8869 63.6174 36.4897H64.7739H64.7717ZM68.5373 25.1929L68.6251 27.0318L64.2648 37.7142H63.0732L67.5915 27.328C67.6156 27.282 67.6639 27.1678 67.7407 26.9857C67.8175 26.8058 67.9031 26.5973 68.0041 26.3647C68.1028 26.1321 68.1884 25.9061 68.2586 25.691C68.3288 25.4759 68.3705 25.3092 68.3815 25.1929H68.5395H68.5373ZM70.5869 33.389V34.0539H65.3159V33.389H70.5869ZM68.5373 25.1929L74.0716 37.6615H71.48L67.7144 27.9951L68.5373 25.1929ZM71.0236 36.4897H73.5449C73.7315 36.8869 73.9685 37.17 74.2537 37.3389C74.539 37.5079 74.8177 37.5935 75.0854 37.5935H75.2259V37.7691H70.1985V37.5935H70.3565C70.5781 37.5935 70.7778 37.4969 70.9512 37.3038C71.1267 37.1107 71.1487 36.8408 71.0214 36.4897H71.0236Z" fill="#FAF5EB"/>
<path d="M77.0496 26.7681L74.5809 26.7155C74.4163 26.4478 74.1771 26.2086 73.8633 25.9979C73.5473 25.7872 73.2028 25.6819 72.8298 25.6819H72.584V25.5063H77.8901V25.6819H77.6619C77.4051 25.6819 77.2098 25.8026 77.0759 26.0418C76.9421 26.281 76.9333 26.5246 77.0496 26.7681ZM76.365 25.5261L79.9024 32.0062L77.9932 32.3749L73.8589 25.5261H76.3628H76.365ZM77.9603 36.4894V37.7687H76.5581V37.5932H76.7863C77.0891 37.5932 77.3503 37.4857 77.5653 37.2684C77.7804 37.0534 77.8945 36.7922 77.9076 36.4894H77.9603ZM80.0428 32.1269V37.7665H77.9054V32.1269H80.0428ZM82.9679 25.5261H84.2297L79.887 32.478L79.0816 32.3024L82.9701 25.5239L82.9679 25.5261ZM79.9923 36.4894H80.045C80.045 36.7922 80.1569 37.0534 80.3785 37.2684C80.6002 37.4835 80.8635 37.5932 81.1663 37.5932H81.377V37.7687H79.9945V36.4894H79.9923ZM82.2504 26.7681C82.3447 26.6057 82.3667 26.439 82.3206 26.27C82.2745 26.101 82.1889 25.9606 82.066 25.8487C81.9432 25.7368 81.8005 25.6819 81.6359 25.6819H81.4253V25.5063H85.5069V25.6819H85.2611C84.899 25.6819 84.5567 25.7872 84.2363 25.9979C83.9159 26.2086 83.668 26.4478 83.4924 26.7155L82.2482 26.7681H82.2504Z" fill="#FAF5EB"/>
<path d="M15.4411 13.8016C13.5648 17.4707 9.57979 19.36 6.97502 22.3971C5.73079 23.8103 4.85303 25.5264 4.80256 27.4377C4.75428 28.4449 4.73453 29.5509 4.49314 30.5603C4.26492 31.6115 3.86554 32.6428 3.35644 33.5667C2.61692 34.9272 1.74793 36.0771 1.23005 37.4837C0.773613 38.7587 0.661698 40.3255 1.54824 41.4358C2.1144 42.1403 3.05141 42.5704 3.98184 42.5572C4.96933 42.5616 5.78565 41.9757 6.56686 41.4007C7.38319 40.7709 8.3597 40.2574 9.39327 40.0665C10.135 39.8932 10.9359 40.0051 11.6711 39.9063C12.4172 39.79 13.0053 39.2063 13.7689 39.0747C14.3263 38.9518 14.8947 38.9627 15.4279 39.0352C17.1878 39.2041 19.3164 40.4154 20.7976 39.2436C21.9234 38.2166 22.6014 37.1107 24.3921 37.2335C24.7366 37.2335 24.9517 37.2533 25.1996 37.148C25.6078 36.9329 25.8009 36.4787 26.062 36.0595C26.3693 35.5307 26.7269 34.9799 27.3194 34.631C27.8044 34.3084 28.5395 34.2886 29.0333 34.1877C30.6045 33.8081 31.5832 32.5068 32.6211 31.2647C33.24 30.4989 33.8127 29.7243 34.2582 28.9101C34.7695 28.0258 34.9538 27.1985 35.3203 26.2044C35.6933 25.1643 36.4592 24.2185 37.2075 23.4548C38.6514 22.0745 39.6828 20.5077 40.5342 18.6951C40.8721 17.9644 41.4975 16.7597 41.7455 15.9938C42.5333 13.7204 41.9518 12.6803 40.2116 11.0981C39.4896 10.3959 38.6645 9.51591 38.6931 8.42968L38.8577 8.4209C38.9147 8.91025 39.1583 9.34036 39.4743 9.70244C40.1392 10.4573 41.0257 10.9598 41.7653 11.6752C43.6283 13.332 43.1192 15.7612 42.2985 17.8108C41.7192 19.2679 41.164 20.6767 40.3389 22.046C39.8122 22.9369 39.0705 23.784 38.3924 24.5389C37.7714 25.252 37.2228 25.9148 36.9222 26.7969C36.6259 27.7164 36.3209 28.8706 35.8162 29.7506C35.2983 30.7183 34.6597 31.5785 34.0058 32.3839C32.8428 33.819 31.3396 35.4758 29.3624 35.8313C28.9345 35.9191 28.6405 35.9015 28.3047 35.9805C28.0875 36.0464 27.9778 36.1363 27.7978 36.3426C27.5016 36.6981 27.2865 37.1502 26.9771 37.5627C26.6194 38.0981 25.937 38.6402 25.2501 38.7038C24.6993 38.7916 24.199 38.6731 23.7425 38.7301C22.8319 38.9342 22.4237 39.7527 21.6008 40.3013C21.1114 40.6634 20.4773 40.896 19.8782 40.9421C17.7606 41.1089 15.9502 39.6233 13.9225 39.8559C13.4354 39.9195 13.0557 40.1499 12.5861 40.3474C11.8466 40.6875 10.9842 40.5427 10.2118 40.5515C9.48982 40.569 8.77006 40.7292 8.11612 41.0387C6.74461 41.6816 5.63643 43.0619 4.00159 43.0882C2.34262 43.1936 0.670475 42.0547 0.216232 40.4264C-0.266539 38.842 0.119677 37.1304 0.778001 35.6645C1.41219 34.2448 2.18901 33.0356 2.67397 31.6137C3.16113 30.2992 3.27085 28.7324 3.33449 27.3345C3.4091 25.7085 4.01696 24.0649 5.00005 22.7614C6.53175 20.6328 8.75469 19.1604 10.8635 17.7011C12.5049 16.5468 14.1113 15.3465 15.3006 13.7116L15.4433 13.7972L15.4411 13.8016Z" fill="#FAF5EB"/>
<path d="M34.3397 22.2305C34.8927 20.6089 35.4742 18.9148 36.6899 17.6552C37.7608 16.479 39.3539 15.4256 39.457 13.7206C39.4943 12.6278 38.9918 11.6227 38.6473 10.5672C38.362 9.73334 38.1536 8.66686 38.3664 7.75179C38.7044 6.00723 39.7972 4.37239 37.2582 3.96642C36.42 3.79306 35.3425 3.67018 34.5459 3.09305C34.2321 2.87141 33.9491 2.53347 33.7801 2.19772C33.5585 1.79395 33.5672 1.60962 33.3478 1.44943C32.8826 1.23877 32.3449 1.41871 31.8688 1.59426C30.8286 2.00462 29.7358 2.81655 28.5398 2.88238C27.9342 2.97235 27.21 2.61686 26.7382 2.41936C26.025 2.22186 25.652 3.11718 25.2987 3.6219C25.178 3.81501 24.9212 4.17489 24.783 4.35483C22.3143 7.50382 17.8969 8.67563 16.069 12.3622C15.3031 13.9334 15.5533 15.5595 15.3163 17.3194C14.9652 18.4869 14.3683 19.5885 13.5739 20.5386C12.1344 22.2854 10.0475 23.4309 8.8757 25.2764C7.82457 27.0012 7.73021 29.3382 8.15593 31.2956C8.60139 33.275 9.78638 35.0898 11.645 35.9566C12.9441 36.593 14.5088 36.7378 15.8473 36.1563C16.2972 35.9588 16.7953 35.6581 17.412 35.4102C18.5816 34.8967 20.0167 35.0898 21.1885 35.2697C22.198 35.4102 23.0999 35.4848 23.9403 34.9098C25.7705 33.5734 26.0821 31.1574 27.6292 29.4831C28.0439 29.0288 28.5354 28.6645 29.0336 28.3639C30.0035 27.7626 31.0568 27.3369 31.9126 26.593C33.1964 25.4651 33.7845 23.8105 34.3375 22.2283L34.3397 22.2305ZM34.4955 22.2854C33.9447 23.9027 33.3851 25.6011 32.1365 26.8366C31.3136 27.6441 30.2712 28.1862 29.3627 28.8555C27.9342 29.8342 27.4163 31.3308 26.8041 32.9436C26.1567 34.6904 24.9234 36.5776 22.898 36.8585C21.6823 37.0516 20.5127 36.7466 19.3891 36.7444C18.2744 36.6961 17.616 37.2557 16.5649 37.7494C13.8395 39.0002 10.5083 38.0062 8.56848 35.8337C6.69225 33.7051 6.05368 30.7405 6.41137 27.9909C6.56937 26.7664 6.93145 25.5178 7.64024 24.4776C8.98542 22.4697 11.1403 21.4208 12.7225 19.7816C13.4576 19.0157 14.0392 18.0919 14.432 17.089L14.4122 17.1614C14.6316 16.1059 14.6448 14.9407 14.8928 13.7733C15.1429 12.5927 15.7464 11.5064 16.5123 10.6199C18.8186 7.88784 22.5337 6.66336 24.4626 3.61093C24.9959 2.67172 25.5883 1.23657 26.9533 1.5394C27.5765 1.69301 27.8683 1.94537 28.4455 1.84881C29.4725 1.68423 30.3436 0.86791 31.3575 0.422444C32.3318 -0.0669098 33.7691 -0.297323 34.5525 0.670413C34.9958 1.2256 34.9322 1.56793 35.3996 1.89928C36.0294 2.29647 36.7513 2.32281 37.5655 2.50933C38.5881 2.68927 39.7665 3.21813 40.1439 4.30217C40.7342 5.88653 39.5997 7.2734 39.479 8.74805C39.4285 9.81015 39.8586 10.8766 40.0715 11.9585C40.8724 15.5485 38.2764 16.2859 36.33 18.489C35.4325 19.5928 34.9563 20.9512 34.4933 22.2898L34.4955 22.2854Z" fill="#FAF5EB"/>
<path d="M28.0856 13.2925C27.9079 13.3232 27.7016 13.3386 27.5151 13.2486C27.3307 13.1608 27.2123 13.0072 27.0894 12.8887C26.8568 12.6451 26.5276 12.5574 26.2028 12.632C25.0859 12.8646 24.6777 14.1198 23.5629 14.4314C23.1438 14.5543 22.7335 14.4928 22.4043 14.4841C21.7679 14.4424 21.2105 14.6838 20.7365 15.0678C19.7183 15.8929 19.3124 17.1152 18.97 18.3726C18.6255 19.7353 18.1779 21.2407 17.4164 22.4673C16.6549 23.7467 15.6938 24.8658 14.6558 25.8687C14.1357 26.369 13.6025 26.854 13.0561 27.3126C12.5185 27.7668 12.0423 28.2211 11.8514 28.8421C11.1733 30.9114 13.0934 32.7591 15.1605 32.34C15.7377 32.2522 16.6505 32.0723 17.243 31.9648C19.1522 31.8748 21.171 31.1594 22.3143 29.5838C22.9134 28.728 23.2118 27.6088 23.9733 26.8167C24.7194 25.974 25.7749 25.3618 26.6527 24.7912C27.7192 24.1109 28.7571 23.2376 29.4791 22.2281C29.8785 21.6751 29.9992 21.1924 30.2537 20.5187C30.7848 19.1209 31.781 18.0631 32.4657 16.8496C32.9572 15.9916 33.1613 14.9997 33.3807 14.0364C33.6945 13.0555 33.0033 12.3379 32.0575 12.2282C30.675 12.0724 29.4374 13.0511 28.0856 13.2881V13.2925ZM28.0571 13.1279C29.7556 12.7944 31.4014 11.1442 33.2162 12.0483C34.5438 12.7066 34.3265 13.9859 34.2234 15.2302C34.1554 15.9719 34.0215 16.7443 33.7297 17.4465C33.44 18.1641 33.056 18.7961 32.7093 19.3908C32.1014 20.3519 31.8578 21.0849 31.5133 22.1316C30.7716 23.9442 29.2004 25.2784 27.5699 26.2659C26.4332 26.9637 25.3141 27.4794 24.6206 28.6095C24.2608 29.1998 23.9579 29.913 23.4817 30.4835C22.0115 32.329 19.5625 33.0181 17.3001 32.8864C16.9314 32.893 14.6997 33.1805 14.0875 32.9939C12.953 32.7811 11.9238 32.013 11.4717 30.9378C11.0241 29.8735 11.1535 28.5722 11.8623 27.6505C12.5404 26.8057 13.3392 26.1123 13.9887 25.2586C15.2812 23.6457 16.3192 21.8946 16.9621 19.9569C17.4032 18.6074 17.6709 17.1437 18.4565 15.8665C19.1873 14.6881 20.4491 13.6809 21.8974 13.6897C22.3955 13.6809 23.0056 13.9333 23.4422 13.8784C24.0874 13.784 24.5921 13.2157 25.1385 12.8382C25.7222 12.4213 26.6724 12.1382 27.2166 12.7636C27.4471 13.0445 27.6884 13.2157 28.0593 13.1279H28.0571Z" fill="#FAF5EB"/>
<path d="M17.5694 26.6412C18.1883 26.2089 18.8817 25.7831 19.3272 25.1731C19.5927 24.6815 19.5883 24.1285 19.5751 23.569C19.4522 21.7322 19.9262 19.7814 21.1485 18.3529C21.9385 17.3851 23.2244 17.2008 24.3897 17.2359C25.5417 17.2315 26.8496 17.7823 27.1634 19.0068C27.5825 20.9247 25.6317 22.4718 24.5389 23.7928C23.3758 25.0875 22.1996 26.369 20.9159 27.5453C19.9855 28.4823 18.7478 29.3161 17.3697 29.3359C16.9309 29.3513 16.2967 29.3666 16.0421 28.8926C15.9126 28.6403 15.9609 28.3967 16.0399 28.1685C16.2813 27.4421 16.9616 27.0142 17.5694 26.6412ZM17.6638 26.7816C17.1152 27.1393 16.5337 27.5869 16.4876 28.276C16.4678 28.4208 16.5117 28.5613 16.5556 28.5635C17.5299 28.4296 18.3287 27.7449 18.987 27.0383C20.3388 25.522 21.8639 24.021 23.3912 22.6539C23.9047 22.1843 24.4116 21.7081 24.947 21.2583C25.6844 20.6131 26.4568 20.093 26.4458 19.1297C26.2286 17.4093 23.6326 17.5431 22.6319 18.388C22.2128 18.75 21.989 19.3118 21.7717 19.9087C21.4426 20.8303 21.1683 21.7586 20.9181 22.7044C20.6921 23.558 20.5034 24.5521 19.9131 25.2762C19.5685 25.7195 19.0002 25.9477 18.5481 26.2308C18.2453 26.4064 17.9513 26.5907 17.6616 26.7838L17.6638 26.7816Z" fill="#FAF5EB"/>
<path d="M24.0785 20.5606C24.2058 20.3433 23.982 20.0932 23.7933 20.0427C23.7691 20.0295 23.7691 20.0142 23.7801 19.9835C23.8547 19.7508 23.5014 19.674 23.3478 19.7991C23.2929 19.8364 23.271 19.9067 23.2842 19.9593C23.2995 20.0493 23.3675 20.0493 23.407 20.1041C23.4487 20.2029 23.5168 20.2183 23.5738 20.2775C23.6616 20.4421 23.8832 20.8744 24.0785 20.5584V20.5606ZM24.1663 20.6045C24.0697 20.949 23.7252 21.3001 23.3302 21.254C22.3866 21.1531 22.2067 19.5819 23.2381 19.4875C23.598 19.4656 23.8832 19.1364 24.2694 19.3295C24.5701 19.4678 24.6798 19.8255 24.5547 20.08C24.4582 20.2994 24.2563 20.4114 24.1641 20.6045H24.1663Z" fill="#FAF5EB"/>
</svg>
