<svg width="129" height="30" viewBox="0 0 129 30" fill="none" xmlns="http://www.w3.org/2000/svg">
<g clip-path="url(#clip0_11_704)">
<path d="M41.0051 23.3311L42.3203 26.8714H41.828L41.494 25.9423H39.9578L39.6238 26.8714H39.1245L40.4554 23.3311H41.0051ZM41.3322 25.5057L40.7268 23.8286L40.1144 25.5057H41.3322Z" fill="#FAF5EB"/>
<path d="M46.8276 23.3311L45.5019 26.8714H44.9469L43.6387 23.3311H44.131L45.2305 26.3564L46.33 23.3311H46.8293H46.8276Z" fill="#FAF5EB"/>
<path d="M49.5186 26.8714H47.2744V23.3311H49.5186V23.7782H47.7563V24.8724H49.2229V25.3195H47.7563V26.4242H49.5186V26.8714Z" fill="#FAF5EB"/>
<path d="M50.7212 25.5057V26.8714H50.2393V23.3311H51.2987C51.718 23.3311 52.0399 23.4233 52.2643 23.6094C52.4887 23.7938 52.6018 24.0478 52.6018 24.3679C52.6018 24.8742 52.3356 25.2134 51.8032 25.3874L52.7601 26.8714H52.1877L51.3266 25.4657L50.7194 25.5057H50.7212ZM50.7212 25.0812L51.304 25.0638C51.5458 25.0568 51.7424 24.9942 51.8937 24.8794C52.0451 24.7646 52.1199 24.601 52.1199 24.3888C52.1199 24.1766 52.0433 24.0304 51.8885 23.9278C51.7337 23.8234 51.5179 23.7712 51.2431 23.7712H50.7212V25.0795V25.0812Z" fill="#FAF5EB"/>
<path d="M54.3066 26.5269C54.5293 26.5269 54.7137 26.4712 54.8581 26.3599C55.0042 26.2485 55.0755 26.1059 55.0755 25.9319C55.0755 25.758 55.0111 25.6275 54.8824 25.5387C54.7537 25.45 54.5345 25.3648 54.2248 25.2813C54.0734 25.2395 53.9447 25.1978 53.8403 25.1543C53.7342 25.1108 53.6246 25.0499 53.5115 24.9733C53.3984 24.8968 53.3115 24.7959 53.254 24.6724C53.1949 24.5489 53.1671 24.4079 53.1671 24.2444C53.1671 23.9469 53.2767 23.7051 53.4959 23.5224C53.7151 23.3398 54.0004 23.2476 54.3518 23.2476C54.7589 23.2476 55.1312 23.3519 55.4687 23.559L55.2982 23.9782C55.0042 23.7816 54.6893 23.6842 54.357 23.6842C54.1152 23.6842 53.9343 23.7329 53.816 23.8286C53.6977 23.9243 53.6368 24.053 53.6368 24.2114C53.6368 24.3697 53.7011 24.5036 53.8316 24.5889C53.9621 24.6741 54.1831 24.7594 54.4979 24.8463C54.8111 24.9299 55.0633 25.0499 55.2547 25.2082C55.4461 25.3665 55.54 25.5979 55.54 25.8989C55.54 26.1998 55.4252 26.4625 55.1938 26.6609C54.9624 26.8592 54.6632 26.9583 54.2926 26.9583C53.8542 26.9583 53.4593 26.847 53.1079 26.6243L53.2662 26.1877C53.6107 26.4138 53.9552 26.5269 54.3031 26.5269H54.3066Z" fill="#FAF5EB"/>
<path d="M57.7009 23.3311L59.0162 26.8714H58.5238L58.1898 25.9423H56.6536L56.3196 26.8714H55.8203L57.1512 23.3311H57.7009ZM58.0297 25.5057L57.4243 23.8286L56.8119 25.5057H58.0297Z" fill="#FAF5EB"/>
<path d="M62.1094 23.7837H60.8689V26.8716H60.3923V23.7837H59.1519V23.3296H62.1094V23.7837Z" fill="#FAF5EB"/>
<path d="M63.151 26.8714H62.6743V23.3311H63.151V26.8714Z" fill="#FAF5EB"/>
<path d="M66.2565 26.8714H64.0645V23.3311H64.5463V26.419H66.2582V26.8731L66.2565 26.8714Z" fill="#FAF5EB"/>
<path d="M69.106 26.8714H66.8618V23.3311H69.106V23.7782H67.3437V24.8724H68.8103V25.3195H67.3437V26.4242H69.106V26.8714Z" fill="#FAF5EB"/>
<path d="M74.0175 26.8714H73.5409V25.3074H71.5976V26.8714H71.1157V23.3311H71.5976V24.8724H73.5409V23.3311H74.0175V26.8714Z" fill="#FAF5EB"/>
<path d="M76.3748 23.3311L77.69 26.8714H77.1976L76.8636 25.9423H75.3275L74.9934 26.8714H74.4941L75.825 23.3311H76.3748ZM76.7036 25.5057L76.0981 23.8286L75.4858 25.5057H76.7036Z" fill="#FAF5EB"/>
<path d="M80.3571 26.8714H78.165V23.3311H78.6469V26.419H80.3571V26.8731V26.8714Z" fill="#FAF5EB"/>
<path d="M83.1564 26.8714H80.9644V23.3311H81.4463V26.419H83.1564V26.8731V26.8714Z" fill="#FAF5EB"/>
<path d="M86.8565 25.0481C87.0862 25.109 87.2636 25.2099 87.3889 25.3543C87.5141 25.4987 87.575 25.6692 87.575 25.8693C87.575 26.1824 87.4672 26.4277 87.2497 26.6052C87.0322 26.7826 86.7034 26.8714 86.2616 26.8714H85.0542V23.3311H86.2268C86.6391 23.3311 86.947 23.4146 87.154 23.5833C87.3593 23.7521 87.4619 23.9817 87.4619 24.2722C87.4619 24.6393 87.2601 24.8968 86.8565 25.0481ZM86.9818 24.3105C86.9818 24.14 86.9209 24.0078 86.7974 23.9139C86.6739 23.8199 86.4982 23.7729 86.2685 23.7729H85.5378V24.8829H86.1954C86.4442 24.8829 86.6391 24.8324 86.7765 24.7298C86.9139 24.6271 86.9835 24.488 86.9835 24.3105H86.9818ZM87.0949 25.8745C87.0949 25.5039 86.8078 25.3195 86.2337 25.3195H85.5361V26.4295H86.3068C86.8322 26.4295 87.0949 26.2451 87.0949 25.8745Z" fill="#FAF5EB"/>
<path d="M90.7605 23.3311L89.5306 25.4674V26.8731H89.0487V25.4622L87.8135 23.3311H88.358L89.2992 24.9855L90.2282 23.3311H90.7605Z" fill="#FAF5EB"/>
<path d="M94.8004 26.8715H92.5562V23.3312H94.8004V23.7783H93.038V24.8726H94.5046V25.3197H93.038V26.4244H94.8004V26.8715ZM94.5568 21.9551L93.7305 22.9798H93.3912L93.9914 21.9551H94.5586H94.5568Z" fill="#FAF5EB"/>
<path d="M98.4601 25.0762C98.4601 25.6312 98.2931 26.0696 97.9608 26.3914C97.6285 26.7133 97.1623 26.8733 96.5621 26.8733H95.52V23.333H96.5847C97.1658 23.333 97.6251 23.4913 97.9591 23.8062C98.2931 24.1211 98.4601 24.5456 98.4601 25.0779V25.0762ZM97.9782 25.1092C97.9782 24.6778 97.8547 24.349 97.6094 24.1211C97.3641 23.8932 97.0144 23.7784 96.5621 23.7784H96.0019V26.4245H96.5847C97.0162 26.4245 97.3554 26.3114 97.6042 26.087C97.853 25.8625 97.9782 25.5372 97.9782 25.1092Z" fill="#FAF5EB"/>
<path d="M101.411 26.8714H99.1665V23.3311H101.411V23.7782H99.6484V24.8724H101.115V25.3195H99.6484V26.4242H101.411V26.8714Z" fill="#FAF5EB"/>
<path d="M104.551 26.1859V23.3311H105.021V26.9061H104.499L102.601 24.0165V26.8714H102.131V23.3311H102.663L104.549 26.1859H104.551Z" fill="#FAF5EB"/>
<path d="M41.1655 17.2038V6.28891H40.2052C38.9491 6.28891 38.0619 6.40025 37.2686 6.60727V5.52344H46.5794V6.60727C45.7844 6.40199 44.8989 6.28891 43.6428 6.28891H42.6825V17.2038H41.1672H41.1655Z" fill="#FAF5EB"/>
<path d="M42.8407 17.3638H41.0053V6.44886H40.2051C39.036 6.44886 38.1435 6.54454 37.3085 6.762L37.1084 6.81419V5.36328H46.7394V6.81419L46.5393 6.762C45.7043 6.54628 44.8101 6.44886 43.6427 6.44886H42.8425V17.3638H42.8407ZM41.3254 17.0437H42.5206V6.12875H43.641C44.7457 6.12875 45.6121 6.214 46.4176 6.40188V5.68165H37.4268V6.40188C38.2322 6.214 39.1004 6.12875 40.2033 6.12875H41.3237V17.0437H41.3254Z" fill="#FAF5EB"/>
<path d="M48.5728 17.2041V5.52197H55.5559V6.60581C54.7609 6.40052 53.985 6.28744 52.4158 6.28744H50.0689V10.8855H54.0598V11.6527H50.0689V16.4369H52.4158C53.9867 16.4369 54.7626 16.3255 55.5559 16.1185V17.2023H48.5728V17.2041Z" fill="#FAF5EB"/>
<path d="M55.7159 17.364H48.4126V5.36182H55.7159V6.81273L55.5158 6.76054C54.7503 6.56221 53.9988 6.44739 52.4157 6.44739H50.2306V10.7253H54.2215V11.8126H50.2306V16.2767H52.4157C53.9988 16.2767 54.7503 16.1619 55.5158 15.9636L55.7159 15.9114V17.3623V17.364ZM48.7327 17.0439H55.3958V16.3254C54.6703 16.4994 53.8961 16.5986 52.4157 16.5986H49.9087V11.4943H53.8996V11.0489H49.9087V6.13077H52.4157C53.8961 6.13077 54.6703 6.22993 55.3958 6.4039V5.6854H48.7327V17.0474V17.0439Z" fill="#FAF5EB"/>
<path d="M64.3482 17.204L61.2637 12.1954L59.4718 12.1206V17.204H57.9565V5.54105L61.2637 5.46624C64.1638 5.39143 65.439 6.79363 65.439 8.45679C65.439 10.1199 64.3865 11.2977 62.7042 11.8022L66.1036 17.204H64.3482ZM59.4701 6.26998V11.2786C59.8215 11.3534 60.3747 11.3725 60.8375 11.3725C62.5929 11.3725 63.8489 10.4575 63.8489 8.81169C63.8489 7.16593 62.8329 6.26998 61.041 6.26998H59.4701Z" fill="#FAF5EB"/>
<path d="M66.3925 17.3641H64.2579L61.1699 12.352L59.6303 12.2876V17.3641H57.7949V5.38445L61.2587 5.30616C62.7861 5.26615 63.9918 5.63497 64.7468 6.37086C65.3035 6.91365 65.5975 7.63389 65.5975 8.45677C65.5975 10.0747 64.6354 11.3168 62.9479 11.8927L66.3908 17.3658L66.3925 17.3641ZM64.4371 17.0439H65.8132L62.4573 11.71L62.6591 11.6491C64.324 11.1498 65.2791 9.98597 65.2791 8.45677C65.2791 7.72261 65.0182 7.08066 64.5258 6.6005C63.8352 5.92724 62.7078 5.58974 61.2691 5.62627L58.1185 5.6976V17.0439H59.3137V11.9536L61.3578 12.0388L64.4406 17.0439H64.4371ZM60.8377 11.5326C60.2114 11.5326 59.7399 11.4995 59.4372 11.4351L59.3102 11.4073V6.10817H61.0412C62.8992 6.10817 64.0091 7.11894 64.0091 8.80993C64.0091 10.5009 62.7635 11.5308 60.8377 11.5308V11.5326ZM59.6303 11.1464C59.9121 11.1898 60.3245 11.2125 60.8377 11.2125C62.5965 11.2125 63.689 10.2922 63.689 8.81167C63.689 7.33118 62.7479 6.43001 61.0412 6.43001H59.632V11.1464H59.6303Z" fill="#FAF5EB"/>
<path d="M78.129 17.2041L77.7602 6.90504H77.5758L73.8807 16.7744H73.0682L69.3922 6.90504H69.2078L68.8199 17.2041H67.9326L68.3571 5.52197H70.4256L73.7137 14.4554H73.8615L77.1496 5.52197H79.2181L79.6426 17.2041H78.1273H78.129Z" fill="#FAF5EB"/>
<path d="M79.8096 17.3638H77.9742L77.6123 7.26136L73.992 16.9324H72.9569L69.354 7.25962L68.973 17.3621H67.7656L68.2023 5.35986H70.537L73.7867 14.1923L77.0365 5.35986H79.3712L79.8079 17.3621L79.8096 17.3638ZM78.2839 17.0437H79.4791L79.065 5.68171H77.2627L73.9746 14.6151H73.6041L70.316 5.68171H68.5137L68.0997 17.0437H68.6668L69.0547 6.74467H69.5053L73.1813 16.614H73.7711L77.4662 6.74467H77.9168L78.2856 17.0437H78.2839Z" fill="#FAF5EB"/>
<path d="M82.4502 17.2041V5.52197H83.9655V17.2041H82.4502Z" fill="#FAF5EB"/>
<path d="M84.1254 17.364H82.29V5.36182H84.1254V17.364ZM82.6101 17.0439H83.8053V5.68192H82.6101V17.0439Z" fill="#FAF5EB"/>
<path d="M94.1255 17.2981L87.8817 7.27917H87.8086V17.2042H86.9214V5.59688L88.5654 5.44727L94.7727 15.4471H94.8649V5.52207H95.7521V17.1485L94.1272 17.2981H94.1255Z" fill="#FAF5EB"/>
<path d="M94.0419 17.4667L87.9686 7.72087V17.364H86.7612V5.45055L88.6488 5.27832L94.7047 15.0346V5.36183H95.9121V17.2945L94.0419 17.4667ZM87.6467 7.11893H87.9703L94.2089 17.1292L95.5902 17.0022V5.68193H95.0231V15.6069H94.6821L88.4801 5.61582L87.0796 5.74282V17.0439H87.6467V7.11893Z" fill="#FAF5EB"/>
<path d="M105.319 17.2041L104.044 13.2236H99.7569L98.4643 17.2041H97.5962L101.18 6.34486V5.82121L102.953 5.20361L106.924 17.2024H105.317L105.319 17.2041ZM101.975 6.86851H101.846L100.018 12.4564H103.786L101.975 6.86851Z" fill="#FAF5EB"/>
<path d="M107.149 17.3641H105.204L103.929 13.3836H99.8752L98.5826 17.3641H97.377L101.022 6.3187V5.70806L103.055 5L107.147 17.3641H107.149ZM105.435 17.044H106.704L102.852 5.40883L101.34 5.93422L101.331 6.3935L97.8171 17.0422H98.3477L99.6403 13.0618H104.16L105.435 17.0422V17.044ZM104.007 12.6164H99.7969L101.73 6.70839H102.092L104.005 12.6164H104.007ZM100.239 12.2963H103.567L101.911 7.18681L100.239 12.2963Z" fill="#FAF5EB"/>
<path d="M108.774 17.2041V5.52197H110.27V16.4369H112.578C114.13 16.4369 114.925 16.3255 115.719 16.1376V17.2023H108.772L108.774 17.2041Z" fill="#FAF5EB"/>
<path d="M115.879 17.364H108.612V5.36182H110.428V16.2767H112.577C114.118 16.2767 114.908 16.1636 115.68 15.9827L115.877 15.9357V17.364H115.879ZM108.934 17.0439H115.558V16.3393C114.821 16.4994 114.022 16.5986 112.578 16.5986H110.11V5.68366H108.934V17.0457V17.0439Z" fill="#FAF5EB"/>
<path d="M122.294 15.2971C122.978 16.2696 123.827 16.7184 124.826 16.7184C126.397 16.7184 127.467 15.6155 127.467 14.3455C127.467 12.5136 126.228 11.3184 122.387 10.8695L123.624 5.52344H128.832V6.92564H124.065L123.474 9.54215C127.39 10.1215 128.738 11.7481 128.738 13.747C128.738 15.7459 127.279 17.4856 124.878 17.4856C123.751 17.4856 122.494 17.1499 121.646 16.4209L122.293 15.2988L122.294 15.2971Z" fill="#FAF5EB"/>
<path d="M124.882 17.6439C123.598 17.6439 122.35 17.2316 121.545 16.5392L121.444 16.4522L122.282 14.9978L122.427 15.2031C123.067 16.113 123.852 16.5549 124.828 16.5549C126.242 16.5549 127.308 15.6032 127.308 14.342C127.308 12.4213 125.831 11.4279 122.369 11.0243L122.192 11.0035L123.498 5.35986H128.996V7.08217H124.198L123.672 9.40641C127.143 9.9579 128.904 11.4158 128.904 13.7435C128.904 16.0712 127.251 17.6422 124.883 17.6422L124.882 17.6439ZM121.854 16.3809C122.606 16.9724 123.725 17.3238 124.882 17.3238C127.06 17.3238 128.582 15.852 128.582 13.7452C128.582 11.6385 126.856 10.2015 123.453 9.69868L123.283 9.67259L123.94 6.76206H128.674V5.67997H123.752L122.583 10.7286C126.07 11.1653 127.627 12.2839 127.627 14.342C127.627 15.7633 126.397 16.875 124.826 16.875C123.829 16.875 122.983 16.4418 122.312 15.5858L121.854 16.3791V16.3809Z" fill="#FAF5EB"/>
<path d="M13.537 29.5663C14.1198 29.3627 14.6713 29.0879 15.1863 28.7451C14.6139 28.3207 14.0885 27.8266 13.631 27.2647C12.5785 25.9755 12.1905 24.669 12.0252 24.1106C11.5607 22.5431 11.6529 21.4297 11.7417 20.3511C11.8252 19.3351 11.9052 18.3765 11.4633 17.0857C11.2702 16.5255 10.8301 15.4903 9.96368 14.5161C9.95324 14.5179 9.94106 14.5213 9.93063 14.5231C8.91464 14.7632 7.95432 14.9893 6.74523 15.8209C6.3103 16.1201 5.29084 16.8212 4.48709 18.0703C3.46937 19.6517 2.73173 22.2856 3.71814 24.9369C4.86461 28.0214 7.72816 29.5193 9.83146 29.8638C11.6721 30.1665 13.243 29.6672 13.5388 29.5646L13.537 29.5663Z" fill="#FAF5EB"/>
<path d="M28.1783 7.32423C26.8665 5.99684 25.3025 5.47841 25.0033 5.38794C24.4135 5.21049 23.8046 5.10785 23.187 5.0835C23.401 5.76372 23.535 6.47178 23.575 7.1955C23.6689 8.85691 23.2149 10.1426 23.02 10.6906C22.4755 12.2319 21.7448 13.0792 21.0403 13.8986C20.3757 14.671 19.7477 15.3999 19.3458 16.7047C19.1718 17.2719 18.9213 18.3679 19.0483 19.664C19.0587 19.6692 19.0692 19.6727 19.0796 19.6761C20.0434 20.0797 20.9533 20.4607 22.4181 20.499C22.9452 20.5129 24.1822 20.5442 25.567 20.0067C27.3206 19.3265 29.4656 17.6285 30.2259 14.9024C31.1114 11.7326 29.6744 8.83778 28.1765 7.3225L28.1783 7.32423Z" fill="#FAF5EB"/>
<path d="M20.6156 29.5522C23.9036 29.4148 26.2122 27.1549 27.1917 25.2604C28.0476 23.6024 28.058 21.9549 28.0528 21.6418C28.0406 21.0259 27.9484 20.4153 27.7814 19.8203C27.2004 20.2326 26.5688 20.5806 25.8921 20.8415C24.6256 21.3321 23.4861 21.4 22.7937 21.4C22.6371 21.4 22.5032 21.3965 22.3953 21.393C20.7617 21.3512 19.7301 20.9198 18.7332 20.5005C17.7938 20.1074 16.9065 19.7368 15.5409 19.7577C14.9476 19.7664 13.8273 19.8673 12.6338 20.3892C12.6338 20.3996 12.6321 20.4118 12.6303 20.4222C12.5434 21.4626 12.4633 22.4455 12.8791 23.8529C13.0287 24.3592 13.3819 25.5457 14.3196 26.6956C15.5078 28.1535 17.7868 29.667 20.6138 29.5487L20.6156 29.5522Z" fill="#FAF5EB"/>
<path d="M11.4228 0.845485C9.75615 1.68228 8.77844 3.00968 8.59925 3.26715C8.24783 3.77341 7.96252 4.32141 7.74854 4.90073C8.46007 4.90769 9.17683 4.9999 9.87793 5.18431C11.4872 5.60879 12.5693 6.43863 13.0303 6.79179C14.3281 7.7869 14.9074 8.742 15.4693 9.66578C15.9982 10.5374 16.4975 11.3585 17.6144 12.1431C18.0998 12.4841 19.0653 13.0617 20.337 13.34C20.344 13.3313 20.3509 13.3226 20.3596 13.3139C21.0416 12.5224 21.6853 11.7743 22.1742 10.393C22.3499 9.89543 22.7622 8.72808 22.6787 7.24586C22.5726 5.36872 21.6209 2.80439 19.2636 1.23866C16.5236 -0.582812 13.326 -0.111352 11.4211 0.845485H11.4228Z" fill="#FAF5EB"/>
<path d="M2.80449 19.523C3.03065 18.848 3.33857 18.1956 3.73175 17.5867C4.63291 16.1863 5.75676 15.4138 6.23518 15.085C7.58171 14.1578 8.67077 13.902 9.72155 13.6533C10.7132 13.4201 11.6491 13.1992 12.7417 12.378C13.2149 12.0214 14.0604 11.2803 14.7197 10.1564C14.7145 10.1477 14.7093 10.139 14.7041 10.1304C14.1613 9.23788 13.6498 8.39413 12.4859 7.50166C12.0667 7.17981 11.0855 6.42826 9.64848 6.04901C7.83049 5.56885 5.09741 5.68193 2.87929 7.43903C0.302791 9.48318 -0.238257 12.6703 0.0835883 14.7771C0.36542 16.6212 1.324 17.9608 1.51362 18.2095C1.88592 18.7001 2.31911 19.1403 2.80449 19.523Z" fill="#FAF5EB"/>
<path d="M24.0342 29.5655C24.0342 29.5655 24.0427 29.5612 24.0448 29.5591C24.0406 29.5591 24.0363 29.5633 24.0342 29.5655Z" fill="#FAF5EB"/>
</g>
<defs>
<clipPath id="clip0_11_704">
<rect width="128.994" height="29.9629" fill="white"/>
</clipPath>
</defs>
</svg>
