<svg width="95" height="41" viewBox="0 0 95 41" fill="none" xmlns="http://www.w3.org/2000/svg">
<g clip-path="url(#clip0_11_786)">
<path d="M32.7003 29.3071L33.7902 32.2318H33.4852L33.1769 31.3936H31.852L31.5437 32.2318H31.2388L32.347 29.3071H32.6986H32.7003ZM33.0753 31.122L32.5186 29.6021L31.957 31.122H33.0753Z" fill="#FAF5EB"/>
<path d="M36.2335 31.8152V29.3071H36.5235V32.2602H36.2002L34.5253 29.7288V32.2318H34.2354V29.3071H34.572L36.2335 31.8152Z" fill="#FAF5EB"/>
<path d="M40.1129 32.2319H38.3447V29.3072H40.1129V29.5838H38.643V30.6321H39.8696V30.9037H38.643V31.9569H40.1129V32.2336V32.2319ZM39.9196 28.189L39.208 29.0272H38.993L39.5446 28.189H39.9196Z" fill="#FAF5EB"/>
<path d="M43.0594 30.7487C43.0594 31.2103 42.9211 31.5736 42.6461 31.8369C42.3695 32.1002 41.9845 32.2318 41.4879 32.2318H40.7163V29.3071H41.5112C41.9862 29.3071 42.3628 29.4388 42.6411 29.7021C42.9194 29.9654 43.0594 30.3137 43.0594 30.747V30.7487ZM42.7611 30.772C42.7611 30.4004 42.6495 30.1104 42.4261 29.8987C42.2028 29.6888 41.8912 29.5821 41.4929 29.5821H41.0163V31.9552H41.5029C41.8895 31.9552 42.1962 31.8552 42.4228 31.6552C42.6495 31.4553 42.7628 31.1603 42.7628 30.7703L42.7611 30.772Z" fill="#FAF5EB"/>
<path d="M45.4225 32.2318H43.6543V29.3071H45.4225V29.5838H43.9526V30.632H45.1791V30.9036H43.9526V31.9569H45.4225V32.2335V32.2318Z" fill="#FAF5EB"/>
<path d="M48.024 31.8152V29.3071H48.314V32.2602H47.9907L46.3159 29.7288V32.2318H46.0259V29.3071H46.3625L48.024 31.8152Z" fill="#FAF5EB"/>
<path d="M52.3902 32.002C52.1036 32.1953 51.772 32.292 51.3937 32.292C50.9687 32.292 50.6271 32.1553 50.3688 31.8803C50.1105 31.6054 49.9805 31.2371 49.9805 30.7755C49.9805 30.3138 50.1121 29.9439 50.3754 29.6639C50.6387 29.3856 50.9787 29.2456 51.3937 29.2456C51.7453 29.2456 52.0553 29.3273 52.3202 29.4889L52.2219 29.7606C51.9686 29.5989 51.692 29.5172 51.3887 29.5172C51.0604 29.5172 50.7954 29.6272 50.5904 29.8489C50.3854 30.0705 50.2838 30.3755 50.2838 30.7655C50.2838 31.1554 50.3854 31.4537 50.5887 31.6804C50.7921 31.907 51.062 32.0203 51.3987 32.0203C51.652 32.0203 51.8853 31.9603 52.1003 31.842V31.0471H51.2537V30.7755H52.3902V32.002Z" fill="#FAF5EB"/>
<path d="M55.3729 29.6672C55.6462 29.9472 55.7828 30.3122 55.7828 30.7571C55.7828 31.2021 55.6479 31.5704 55.3762 31.8587C55.1046 32.147 54.7596 32.292 54.3413 32.292C53.923 32.292 53.5864 32.1503 53.3147 31.8687C53.0431 31.587 52.9048 31.2221 52.9048 30.7755C52.9048 30.3288 53.0398 29.9622 53.3114 29.6756C53.5831 29.3889 53.928 29.2456 54.3463 29.2456C54.7646 29.2456 55.0996 29.3856 55.3729 29.6672ZM55.4779 30.7771C55.4779 30.4022 55.3712 30.0989 55.1579 29.8639C54.9446 29.6306 54.6696 29.5122 54.3363 29.5122C54.003 29.5122 53.7347 29.6272 53.5247 29.8589C53.3147 30.0889 53.2081 30.3888 53.2081 30.7571C53.2081 31.1254 53.3164 31.4371 53.5314 31.672C53.7464 31.907 54.0213 32.0253 54.3546 32.0253C54.6879 32.0253 54.9513 31.9087 55.1612 31.677C55.3712 31.4454 55.4779 31.1438 55.4779 30.7771Z" fill="#FAF5EB"/>
<path d="M58.5478 31.1135C58.5478 31.4818 58.4528 31.7701 58.2629 31.9784C58.0729 32.1868 57.7979 32.2918 57.4396 32.2918C57.0813 32.2918 56.8247 32.1901 56.633 31.9868C56.4414 31.7835 56.3447 31.5085 56.3447 31.1585V29.3054H56.6347V31.1202C56.6347 31.4035 56.7047 31.6235 56.843 31.7801C56.9813 31.9368 57.1846 32.0134 57.453 32.0134C57.7213 32.0134 57.9096 31.9368 58.0479 31.7835C58.1845 31.6301 58.2545 31.4068 58.2545 31.1152V29.3037H58.5495V31.1102L58.5478 31.1135Z" fill="#FAF5EB"/>
<path d="M59.5578 31.062V32.2318H59.2578V29.3071H60.0444C60.396 29.3071 60.6627 29.3821 60.8393 29.5321C61.0176 29.6821 61.106 29.8871 61.106 30.1504C61.106 30.3587 61.0443 30.5337 60.9193 30.672C60.7943 30.8103 60.631 30.912 60.4277 30.9736L61.2376 32.2318H60.891L60.1427 31.0253L59.5578 31.062ZM59.5578 30.7953L60.0811 30.777C60.2877 30.7703 60.4594 30.7137 60.5977 30.6037C60.736 30.4937 60.806 30.3487 60.806 30.1637C60.806 29.9787 60.7377 29.8287 60.5994 29.7288C60.4627 29.6288 60.266 29.5788 60.0094 29.5788H59.5561V30.7953H59.5578Z" fill="#FAF5EB"/>
<path d="M64.3123 32.2318L64.2657 29.6771L63.3058 32.2135H62.9775L62.0092 29.6721L61.9576 32.2318H61.6626L61.7609 29.3071H62.1642L63.1508 31.8902L64.124 29.3071H64.5223L64.6156 32.2318H64.3123Z" fill="#FAF5EB"/>
<path d="M67.0636 32.2318H65.2954V29.3071H67.0636V29.5838H65.5937V30.632H66.8203V30.9036H65.5937V31.9569H67.0636V32.2335V32.2318Z" fill="#FAF5EB"/>
<path d="M69.7582 29.5873H68.7283V32.2304H68.4283V29.5873H67.3984V29.3057H69.7565V29.5873H69.7582Z" fill="#FAF5EB"/>
<path d="M73.0162 32.2284H71.248V29.3037H73.0162V29.5804H71.5464V30.6286H72.7729V30.9002H71.5464V31.9535H73.0162V32.2301V32.2284Z" fill="#FAF5EB"/>
<path d="M74.551 30.9333L73.6578 32.2299H73.3062L74.3777 30.7417L73.3628 29.3052H73.7178L74.5594 30.5267L75.4059 29.3052H75.7576L74.7327 30.7284L75.8092 32.2299H75.4443L74.551 30.9333Z" fill="#FAF5EB"/>
<path d="M78.1257 30.217C78.1257 30.5319 78.0224 30.7719 77.8141 30.9369C77.6058 31.1019 77.3175 31.1885 76.9458 31.1935L76.5475 31.1985V32.2284H76.2476V29.3037H76.9825C77.3575 29.3037 77.6408 29.387 77.8341 29.552C78.0274 29.717 78.124 29.9387 78.124 30.217H78.1257ZM77.8174 30.232C77.8174 30.0236 77.7457 29.862 77.5991 29.7503C77.4524 29.6387 77.2458 29.582 76.9742 29.582H76.5492V30.9252L76.9658 30.9152C77.5341 30.9052 77.8174 30.6786 77.8174 30.232Z" fill="#FAF5EB"/>
<path d="M80.4474 32.2284H78.6792V29.3037H80.4474V29.5804H78.9775V30.6286H80.204V30.9002H78.9775V31.9535H80.4474V32.2301V32.2284Z" fill="#FAF5EB"/>
<path d="M81.3507 31.06V32.2299H81.0508V29.3052H81.8374C82.189 29.3052 82.4556 29.3802 82.6323 29.5302C82.8106 29.6801 82.8989 29.8851 82.8989 30.1484C82.8989 30.3567 82.8373 30.5317 82.7123 30.67C82.5873 30.8084 82.424 30.91 82.2207 30.9717L83.0306 32.2299H82.684L81.9357 31.0233L81.3507 31.06ZM81.3507 30.7934L81.874 30.775C82.0807 30.7684 82.2523 30.7117 82.3907 30.6017C82.529 30.4917 82.599 30.3467 82.599 30.1618C82.599 29.9768 82.5306 29.8268 82.3923 29.7268C82.2557 29.6268 82.059 29.5768 81.8024 29.5768H81.3491V30.7934H81.3507Z" fill="#FAF5EB"/>
<path d="M83.8301 32.2284H83.5352V29.3037H83.8301V32.2284Z" fill="#FAF5EB"/>
<path d="M86.3619 32.2284H84.5938V29.3037H86.3619V29.5804H84.8921V30.6286H86.1186V30.9002H84.8921V31.9535H86.3619V32.2301V32.2284Z" fill="#FAF5EB"/>
<path d="M88.963 31.8133V29.3052H89.2529V32.2582H88.9296L87.2548 29.7268V32.2299H86.9648V29.3052H87.3015L88.963 31.8133Z" fill="#FAF5EB"/>
<path d="M92.168 29.482L92.0747 29.7486C91.8314 29.592 91.5597 29.5153 91.2598 29.5153C90.9315 29.5153 90.6665 29.6253 90.4615 29.8469C90.2565 30.0686 90.1549 30.3735 90.1549 30.7635C90.1549 31.1535 90.2565 31.4518 90.4598 31.6784C90.6632 31.9051 90.9331 32.0184 91.2698 32.0184C91.5814 32.0184 91.8547 31.9317 92.088 31.7567L92.1447 32.0517C91.9014 32.21 91.6081 32.29 91.2648 32.29C90.8398 32.29 90.4982 32.1534 90.2399 31.8784C89.9816 31.6034 89.8516 31.2351 89.8516 30.7735C89.8516 30.3119 89.9832 29.9419 90.2465 29.6619C90.5098 29.3836 90.8498 29.2437 91.2648 29.2437C91.6047 29.2437 91.9064 29.3236 92.168 29.482Z" fill="#FAF5EB"/>
<path d="M94.5157 32.2284H92.7476V29.3037H94.5157V29.5804H93.0459V30.6286H94.2724V30.9002H93.0459V31.9535H94.5157V32.2301V32.2284Z" fill="#FAF5EB"/>
<path d="M30.3052 7.94092C30.4535 8.00091 30.6801 8.06091 30.9851 8.11923C31.2884 8.17923 31.6267 8.23089 31.9983 8.27588C32.37 8.32088 32.7116 8.34255 33.0232 8.34255L30.3052 8.58752V7.94092ZM43.6522 8.34255V9.1008H30.3052V8.34255H43.6522ZM32.155 9.03414V9.1008C31.68 9.1158 31.2901 9.27579 30.9851 9.57909C30.6801 9.88239 30.5285 10.274 30.5285 10.749V11.0839L30.3052 11.1056V9.03248H32.155V9.03414ZM36.0096 22.3362V23.9627H34.2265V23.7394H34.5164C34.9031 23.7394 35.233 23.6027 35.508 23.3277C35.783 23.0528 35.928 22.7228 35.943 22.3362H36.0096ZM38.0144 8.43254V23.9627H35.943V8.43254H38.0144ZM37.9478 22.3362H38.0144C38.0294 22.7228 38.1744 23.0528 38.4494 23.3277C38.7243 23.6027 39.0543 23.7394 39.4409 23.7394H39.7309V23.9627H37.9478V22.3362ZM43.6522 7.94092V8.58752L40.9341 8.34255C41.2608 8.34255 41.6057 8.32088 41.9707 8.27588C42.334 8.23089 42.6723 8.17923 42.9839 8.11923C43.2956 8.05924 43.5189 8.00091 43.6522 7.94092ZM43.6522 9.03414V11.1073L43.4289 11.0856V10.7506C43.4289 10.2757 43.2772 9.88573 42.9723 9.58076C42.6673 9.27745 42.2773 9.11747 41.8024 9.10247V9.03581H43.6522V9.03414Z" fill="#FAF5EB"/>
<path d="M46.6603 8.36572V9.70226H46.5936C46.5936 9.37562 46.4787 9.10898 46.2487 8.90067C46.0187 8.69236 45.7404 8.58903 45.4138 8.58903H45.0571V8.36572H46.662H46.6603ZM48.6651 8.36572V18.1698C48.6651 19.2397 48.8551 20.1746 49.2334 20.9778C49.6117 21.7794 50.1466 22.3993 50.8382 22.8376C51.5282 23.2759 52.3347 23.4942 53.2563 23.4942C54.1779 23.4942 55.0645 23.2859 55.7844 22.871C56.5043 22.456 57.0626 21.8677 57.4559 21.1111C57.8492 20.3529 58.0459 19.4696 58.0459 18.4597V8.36572H59.2707V18.4147C59.2707 19.588 59.0224 20.6129 58.5241 21.4894C58.0259 22.366 57.3126 23.0493 56.386 23.5392C55.4578 24.0292 54.3695 24.2742 53.1213 24.2742C51.7698 24.2742 50.6032 24.0325 49.6233 23.5492C48.6434 23.0659 47.8935 22.3877 47.3736 21.5111C46.8536 20.6345 46.5936 19.6096 46.5936 18.4364V8.36572H48.6668H48.6651ZM50.2016 8.36572V8.58903H49.845C49.5184 8.58903 49.2401 8.69402 49.0101 8.90067C48.7801 9.10898 48.6651 9.37562 48.6651 9.70226H48.6201V8.36572H50.2016ZM58.1125 8.36572V9.70226H58.0459C58.0459 9.37562 57.9309 9.10898 57.7009 8.90067C57.4709 8.69236 57.1926 8.58903 56.866 8.58903H56.5093V8.36572H58.1142H58.1125ZM60.8089 8.36572V8.58903H60.4523C60.1256 8.58903 59.8473 8.69402 59.6174 8.90067C59.3874 9.10898 59.2724 9.37562 59.2724 9.70226H59.2274V8.36572H60.8089Z" fill="#FAF5EB"/>
<path d="M64.4853 9.99077H64.4186C64.4036 9.60414 64.2587 9.27417 63.9837 8.9992C63.7087 8.72422 63.3787 8.58757 62.9921 8.58757H62.7021V8.36426H64.4853V9.99077ZM64.4853 22.3362V23.9627H62.7021V23.7394H62.9921C63.3787 23.7394 63.7087 23.6028 63.9837 23.3278C64.2587 23.0528 64.4036 22.7228 64.4186 22.3362H64.4853ZM66.4901 8.36592V23.9627H64.417V8.36592H66.4901ZM66.4234 9.99077V8.36426H68.2066V8.58757H67.9166C67.53 8.58757 67.2 8.72589 66.9251 8.9992C66.6501 9.27417 66.5051 9.60414 66.4901 9.99077H66.4234ZM72.4612 23.1828L72.6395 23.9627H66.4234V23.1828H72.4612ZM73.9094 20.0398L72.7062 23.9611H68.7849L69.5865 23.1811C70.3581 23.1811 71.0047 23.0511 71.5246 22.7912C72.0446 22.5312 72.4745 22.1646 72.8162 21.6879C73.1578 21.213 73.4478 20.6631 73.6844 20.0398H73.9077H73.9094Z" fill="#FAF5EB"/>
<path d="M77.1406 9.99077H77.0739C77.0589 9.60414 76.9139 9.27417 76.639 8.9992C76.364 8.72422 76.034 8.58757 75.6474 8.58757H75.3574V8.36426H77.1406V9.99077ZM77.1406 22.3362V23.9627H75.3574V23.7394H75.6474C76.034 23.7394 76.364 23.6028 76.639 23.3278C76.9139 23.0528 77.0589 22.7228 77.0739 22.3362H77.1406ZM79.1454 8.36592V23.9627H77.0723V8.36592H79.1454ZM79.0787 9.99077V8.36426H80.8619V8.58757H80.5719C80.1853 8.58757 79.8553 8.72589 79.5803 8.9992C79.3054 9.27417 79.1604 9.60414 79.1454 9.99077H79.0787ZM79.0787 22.3362H79.1454C79.1604 22.7228 79.3054 23.0528 79.5803 23.3278C79.8553 23.6028 80.1853 23.7394 80.5719 23.7394H80.8619V23.9627H79.0787V22.3362Z" fill="#FAF5EB"/>
<path d="M85.0503 9.99077H84.9836C84.9836 9.60414 84.8419 9.27417 84.5603 8.9992C84.2787 8.72422 83.9437 8.58757 83.5571 8.58757H83.2904L83.2688 8.36426H85.0519V9.99077H85.0503ZM85.0503 22.3362V23.9627H83.2671V23.7394H83.5571C83.9437 23.7394 84.2737 23.6028 84.5486 23.3278C84.8236 23.0528 84.9686 22.7228 84.9836 22.3362H85.0503ZM87.0551 8.36592V23.9627H84.9836V8.36592H87.0551ZM89.6181 8.36592C90.688 8.36592 91.5829 8.54091 92.3029 8.88921C93.0228 9.23751 93.5727 9.73579 93.951 10.3824C94.3293 11.029 94.5193 11.7906 94.5193 12.6655C94.5343 13.3638 94.4043 13.9987 94.1294 14.5703C93.8544 15.1419 93.4861 15.6219 93.0261 16.0068C92.5662 16.3935 92.0412 16.6784 91.4546 16.8651C90.868 17.0517 90.2631 17.1134 89.6381 17.0551C89.0149 16.9951 88.4049 16.7951 87.8116 16.4535V16.2302C88.2716 16.2751 88.6832 16.2818 89.0482 16.2518C89.4115 16.2218 89.7914 16.1335 90.1847 15.9852C90.578 15.8369 90.9497 15.5835 91.2996 15.2269C91.6479 14.8703 91.9129 14.3887 92.0912 13.7787C92.1362 13.6004 92.1729 13.3888 92.2029 13.1438C92.2329 12.8988 92.2395 12.6655 92.2245 12.4422C92.2096 11.4473 91.9462 10.6457 91.433 10.0358C90.9197 9.42749 90.1964 9.12252 89.2598 9.12252H86.9867C86.9117 8.87088 86.8384 8.61757 86.7634 8.36426H89.6148L89.6181 8.36592ZM86.9884 22.3362H87.0551C87.0701 22.7228 87.215 23.0528 87.49 23.3278C87.765 23.6028 88.095 23.7394 88.4816 23.7394H88.7715V23.9627H86.9884V22.3362Z" fill="#FAF5EB"/>
<path d="M11.4755 40.5794H11.3972C5.11283 40.5794 0 35.4682 0 29.1838V11.3955C0 5.11283 5.11283 0 11.3955 0H11.4739C17.7583 0 22.8694 5.11283 22.8694 11.3955V29.1838C22.8694 35.4682 17.7566 40.5794 11.4739 40.5794H11.4755ZM11.3955 0.801588C5.55445 0.801588 0.801588 5.55445 0.801588 11.3955V29.1838C0.801588 35.0249 5.55445 39.7778 11.3955 39.7778H11.4739C17.315 39.7778 22.0678 35.0249 22.0678 29.1838V11.3955C22.0678 5.55445 17.315 0.801588 11.4739 0.801588H11.3955Z" fill="#FAF5EB"/>
<path d="M20.1499 35.145H2.69824V35.9466H20.1499V35.145Z" fill="#FAF5EB"/>
<path d="M11.8358 21.6562H11.0342V27.8723H11.8358V21.6562Z" fill="#FAF5EB"/>
<path d="M11.1441 35.6265V34.825C13.8972 34.8166 16.4503 33.5684 18.1451 31.4003C19.8833 29.1772 20.4649 26.2558 19.72 23.5394C16.9036 23.4727 14.2105 24.736 12.469 26.9607C11.6941 27.9506 11.1475 29.0655 10.8442 30.2737L10.0659 30.0788C10.3976 28.7606 10.9925 27.5457 11.8374 26.4674C13.7972 23.961 16.8653 22.5728 20.0449 22.7511L20.3232 22.7661L20.4116 23.0511C21.3398 26.0992 20.7282 29.3988 18.7767 31.8952C16.9286 34.2584 14.1472 35.6182 11.1441 35.6265Z" fill="#FAF5EB"/>
<path d="M17.1417 27.9388C16.9567 27.9388 16.7717 27.9338 16.5851 27.9238L16.3067 27.9088L16.2251 27.6421C15.8251 26.3456 15.7001 25.0057 15.8535 23.6592L16.65 23.7492C16.5201 24.8907 16.6084 26.0289 16.9117 27.1338C18.0549 27.1622 19.1781 26.9755 20.253 26.5756L20.533 27.3272C19.4398 27.7338 18.3016 27.9388 17.1433 27.9388H17.1417Z" fill="#FAF5EB"/>
<path d="M16.324 27.2315L10.9536 34.0708L11.5841 34.5658L16.9545 27.7266L16.324 27.2315Z" fill="#FAF5EB"/>
<path d="M9.88751 35.5881C7.82105 35.5881 5.81458 34.7732 4.32972 33.2883C2.51157 31.4718 1.69831 28.8738 2.15327 26.3407L2.20326 26.064L2.50323 26.0107C5.02632 25.5674 7.6144 26.3823 9.42422 28.1922C11.2424 30.0103 12.0556 32.6067 11.6007 35.1398L11.5507 35.4148L11.2757 35.4648C10.8124 35.5481 10.3475 35.5881 9.88584 35.5881H9.88751ZM2.89819 26.7623C2.59489 28.9471 3.33149 31.1569 4.89633 32.7217C6.46118 34.2866 8.67096 35.0232 10.8557 34.7198C11.1591 32.5351 10.4225 30.3253 8.85761 28.7604C7.29276 27.1956 5.08298 26.459 2.89819 26.7623Z" fill="#FAF5EB"/>
<path d="M4.36147 30.0685C3.74653 30.0685 3.13493 29.9952 2.52832 29.8502L2.71497 29.0702C3.57988 29.2769 4.4598 29.3202 5.33804 29.1986C5.4597 28.3237 5.41804 27.4454 5.21306 26.5822L5.99298 26.3955C6.24629 27.4587 6.27629 28.5436 6.08297 29.6185L6.03298 29.8935L5.758 29.9435C5.29305 30.0268 4.82643 30.0685 4.36147 30.0685Z" fill="#FAF5EB"/>
<path d="M5.93937 29.2345L5.37256 29.8013L10.924 35.3527L11.4908 34.7859L5.93937 29.2345Z" fill="#FAF5EB"/>
<path d="M10.8943 21.8947C8.68618 21.8947 6.65971 20.7814 5.4715 18.9166C4.81656 17.8884 4.46993 16.6985 4.46826 15.4736V5.27295H4.86989C8.4462 5.27295 11.5176 7.54106 12.6775 10.7441C13.3491 9.04591 15.0056 7.8377 16.937 7.8327H17.3387V15.452C17.3387 19.0049 14.4473 21.8963 10.8943 21.8963V21.8947ZM6.1481 18.4867C7.18799 20.1182 8.96282 21.0931 10.8943 21.0931C14.0057 21.0931 16.5371 18.5616 16.5371 15.4503V8.65595C14.6406 8.8626 13.1591 10.4774 13.1591 12.4256V13.1355L12.3575 13.1572C12.1458 9.31922 9.06781 6.28618 5.26985 6.0862V15.4769C5.26985 16.5485 5.57315 17.5901 6.14643 18.4883L6.1481 18.4867Z" fill="#FAF5EB"/>
<path d="M13.1605 13.1338H12.3589V21.0897H13.1605V13.1338Z" fill="#FAF5EB"/>
<path d="M14.7199 8.64248C14.6516 7.59758 13.775 6.77766 12.7268 6.77766C11.8686 6.77766 11.1086 7.32428 10.8337 8.13586L10.0737 7.87922C10.4587 6.741 11.5253 5.97607 12.7268 5.97607C14.1967 5.97607 15.4249 7.12429 15.5199 8.58915L14.7199 8.64248Z" fill="#FAF5EB"/>
</g>
<defs>
<clipPath id="clip0_11_786">
<rect width="94.5207" height="40.5794" fill="white"/>
</clipPath>
</defs>
</svg>
